G04 EAGLE Gerber X2 export*
G75*
%MOMM*%
%FSLAX34Y34*%
%LPD*%
%AMOC8*
5,1,8,0,0,1.08239X$1,22.5*%
G01*
%ADD10R,0.900000X0.700000*%
%ADD11R,1.200000X0.800000*%
%ADD12R,0.700000X0.900000*%
%ADD13R,1.270000X1.540000*%
%ADD14R,2.000000X1.000000*%
%ADD15C,0.660400*%
%ADD16C,0.152400*%
%ADD17C,0.203200*%
%ADD18C,0.254000*%
%ADD19C,0.406400*%

G36*
X20236Y2552D02*
X20236Y2552D01*
X20308Y2554D01*
X20357Y2572D01*
X20408Y2580D01*
X20471Y2614D01*
X20539Y2639D01*
X20579Y2671D01*
X20625Y2696D01*
X20675Y2747D01*
X20731Y2792D01*
X20759Y2836D01*
X20795Y2874D01*
X20825Y2939D01*
X20864Y2999D01*
X20876Y3050D01*
X20898Y3097D01*
X20906Y3168D01*
X20924Y3238D01*
X20920Y3290D01*
X20925Y3341D01*
X20910Y3412D01*
X20905Y3483D01*
X20884Y3531D01*
X20873Y3582D01*
X20836Y3643D01*
X20808Y3709D01*
X20763Y3765D01*
X20747Y3793D01*
X20729Y3808D01*
X20703Y3840D01*
X20475Y4068D01*
X20475Y14332D01*
X21368Y15225D01*
X29632Y15225D01*
X30525Y14332D01*
X30525Y4068D01*
X30297Y3840D01*
X30255Y3782D01*
X30205Y3730D01*
X30183Y3683D01*
X30153Y3641D01*
X30132Y3572D01*
X30102Y3507D01*
X30096Y3455D01*
X30081Y3405D01*
X30083Y3334D01*
X30075Y3263D01*
X30086Y3212D01*
X30087Y3160D01*
X30112Y3092D01*
X30127Y3022D01*
X30154Y2977D01*
X30171Y2929D01*
X30216Y2873D01*
X30253Y2811D01*
X30293Y2777D01*
X30325Y2737D01*
X30385Y2698D01*
X30440Y2651D01*
X30488Y2632D01*
X30532Y2604D01*
X30601Y2586D01*
X30668Y2559D01*
X30739Y2551D01*
X30771Y2543D01*
X30794Y2545D01*
X30835Y2541D01*
X33165Y2541D01*
X33236Y2552D01*
X33308Y2554D01*
X33357Y2572D01*
X33408Y2580D01*
X33471Y2614D01*
X33539Y2639D01*
X33579Y2671D01*
X33625Y2696D01*
X33675Y2747D01*
X33731Y2792D01*
X33759Y2836D01*
X33795Y2874D01*
X33825Y2939D01*
X33864Y2999D01*
X33876Y3050D01*
X33898Y3097D01*
X33906Y3168D01*
X33924Y3238D01*
X33920Y3290D01*
X33925Y3341D01*
X33910Y3412D01*
X33905Y3483D01*
X33884Y3531D01*
X33873Y3582D01*
X33836Y3643D01*
X33808Y3709D01*
X33763Y3765D01*
X33747Y3793D01*
X33729Y3808D01*
X33703Y3840D01*
X33475Y4068D01*
X33475Y14332D01*
X34368Y15225D01*
X42632Y15225D01*
X43525Y14332D01*
X43525Y12502D01*
X43528Y12482D01*
X43526Y12463D01*
X43548Y12361D01*
X43564Y12259D01*
X43574Y12242D01*
X43578Y12222D01*
X43631Y12133D01*
X43680Y12042D01*
X43694Y12028D01*
X43704Y12011D01*
X43783Y11944D01*
X43858Y11872D01*
X43876Y11864D01*
X43891Y11851D01*
X43987Y11812D01*
X44081Y11769D01*
X44101Y11767D01*
X44119Y11759D01*
X44286Y11741D01*
X47648Y11741D01*
X47668Y11744D01*
X47687Y11742D01*
X47789Y11764D01*
X47891Y11780D01*
X47908Y11790D01*
X47928Y11794D01*
X48017Y11847D01*
X48108Y11896D01*
X48122Y11910D01*
X48139Y11920D01*
X48206Y11999D01*
X48278Y12074D01*
X48286Y12092D01*
X48299Y12107D01*
X48338Y12203D01*
X48381Y12297D01*
X48383Y12317D01*
X48391Y12335D01*
X48409Y12502D01*
X48409Y18477D01*
X56538Y18477D01*
X56558Y18480D01*
X56577Y18478D01*
X56679Y18500D01*
X56781Y18517D01*
X56798Y18526D01*
X56818Y18530D01*
X56907Y18583D01*
X56998Y18632D01*
X57012Y18646D01*
X57029Y18656D01*
X57096Y18735D01*
X57167Y18810D01*
X57176Y18828D01*
X57189Y18843D01*
X57228Y18939D01*
X57271Y19033D01*
X57273Y19053D01*
X57281Y19071D01*
X57299Y19238D01*
X57299Y20001D01*
X57301Y20001D01*
X57301Y19238D01*
X57304Y19218D01*
X57302Y19199D01*
X57324Y19097D01*
X57341Y18995D01*
X57350Y18978D01*
X57354Y18958D01*
X57407Y18869D01*
X57456Y18778D01*
X57470Y18764D01*
X57480Y18747D01*
X57559Y18680D01*
X57634Y18609D01*
X57652Y18600D01*
X57667Y18587D01*
X57763Y18548D01*
X57857Y18505D01*
X57877Y18503D01*
X57895Y18495D01*
X58062Y18477D01*
X66191Y18477D01*
X66191Y12502D01*
X66194Y12482D01*
X66192Y12463D01*
X66214Y12361D01*
X66230Y12259D01*
X66240Y12242D01*
X66244Y12222D01*
X66297Y12133D01*
X66346Y12042D01*
X66360Y12028D01*
X66370Y12011D01*
X66449Y11944D01*
X66524Y11872D01*
X66542Y11864D01*
X66557Y11851D01*
X66653Y11812D01*
X66747Y11769D01*
X66767Y11767D01*
X66785Y11759D01*
X66952Y11741D01*
X67741Y11741D01*
X67831Y11755D01*
X67922Y11763D01*
X67952Y11775D01*
X67984Y11780D01*
X68065Y11823D01*
X68149Y11859D01*
X68181Y11885D01*
X68201Y11896D01*
X68224Y11919D01*
X68280Y11964D01*
X70005Y13689D01*
X74064Y13689D01*
X74084Y13692D01*
X74103Y13690D01*
X74205Y13712D01*
X74307Y13728D01*
X74324Y13738D01*
X74344Y13742D01*
X74433Y13795D01*
X74524Y13844D01*
X74538Y13858D01*
X74555Y13868D01*
X74622Y13947D01*
X74694Y14022D01*
X74702Y14040D01*
X74715Y14055D01*
X74754Y14151D01*
X74797Y14245D01*
X74799Y14265D01*
X74807Y14283D01*
X74825Y14450D01*
X74825Y28332D01*
X75718Y29225D01*
X78664Y29225D01*
X78760Y29240D01*
X78857Y29250D01*
X78880Y29260D01*
X78906Y29264D01*
X78992Y29310D01*
X79081Y29350D01*
X79101Y29367D01*
X79124Y29380D01*
X79191Y29450D01*
X79262Y29516D01*
X79275Y29539D01*
X79293Y29558D01*
X79334Y29646D01*
X79381Y29732D01*
X79386Y29757D01*
X79397Y29781D01*
X79407Y29878D01*
X79425Y29974D01*
X79421Y30000D01*
X79424Y30025D01*
X79403Y30120D01*
X79389Y30217D01*
X79377Y30240D01*
X79371Y30266D01*
X79321Y30350D01*
X79277Y30436D01*
X79259Y30454D01*
X79245Y30477D01*
X79171Y30540D01*
X79102Y30608D01*
X79073Y30624D01*
X79058Y30637D01*
X79028Y30649D01*
X78955Y30689D01*
X78428Y30907D01*
X76307Y33028D01*
X75159Y35800D01*
X75159Y38800D01*
X76307Y41572D01*
X78428Y43693D01*
X81200Y44841D01*
X84200Y44841D01*
X86972Y43693D01*
X89093Y41572D01*
X90241Y38800D01*
X90241Y35800D01*
X89093Y33028D01*
X86972Y30907D01*
X86445Y30689D01*
X86362Y30638D01*
X86276Y30592D01*
X86258Y30573D01*
X86236Y30560D01*
X86174Y30485D01*
X86107Y30414D01*
X86096Y30390D01*
X86079Y30370D01*
X86044Y30279D01*
X86003Y30191D01*
X86000Y30165D01*
X85991Y30141D01*
X85987Y30043D01*
X85976Y29947D01*
X85982Y29921D01*
X85981Y29895D01*
X86008Y29801D01*
X86029Y29706D01*
X86042Y29684D01*
X86049Y29659D01*
X86105Y29579D01*
X86155Y29495D01*
X86175Y29478D01*
X86189Y29457D01*
X86268Y29398D01*
X86342Y29335D01*
X86366Y29325D01*
X86387Y29310D01*
X86479Y29280D01*
X86570Y29243D01*
X86602Y29240D01*
X86621Y29234D01*
X86654Y29234D01*
X86736Y29225D01*
X89682Y29225D01*
X90575Y28332D01*
X90575Y12286D01*
X90578Y12266D01*
X90576Y12247D01*
X90598Y12145D01*
X90614Y12043D01*
X90624Y12026D01*
X90628Y12006D01*
X90681Y11917D01*
X90730Y11826D01*
X90744Y11812D01*
X90754Y11795D01*
X90833Y11728D01*
X90908Y11656D01*
X90926Y11648D01*
X90941Y11635D01*
X91037Y11596D01*
X91131Y11553D01*
X91151Y11551D01*
X91169Y11543D01*
X91336Y11525D01*
X91932Y11525D01*
X91952Y11528D01*
X91971Y11526D01*
X92073Y11548D01*
X92175Y11564D01*
X92192Y11574D01*
X92212Y11578D01*
X92301Y11631D01*
X92392Y11680D01*
X92406Y11694D01*
X92423Y11704D01*
X92490Y11783D01*
X92562Y11858D01*
X92570Y11876D01*
X92583Y11891D01*
X92622Y11987D01*
X92665Y12081D01*
X92667Y12101D01*
X92675Y12119D01*
X92693Y12286D01*
X92693Y78507D01*
X92682Y78578D01*
X92680Y78650D01*
X92662Y78699D01*
X92654Y78750D01*
X92620Y78813D01*
X92595Y78881D01*
X92563Y78922D01*
X92538Y78968D01*
X92486Y79017D01*
X92442Y79073D01*
X92398Y79101D01*
X92360Y79137D01*
X92295Y79167D01*
X92235Y79206D01*
X92184Y79219D01*
X92137Y79241D01*
X92066Y79248D01*
X91996Y79266D01*
X91944Y79262D01*
X91893Y79268D01*
X91822Y79252D01*
X91751Y79247D01*
X91703Y79226D01*
X91652Y79215D01*
X91591Y79179D01*
X91525Y79151D01*
X91469Y79106D01*
X91441Y79089D01*
X91426Y79071D01*
X91394Y79046D01*
X90915Y78567D01*
X90876Y78546D01*
X90862Y78532D01*
X90845Y78522D01*
X90778Y78443D01*
X90706Y78368D01*
X90698Y78350D01*
X90685Y78335D01*
X90646Y78239D01*
X90603Y78145D01*
X90601Y78125D01*
X90593Y78107D01*
X90575Y77940D01*
X90575Y71668D01*
X89682Y70775D01*
X86736Y70775D01*
X86640Y70760D01*
X86543Y70750D01*
X86520Y70740D01*
X86494Y70736D01*
X86408Y70690D01*
X86319Y70650D01*
X86299Y70633D01*
X86276Y70620D01*
X86209Y70550D01*
X86138Y70484D01*
X86125Y70461D01*
X86107Y70442D01*
X86066Y70354D01*
X86019Y70268D01*
X86014Y70243D01*
X86003Y70219D01*
X85993Y70122D01*
X85975Y70026D01*
X85979Y70000D01*
X85976Y69975D01*
X85997Y69880D01*
X86011Y69783D01*
X86023Y69760D01*
X86029Y69734D01*
X86079Y69650D01*
X86123Y69564D01*
X86141Y69546D01*
X86155Y69523D01*
X86229Y69460D01*
X86298Y69392D01*
X86327Y69376D01*
X86342Y69363D01*
X86372Y69351D01*
X86445Y69311D01*
X86972Y69093D01*
X89093Y66972D01*
X90241Y64200D01*
X90241Y61200D01*
X89093Y58428D01*
X86972Y56307D01*
X84200Y55159D01*
X81200Y55159D01*
X78428Y56307D01*
X76307Y58428D01*
X75159Y61200D01*
X75159Y64200D01*
X76307Y66972D01*
X78428Y69093D01*
X78955Y69311D01*
X79038Y69362D01*
X79124Y69408D01*
X79142Y69427D01*
X79164Y69440D01*
X79226Y69515D01*
X79293Y69586D01*
X79304Y69610D01*
X79321Y69630D01*
X79356Y69721D01*
X79397Y69809D01*
X79400Y69835D01*
X79409Y69859D01*
X79413Y69957D01*
X79424Y70053D01*
X79418Y70079D01*
X79419Y70105D01*
X79392Y70199D01*
X79371Y70294D01*
X79358Y70316D01*
X79351Y70341D01*
X79295Y70421D01*
X79245Y70505D01*
X79225Y70522D01*
X79211Y70543D01*
X79132Y70602D01*
X79058Y70665D01*
X79034Y70675D01*
X79013Y70690D01*
X78921Y70720D01*
X78830Y70757D01*
X78798Y70760D01*
X78779Y70766D01*
X78746Y70766D01*
X78664Y70775D01*
X75718Y70775D01*
X74825Y71668D01*
X74825Y88332D01*
X75718Y89225D01*
X77714Y89225D01*
X77734Y89228D01*
X77753Y89226D01*
X77855Y89248D01*
X77957Y89264D01*
X77974Y89274D01*
X77994Y89278D01*
X78083Y89331D01*
X78174Y89380D01*
X78188Y89394D01*
X78205Y89404D01*
X78272Y89483D01*
X78344Y89558D01*
X78352Y89576D01*
X78365Y89591D01*
X78404Y89687D01*
X78447Y89781D01*
X78449Y89801D01*
X78457Y89819D01*
X78475Y89986D01*
X78475Y90682D01*
X78472Y90702D01*
X78474Y90721D01*
X78452Y90823D01*
X78436Y90925D01*
X78426Y90942D01*
X78422Y90962D01*
X78369Y91051D01*
X78320Y91142D01*
X78306Y91156D01*
X78296Y91173D01*
X78217Y91240D01*
X78142Y91312D01*
X78124Y91320D01*
X78109Y91333D01*
X78013Y91372D01*
X77919Y91415D01*
X77899Y91417D01*
X77881Y91425D01*
X77714Y91443D01*
X46786Y91443D01*
X46766Y91440D01*
X46747Y91442D01*
X46645Y91420D01*
X46543Y91404D01*
X46526Y91394D01*
X46506Y91390D01*
X46417Y91337D01*
X46326Y91288D01*
X46312Y91274D01*
X46295Y91264D01*
X46228Y91185D01*
X46156Y91110D01*
X46148Y91092D01*
X46135Y91077D01*
X46096Y90981D01*
X46053Y90887D01*
X46051Y90867D01*
X46043Y90849D01*
X46025Y90682D01*
X46025Y87368D01*
X45132Y86475D01*
X34868Y86475D01*
X33939Y87405D01*
X33936Y87425D01*
X33926Y87442D01*
X33922Y87462D01*
X33869Y87551D01*
X33820Y87642D01*
X33806Y87656D01*
X33796Y87673D01*
X33717Y87740D01*
X33642Y87812D01*
X33624Y87820D01*
X33609Y87833D01*
X33513Y87872D01*
X33419Y87915D01*
X33399Y87917D01*
X33381Y87925D01*
X33214Y87943D01*
X30615Y87943D01*
X30525Y87929D01*
X30434Y87921D01*
X30404Y87909D01*
X30372Y87904D01*
X30291Y87861D01*
X30208Y87825D01*
X30175Y87799D01*
X30155Y87788D01*
X30133Y87765D01*
X30077Y87720D01*
X30032Y87675D01*
X19768Y87675D01*
X19223Y88220D01*
X19149Y88273D01*
X19080Y88333D01*
X19050Y88345D01*
X19024Y88364D01*
X18937Y88391D01*
X18852Y88425D01*
X18811Y88429D01*
X18789Y88436D01*
X18756Y88435D01*
X18685Y88443D01*
X17176Y88443D01*
X17156Y88440D01*
X17137Y88442D01*
X17035Y88420D01*
X16933Y88404D01*
X16916Y88394D01*
X16896Y88390D01*
X16807Y88337D01*
X16716Y88288D01*
X16702Y88274D01*
X16685Y88264D01*
X16618Y88185D01*
X16546Y88110D01*
X16538Y88092D01*
X16525Y88077D01*
X16486Y87981D01*
X16443Y87887D01*
X16441Y87867D01*
X16433Y87849D01*
X16415Y87682D01*
X16415Y87368D01*
X15522Y86475D01*
X3302Y86475D01*
X3282Y86472D01*
X3263Y86474D01*
X3161Y86452D01*
X3059Y86436D01*
X3042Y86426D01*
X3022Y86422D01*
X2933Y86369D01*
X2842Y86320D01*
X2828Y86306D01*
X2811Y86296D01*
X2744Y86217D01*
X2672Y86142D01*
X2664Y86124D01*
X2651Y86109D01*
X2612Y86013D01*
X2569Y85919D01*
X2567Y85899D01*
X2559Y85881D01*
X2541Y85714D01*
X2541Y81302D01*
X2544Y81282D01*
X2542Y81263D01*
X2564Y81161D01*
X2580Y81059D01*
X2590Y81042D01*
X2594Y81022D01*
X2647Y80933D01*
X2696Y80842D01*
X2710Y80828D01*
X2720Y80811D01*
X2799Y80744D01*
X2874Y80672D01*
X2892Y80664D01*
X2907Y80651D01*
X3003Y80612D01*
X3097Y80569D01*
X3117Y80567D01*
X3135Y80559D01*
X3302Y80541D01*
X7367Y80541D01*
X7367Y74762D01*
X7370Y74742D01*
X7368Y74723D01*
X7390Y74621D01*
X7407Y74519D01*
X7416Y74502D01*
X7420Y74482D01*
X7473Y74393D01*
X7522Y74302D01*
X7536Y74288D01*
X7546Y74271D01*
X7625Y74204D01*
X7700Y74133D01*
X7718Y74124D01*
X7733Y74111D01*
X7829Y74072D01*
X7923Y74029D01*
X7943Y74027D01*
X7961Y74019D01*
X8128Y74001D01*
X8891Y74001D01*
X8891Y73999D01*
X8128Y73999D01*
X8108Y73996D01*
X8089Y73998D01*
X7987Y73976D01*
X7885Y73959D01*
X7868Y73950D01*
X7848Y73946D01*
X7759Y73893D01*
X7668Y73844D01*
X7654Y73830D01*
X7637Y73820D01*
X7570Y73741D01*
X7499Y73666D01*
X7490Y73648D01*
X7477Y73633D01*
X7438Y73537D01*
X7395Y73443D01*
X7393Y73423D01*
X7385Y73405D01*
X7367Y73238D01*
X7367Y67459D01*
X3302Y67459D01*
X3282Y67456D01*
X3263Y67458D01*
X3161Y67436D01*
X3059Y67420D01*
X3042Y67410D01*
X3022Y67406D01*
X2933Y67353D01*
X2842Y67304D01*
X2828Y67290D01*
X2811Y67280D01*
X2744Y67201D01*
X2672Y67126D01*
X2664Y67108D01*
X2651Y67093D01*
X2612Y66997D01*
X2569Y66903D01*
X2567Y66883D01*
X2559Y66865D01*
X2541Y66698D01*
X2541Y12700D01*
X2545Y12674D01*
X2544Y12625D01*
X2725Y10792D01*
X2732Y10765D01*
X2733Y10736D01*
X2779Y10575D01*
X4183Y7187D01*
X4217Y7132D01*
X4243Y7071D01*
X4295Y7007D01*
X4312Y6978D01*
X4327Y6966D01*
X4348Y6940D01*
X6940Y4348D01*
X6994Y4309D01*
X7040Y4263D01*
X7114Y4223D01*
X7140Y4204D01*
X7159Y4198D01*
X7187Y4183D01*
X10575Y2779D01*
X10603Y2773D01*
X10628Y2760D01*
X10792Y2725D01*
X12625Y2544D01*
X12652Y2546D01*
X12700Y2541D01*
X20165Y2541D01*
X20236Y2552D01*
G37*
%LPC*%
G36*
X34868Y51475D02*
X34868Y51475D01*
X33975Y52368D01*
X33975Y53414D01*
X33972Y53436D01*
X33974Y53458D01*
X33952Y53557D01*
X33936Y53657D01*
X33925Y53676D01*
X33920Y53698D01*
X33868Y53785D01*
X33820Y53874D01*
X33804Y53890D01*
X33793Y53908D01*
X33715Y53974D01*
X33642Y54044D01*
X33622Y54053D01*
X33605Y54067D01*
X33511Y54105D01*
X33419Y54147D01*
X33397Y54150D01*
X33377Y54158D01*
X33210Y54176D01*
X26877Y54140D01*
X26789Y54125D01*
X26701Y54118D01*
X26669Y54105D01*
X26635Y54099D01*
X26556Y54057D01*
X26474Y54022D01*
X26440Y53995D01*
X26418Y53983D01*
X26397Y53960D01*
X26343Y53917D01*
X23999Y51573D01*
X20001Y51573D01*
X17173Y54401D01*
X17173Y58399D01*
X20001Y61227D01*
X23999Y61227D01*
X26289Y58937D01*
X26365Y58882D01*
X26437Y58822D01*
X26465Y58811D01*
X26489Y58793D01*
X26578Y58766D01*
X26665Y58731D01*
X26703Y58727D01*
X26724Y58721D01*
X26757Y58722D01*
X26832Y58714D01*
X33218Y58749D01*
X33236Y58752D01*
X33253Y58750D01*
X33357Y58773D01*
X33461Y58790D01*
X33476Y58799D01*
X33494Y58802D01*
X33584Y58857D01*
X33678Y58906D01*
X33690Y58919D01*
X33705Y58929D01*
X33774Y59009D01*
X33846Y59086D01*
X33853Y59102D01*
X33865Y59115D01*
X33904Y59214D01*
X33948Y59309D01*
X33950Y59327D01*
X33957Y59344D01*
X33975Y59510D01*
X33975Y60632D01*
X34868Y61525D01*
X36952Y61525D01*
X36972Y61528D01*
X36991Y61526D01*
X37093Y61548D01*
X37195Y61564D01*
X37212Y61574D01*
X37232Y61578D01*
X37321Y61631D01*
X37412Y61680D01*
X37426Y61694D01*
X37443Y61704D01*
X37510Y61783D01*
X37582Y61858D01*
X37590Y61876D01*
X37603Y61891D01*
X37642Y61987D01*
X37685Y62081D01*
X37687Y62101D01*
X37695Y62119D01*
X37713Y62286D01*
X37713Y67257D01*
X37711Y67272D01*
X37712Y67286D01*
X37697Y67355D01*
X37688Y67450D01*
X37678Y67473D01*
X37674Y67499D01*
X37661Y67523D01*
X37660Y67527D01*
X37651Y67542D01*
X37628Y67585D01*
X37588Y67674D01*
X37571Y67694D01*
X37558Y67717D01*
X37488Y67784D01*
X37422Y67855D01*
X37399Y67868D01*
X37380Y67886D01*
X37292Y67927D01*
X37206Y67974D01*
X37181Y67979D01*
X37157Y67990D01*
X37060Y68000D01*
X36964Y68018D01*
X36938Y68014D01*
X36913Y68017D01*
X36817Y67996D01*
X36721Y67982D01*
X36698Y67970D01*
X36672Y67964D01*
X36589Y67915D01*
X36502Y67870D01*
X36483Y67852D01*
X36461Y67838D01*
X36398Y67764D01*
X36330Y67695D01*
X36319Y67675D01*
X36318Y67673D01*
X36314Y67666D01*
X36301Y67651D01*
X36289Y67621D01*
X36249Y67548D01*
X35257Y65153D01*
X33347Y63243D01*
X30851Y62209D01*
X28149Y62209D01*
X25653Y63243D01*
X23743Y65153D01*
X22709Y67649D01*
X22709Y70351D01*
X23644Y72607D01*
X23654Y72651D01*
X23674Y72693D01*
X23682Y72770D01*
X23700Y72846D01*
X23696Y72892D01*
X23701Y72937D01*
X23684Y73014D01*
X23677Y73091D01*
X23658Y73133D01*
X23648Y73178D01*
X23608Y73245D01*
X23577Y73316D01*
X23546Y73350D01*
X23522Y73389D01*
X23463Y73439D01*
X23410Y73497D01*
X23370Y73519D01*
X23335Y73549D01*
X23263Y73578D01*
X23195Y73615D01*
X23150Y73624D01*
X23107Y73641D01*
X22971Y73656D01*
X22953Y73659D01*
X22948Y73658D01*
X22940Y73659D01*
X20066Y73659D01*
X19419Y73832D01*
X18840Y74167D01*
X18367Y74640D01*
X18077Y75143D01*
X18034Y75195D01*
X17999Y75253D01*
X17957Y75289D01*
X17921Y75333D01*
X17864Y75369D01*
X17812Y75413D01*
X17760Y75434D01*
X17713Y75464D01*
X17647Y75479D01*
X17584Y75505D01*
X17505Y75513D01*
X17473Y75521D01*
X17453Y75519D01*
X17417Y75523D01*
X10413Y75523D01*
X10413Y80541D01*
X15224Y80541D01*
X15871Y80368D01*
X16450Y80033D01*
X16923Y79560D01*
X17258Y78981D01*
X17322Y78741D01*
X17340Y78701D01*
X17349Y78658D01*
X17390Y78590D01*
X17423Y78517D01*
X17453Y78485D01*
X17475Y78447D01*
X17536Y78395D01*
X17590Y78337D01*
X17629Y78316D01*
X17662Y78287D01*
X17736Y78257D01*
X17807Y78219D01*
X17850Y78212D01*
X17890Y78195D01*
X18035Y78179D01*
X18049Y78177D01*
X18052Y78177D01*
X18057Y78177D01*
X24138Y78177D01*
X24158Y78180D01*
X24177Y78178D01*
X24279Y78200D01*
X24381Y78217D01*
X24398Y78226D01*
X24418Y78230D01*
X24507Y78283D01*
X24598Y78332D01*
X24612Y78346D01*
X24629Y78356D01*
X24696Y78435D01*
X24767Y78510D01*
X24776Y78528D01*
X24789Y78543D01*
X24828Y78639D01*
X24871Y78733D01*
X24873Y78753D01*
X24881Y78771D01*
X24899Y78938D01*
X24899Y79701D01*
X24901Y79701D01*
X24901Y78938D01*
X24904Y78918D01*
X24902Y78899D01*
X24924Y78797D01*
X24941Y78695D01*
X24950Y78678D01*
X24954Y78658D01*
X25007Y78569D01*
X25056Y78478D01*
X25070Y78464D01*
X25080Y78447D01*
X25159Y78380D01*
X25234Y78309D01*
X25252Y78300D01*
X25267Y78287D01*
X25363Y78248D01*
X25457Y78205D01*
X25477Y78203D01*
X25495Y78195D01*
X25662Y78177D01*
X31941Y78177D01*
X31941Y75848D01*
X31960Y75733D01*
X31977Y75617D01*
X31979Y75611D01*
X31980Y75605D01*
X32035Y75503D01*
X32088Y75398D01*
X32093Y75393D01*
X32096Y75388D01*
X32180Y75308D01*
X32264Y75225D01*
X32270Y75222D01*
X32274Y75218D01*
X32291Y75211D01*
X32411Y75145D01*
X32923Y74932D01*
X32967Y74922D01*
X33009Y74903D01*
X33086Y74894D01*
X33162Y74876D01*
X33208Y74881D01*
X33253Y74876D01*
X33330Y74892D01*
X33407Y74899D01*
X33449Y74918D01*
X33494Y74928D01*
X33561Y74968D01*
X33632Y74999D01*
X33666Y75030D01*
X33705Y75054D01*
X33756Y75113D01*
X33813Y75166D01*
X33835Y75206D01*
X33865Y75241D01*
X33894Y75313D01*
X33931Y75381D01*
X33940Y75426D01*
X33957Y75469D01*
X33972Y75605D01*
X33975Y75623D01*
X33974Y75628D01*
X33975Y75636D01*
X33975Y82632D01*
X34868Y83525D01*
X45132Y83525D01*
X46025Y82632D01*
X46025Y74368D01*
X45132Y73475D01*
X43048Y73475D01*
X43028Y73472D01*
X43009Y73474D01*
X42907Y73452D01*
X42805Y73436D01*
X42788Y73426D01*
X42768Y73422D01*
X42679Y73369D01*
X42588Y73320D01*
X42574Y73306D01*
X42557Y73296D01*
X42490Y73217D01*
X42418Y73142D01*
X42410Y73124D01*
X42397Y73109D01*
X42358Y73013D01*
X42315Y72919D01*
X42313Y72899D01*
X42305Y72881D01*
X42287Y72714D01*
X42287Y62286D01*
X42290Y62266D01*
X42288Y62247D01*
X42310Y62145D01*
X42326Y62043D01*
X42336Y62026D01*
X42340Y62006D01*
X42393Y61917D01*
X42442Y61826D01*
X42456Y61812D01*
X42466Y61795D01*
X42545Y61728D01*
X42620Y61656D01*
X42638Y61648D01*
X42653Y61635D01*
X42749Y61596D01*
X42843Y61553D01*
X42863Y61551D01*
X42881Y61543D01*
X43048Y61525D01*
X45132Y61525D01*
X46025Y60632D01*
X46025Y52368D01*
X45132Y51475D01*
X34868Y51475D01*
G37*
%LPD*%
%LPC*%
G36*
X48409Y21523D02*
X48409Y21523D01*
X48409Y28034D01*
X48582Y28681D01*
X48917Y29260D01*
X49390Y29733D01*
X49969Y30068D01*
X50616Y30241D01*
X51857Y30241D01*
X51928Y30252D01*
X52000Y30254D01*
X52049Y30272D01*
X52100Y30280D01*
X52163Y30314D01*
X52231Y30339D01*
X52271Y30371D01*
X52317Y30396D01*
X52367Y30448D01*
X52423Y30492D01*
X52451Y30536D01*
X52487Y30574D01*
X52517Y30639D01*
X52556Y30699D01*
X52568Y30750D01*
X52590Y30797D01*
X52598Y30868D01*
X52616Y30938D01*
X52612Y30990D01*
X52617Y31041D01*
X52602Y31112D01*
X52597Y31183D01*
X52576Y31231D01*
X52565Y31282D01*
X52528Y31343D01*
X52500Y31409D01*
X52456Y31465D01*
X52439Y31493D01*
X52421Y31508D01*
X52396Y31540D01*
X50907Y33028D01*
X49759Y35800D01*
X49759Y38800D01*
X50457Y40485D01*
X50480Y40580D01*
X50508Y40673D01*
X50508Y40699D01*
X50513Y40725D01*
X50504Y40821D01*
X50502Y40919D01*
X50493Y40943D01*
X50490Y40969D01*
X50451Y41058D01*
X50417Y41150D01*
X50401Y41170D01*
X50390Y41194D01*
X50325Y41266D01*
X50264Y41342D01*
X50242Y41356D01*
X50224Y41375D01*
X50139Y41422D01*
X50057Y41475D01*
X50031Y41481D01*
X50008Y41494D01*
X49913Y41511D01*
X49818Y41535D01*
X49792Y41533D01*
X49766Y41538D01*
X49670Y41523D01*
X49573Y41516D01*
X49549Y41506D01*
X49523Y41502D01*
X49436Y41458D01*
X49347Y41420D01*
X49321Y41399D01*
X49304Y41390D01*
X49281Y41367D01*
X49216Y41315D01*
X49114Y41213D01*
X46786Y41213D01*
X46766Y41210D01*
X46747Y41212D01*
X46645Y41190D01*
X46543Y41174D01*
X46526Y41164D01*
X46506Y41160D01*
X46417Y41107D01*
X46326Y41058D01*
X46312Y41044D01*
X46295Y41034D01*
X46228Y40955D01*
X46156Y40880D01*
X46148Y40862D01*
X46135Y40847D01*
X46096Y40751D01*
X46053Y40657D01*
X46051Y40637D01*
X46043Y40619D01*
X46025Y40452D01*
X46025Y39368D01*
X45132Y38475D01*
X34868Y38475D01*
X33975Y39368D01*
X33975Y47632D01*
X34868Y48525D01*
X45132Y48525D01*
X46025Y47632D01*
X46025Y46548D01*
X46028Y46528D01*
X46026Y46509D01*
X46048Y46407D01*
X46064Y46305D01*
X46074Y46288D01*
X46078Y46268D01*
X46131Y46179D01*
X46180Y46088D01*
X46194Y46074D01*
X46204Y46057D01*
X46283Y45990D01*
X46358Y45918D01*
X46376Y45910D01*
X46391Y45897D01*
X46487Y45858D01*
X46581Y45815D01*
X46601Y45813D01*
X46619Y45805D01*
X46786Y45787D01*
X46905Y45787D01*
X46995Y45801D01*
X47086Y45809D01*
X47115Y45821D01*
X47147Y45826D01*
X47228Y45869D01*
X47312Y45905D01*
X47344Y45931D01*
X47365Y45942D01*
X47387Y45965D01*
X47443Y46010D01*
X51862Y50429D01*
X62738Y50429D01*
X65530Y47637D01*
X65546Y47625D01*
X65559Y47609D01*
X65646Y47553D01*
X65730Y47493D01*
X65749Y47487D01*
X65766Y47476D01*
X65866Y47451D01*
X65965Y47421D01*
X65985Y47421D01*
X66004Y47416D01*
X66107Y47424D01*
X66211Y47427D01*
X66230Y47434D01*
X66249Y47436D01*
X66344Y47476D01*
X66442Y47512D01*
X66458Y47524D01*
X66476Y47532D01*
X66607Y47637D01*
X68001Y49031D01*
X71999Y49031D01*
X74827Y46203D01*
X74827Y42205D01*
X71999Y39377D01*
X68001Y39377D01*
X66388Y40990D01*
X66314Y41043D01*
X66244Y41103D01*
X66214Y41115D01*
X66188Y41134D01*
X66101Y41161D01*
X66016Y41195D01*
X65975Y41199D01*
X65953Y41206D01*
X65921Y41205D01*
X65849Y41213D01*
X65486Y41213D01*
X65384Y41315D01*
X65305Y41372D01*
X65230Y41434D01*
X65206Y41443D01*
X65185Y41458D01*
X65091Y41487D01*
X65001Y41522D01*
X64974Y41523D01*
X64949Y41531D01*
X64852Y41528D01*
X64755Y41532D01*
X64730Y41525D01*
X64704Y41524D01*
X64612Y41491D01*
X64519Y41464D01*
X64497Y41449D01*
X64473Y41440D01*
X64396Y41379D01*
X64317Y41323D01*
X64301Y41302D01*
X64281Y41286D01*
X64228Y41204D01*
X64170Y41126D01*
X64162Y41101D01*
X64148Y41079D01*
X64124Y40985D01*
X64094Y40892D01*
X64094Y40866D01*
X64087Y40841D01*
X64095Y40744D01*
X64096Y40646D01*
X64105Y40615D01*
X64107Y40595D01*
X64119Y40565D01*
X64143Y40485D01*
X64841Y38800D01*
X64841Y35800D01*
X63693Y33028D01*
X62204Y31540D01*
X62163Y31482D01*
X62113Y31430D01*
X62091Y31383D01*
X62061Y31341D01*
X62040Y31272D01*
X62010Y31207D01*
X62004Y31155D01*
X61989Y31105D01*
X61990Y31034D01*
X61983Y30963D01*
X61994Y30912D01*
X61995Y30860D01*
X62020Y30792D01*
X62035Y30722D01*
X62061Y30677D01*
X62079Y30629D01*
X62124Y30573D01*
X62161Y30511D01*
X62201Y30477D01*
X62233Y30437D01*
X62293Y30398D01*
X62348Y30351D01*
X62396Y30332D01*
X62440Y30304D01*
X62509Y30286D01*
X62576Y30259D01*
X62647Y30251D01*
X62679Y30243D01*
X62702Y30245D01*
X62743Y30241D01*
X63984Y30241D01*
X64631Y30068D01*
X65210Y29733D01*
X65683Y29260D01*
X66018Y28681D01*
X66191Y28034D01*
X66191Y21523D01*
X58823Y21523D01*
X58823Y28998D01*
X58820Y29018D01*
X58822Y29037D01*
X58800Y29139D01*
X58783Y29241D01*
X58774Y29258D01*
X58770Y29278D01*
X58717Y29367D01*
X58668Y29458D01*
X58654Y29472D01*
X58644Y29489D01*
X58565Y29556D01*
X58490Y29628D01*
X58472Y29636D01*
X58457Y29649D01*
X58361Y29688D01*
X58267Y29731D01*
X58247Y29733D01*
X58229Y29741D01*
X58062Y29759D01*
X56538Y29759D01*
X56518Y29756D01*
X56499Y29758D01*
X56397Y29736D01*
X56295Y29720D01*
X56278Y29710D01*
X56258Y29706D01*
X56169Y29653D01*
X56078Y29604D01*
X56064Y29590D01*
X56047Y29580D01*
X55980Y29501D01*
X55909Y29426D01*
X55900Y29408D01*
X55887Y29393D01*
X55848Y29297D01*
X55805Y29203D01*
X55803Y29183D01*
X55795Y29165D01*
X55777Y28998D01*
X55777Y21523D01*
X48409Y21523D01*
G37*
%LPD*%
%LPC*%
G36*
X55800Y55159D02*
X55800Y55159D01*
X53028Y56307D01*
X50907Y58428D01*
X49759Y61200D01*
X49759Y64200D01*
X50907Y66972D01*
X53028Y69093D01*
X53555Y69311D01*
X53638Y69362D01*
X53724Y69408D01*
X53742Y69427D01*
X53764Y69440D01*
X53826Y69515D01*
X53893Y69586D01*
X53904Y69610D01*
X53921Y69630D01*
X53956Y69721D01*
X53997Y69809D01*
X54000Y69835D01*
X54009Y69859D01*
X54013Y69957D01*
X54024Y70053D01*
X54018Y70079D01*
X54019Y70105D01*
X53992Y70199D01*
X53971Y70294D01*
X53958Y70316D01*
X53951Y70341D01*
X53895Y70421D01*
X53845Y70505D01*
X53825Y70522D01*
X53811Y70543D01*
X53732Y70602D01*
X53658Y70665D01*
X53634Y70675D01*
X53613Y70690D01*
X53521Y70720D01*
X53430Y70757D01*
X53398Y70760D01*
X53379Y70766D01*
X53346Y70766D01*
X53264Y70775D01*
X50318Y70775D01*
X49425Y71668D01*
X49425Y88332D01*
X50318Y89225D01*
X64282Y89225D01*
X64929Y88578D01*
X65003Y88525D01*
X65072Y88465D01*
X65102Y88453D01*
X65128Y88434D01*
X65215Y88407D01*
X65300Y88373D01*
X65341Y88369D01*
X65363Y88362D01*
X65396Y88363D01*
X65467Y88355D01*
X65649Y88355D01*
X68477Y85527D01*
X68477Y81529D01*
X65515Y78567D01*
X65476Y78546D01*
X65462Y78532D01*
X65445Y78522D01*
X65378Y78443D01*
X65306Y78368D01*
X65298Y78350D01*
X65285Y78335D01*
X65246Y78239D01*
X65203Y78145D01*
X65201Y78125D01*
X65193Y78107D01*
X65175Y77940D01*
X65175Y71668D01*
X64282Y70775D01*
X61336Y70775D01*
X61240Y70760D01*
X61143Y70750D01*
X61120Y70740D01*
X61094Y70736D01*
X61008Y70690D01*
X60919Y70650D01*
X60899Y70633D01*
X60876Y70620D01*
X60809Y70550D01*
X60738Y70484D01*
X60725Y70461D01*
X60707Y70442D01*
X60666Y70354D01*
X60619Y70268D01*
X60614Y70243D01*
X60603Y70219D01*
X60593Y70122D01*
X60575Y70026D01*
X60579Y70000D01*
X60576Y69975D01*
X60597Y69880D01*
X60611Y69783D01*
X60623Y69760D01*
X60629Y69734D01*
X60679Y69650D01*
X60723Y69564D01*
X60741Y69546D01*
X60755Y69523D01*
X60829Y69460D01*
X60898Y69392D01*
X60927Y69376D01*
X60942Y69363D01*
X60972Y69351D01*
X61045Y69311D01*
X61572Y69093D01*
X63693Y66972D01*
X64841Y64200D01*
X64841Y61200D01*
X63693Y58428D01*
X61572Y56307D01*
X58800Y55159D01*
X55800Y55159D01*
G37*
%LPD*%
%LPC*%
G36*
X28149Y24209D02*
X28149Y24209D01*
X25653Y25243D01*
X23743Y27153D01*
X22709Y29649D01*
X22709Y32351D01*
X23743Y34847D01*
X25653Y36757D01*
X28149Y37791D01*
X30851Y37791D01*
X33347Y36757D01*
X35257Y34847D01*
X36291Y32351D01*
X36291Y29649D01*
X35257Y27153D01*
X33347Y25243D01*
X30851Y24209D01*
X28149Y24209D01*
G37*
%LPD*%
%LPC*%
G36*
X10413Y67459D02*
X10413Y67459D01*
X10413Y72477D01*
X17431Y72477D01*
X17431Y69666D01*
X17258Y69019D01*
X16923Y68440D01*
X16450Y67967D01*
X15871Y67632D01*
X15224Y67459D01*
X10413Y67459D01*
G37*
%LPD*%
%LPC*%
G36*
X26423Y81223D02*
X26423Y81223D01*
X26423Y85741D01*
X29734Y85741D01*
X30381Y85568D01*
X30960Y85233D01*
X31433Y84760D01*
X31768Y84181D01*
X31941Y83534D01*
X31941Y81223D01*
X26423Y81223D01*
G37*
%LPD*%
%LPC*%
G36*
X17859Y81223D02*
X17859Y81223D01*
X17859Y83534D01*
X18032Y84181D01*
X18367Y84760D01*
X18840Y85233D01*
X19419Y85568D01*
X20066Y85741D01*
X23377Y85741D01*
X23377Y81223D01*
X17859Y81223D01*
G37*
%LPD*%
D10*
X24900Y92700D03*
X24900Y79700D03*
D11*
X8890Y92000D03*
X8890Y74000D03*
D10*
X40000Y56500D03*
X40000Y43500D03*
D12*
X25500Y9200D03*
X38500Y9200D03*
D10*
X40000Y91500D03*
X40000Y78500D03*
D13*
X82700Y80000D03*
X57300Y80000D03*
X57300Y20000D03*
X82700Y20000D03*
D14*
X90000Y95000D03*
X90000Y5000D03*
D15*
X22000Y56400D03*
D16*
X40000Y56500D02*
X40000Y78500D01*
X40000Y56500D02*
X22000Y56400D01*
D15*
X25338Y9004D03*
D17*
X25500Y9166D02*
X25500Y9200D01*
X25500Y9166D02*
X25338Y9004D01*
D15*
X7500Y13150D03*
D18*
X57300Y20000D02*
X57300Y21249D01*
D15*
X70000Y55000D03*
D19*
X39500Y91000D02*
X40000Y91500D01*
X43500Y95000D02*
X90000Y95000D01*
X43500Y95000D02*
X40000Y91500D01*
D18*
X40362Y91138D01*
X90000Y95000D02*
X96250Y88750D01*
X82700Y20000D02*
X82700Y13550D01*
D16*
X82700Y12300D02*
X82700Y20000D01*
D19*
X82700Y12300D02*
X89158Y5842D01*
D16*
X90000Y5842D01*
X90000Y5000D02*
X96250Y11250D01*
D19*
X96250Y88750D01*
D16*
X90000Y5842D02*
X90000Y5000D01*
X39638Y91138D02*
X40000Y91500D01*
D15*
X24638Y93726D03*
D19*
X24638Y92962D02*
X24900Y92700D01*
X24638Y92962D02*
X24638Y93726D01*
X24900Y92700D02*
X26100Y91500D01*
X40000Y91500D01*
X24900Y92700D02*
X24200Y92000D01*
X8890Y92000D01*
D15*
X70000Y44204D03*
D16*
X69296Y43500D01*
X48167Y43500D02*
X40000Y43500D01*
X48167Y43500D02*
X52809Y48142D01*
X61791Y48142D01*
X66433Y43500D01*
X69296Y43500D01*
D15*
X72004Y8862D03*
D17*
X71666Y9200D02*
X38500Y9200D01*
X71666Y9200D02*
X72004Y8862D01*
D15*
X89050Y83528D03*
D16*
X85522Y80000D02*
X82700Y80000D01*
X85522Y80000D02*
X89050Y83528D01*
D15*
X63650Y83528D03*
D16*
X60122Y80000D02*
X57300Y80000D01*
X60122Y80000D02*
X63650Y83528D01*
M02*
