G04 EAGLE Gerber X2 export*
G75*
%MOMM*%
%FSLAX34Y34*%
%LPD*%
%AMOC8*
5,1,8,0,0,1.08239X$1,22.5*%
G01*
%ADD10C,0.254000*%


D10*
X0Y12700D02*
X48Y11593D01*
X193Y10495D01*
X433Y9413D01*
X766Y8356D01*
X1190Y7333D01*
X1701Y6350D01*
X2297Y5416D01*
X2971Y4537D01*
X3720Y3720D01*
X4537Y2971D01*
X5416Y2297D01*
X6350Y1701D01*
X7333Y1190D01*
X8356Y766D01*
X9413Y433D01*
X10495Y193D01*
X11593Y48D01*
X12700Y0D01*
X88900Y0D01*
X89867Y42D01*
X90828Y169D01*
X91773Y378D01*
X92696Y669D01*
X93591Y1040D01*
X94450Y1487D01*
X95267Y2007D01*
X96035Y2597D01*
X96749Y3251D01*
X97403Y3965D01*
X97993Y4733D01*
X98513Y5550D01*
X98960Y6409D01*
X99331Y7304D01*
X99622Y8227D01*
X99831Y9173D01*
X99958Y10133D01*
X100000Y11100D01*
X100000Y88900D01*
X99958Y89867D01*
X99831Y90828D01*
X99622Y91773D01*
X99331Y92696D01*
X98960Y93591D01*
X98513Y94450D01*
X97993Y95267D01*
X97403Y96035D01*
X96749Y96749D01*
X96035Y97403D01*
X95267Y97993D01*
X94450Y98513D01*
X93591Y98960D01*
X92696Y99331D01*
X91773Y99622D01*
X90828Y99831D01*
X89867Y99958D01*
X88900Y100000D01*
X11100Y100000D01*
X10133Y99958D01*
X9173Y99831D01*
X8227Y99622D01*
X7304Y99331D01*
X6409Y98960D01*
X5550Y98513D01*
X4733Y97993D01*
X3965Y97403D01*
X3251Y96749D01*
X2597Y96035D01*
X2007Y95267D01*
X1487Y94450D01*
X1040Y93591D01*
X669Y92696D01*
X378Y91773D01*
X169Y90828D01*
X42Y89867D01*
X0Y88900D01*
X0Y12700D01*
X33750Y68721D02*
X33677Y68169D01*
X33533Y67631D01*
X33320Y67116D01*
X33041Y66634D01*
X32702Y66192D01*
X32308Y65798D01*
X31866Y65459D01*
X31384Y65180D01*
X30869Y64967D01*
X30331Y64823D01*
X29779Y64750D01*
X29221Y64750D01*
X28669Y64823D01*
X28131Y64967D01*
X27616Y65180D01*
X27134Y65459D01*
X26692Y65798D01*
X26298Y66192D01*
X25959Y66634D01*
X25680Y67116D01*
X25467Y67631D01*
X25323Y68169D01*
X25250Y68721D01*
X25250Y69279D01*
X25323Y69831D01*
X25467Y70369D01*
X25680Y70884D01*
X25959Y71366D01*
X26298Y71808D01*
X26692Y72202D01*
X27134Y72541D01*
X27616Y72820D01*
X28131Y73033D01*
X28669Y73177D01*
X29221Y73250D01*
X29779Y73250D01*
X30331Y73177D01*
X30869Y73033D01*
X31384Y72820D01*
X31866Y72541D01*
X32308Y72202D01*
X32702Y71808D01*
X33041Y71366D01*
X33320Y70884D01*
X33533Y70369D01*
X33677Y69831D01*
X33750Y69279D01*
X33750Y68721D01*
X33750Y30721D02*
X33677Y30169D01*
X33533Y29631D01*
X33320Y29116D01*
X33041Y28634D01*
X32702Y28192D01*
X32308Y27798D01*
X31866Y27459D01*
X31384Y27180D01*
X30869Y26967D01*
X30331Y26823D01*
X29779Y26750D01*
X29221Y26750D01*
X28669Y26823D01*
X28131Y26967D01*
X27616Y27180D01*
X27134Y27459D01*
X26692Y27798D01*
X26298Y28192D01*
X25959Y28634D01*
X25680Y29116D01*
X25467Y29631D01*
X25323Y30169D01*
X25250Y30721D01*
X25250Y31279D01*
X25323Y31831D01*
X25467Y32369D01*
X25680Y32884D01*
X25959Y33366D01*
X26298Y33808D01*
X26692Y34202D01*
X27134Y34541D01*
X27616Y34820D01*
X28131Y35033D01*
X28669Y35177D01*
X29221Y35250D01*
X29779Y35250D01*
X30331Y35177D01*
X30869Y35033D01*
X31384Y34820D01*
X31866Y34541D01*
X32308Y34202D01*
X32702Y33808D01*
X33041Y33366D01*
X33320Y32884D01*
X33533Y32369D01*
X33677Y31831D01*
X33750Y31279D01*
X33750Y30721D01*
X82419Y67700D02*
X81861Y67637D01*
X81314Y67512D01*
X80784Y67327D01*
X80278Y67083D01*
X79802Y66784D01*
X79363Y66434D01*
X78966Y66037D01*
X78616Y65598D01*
X78317Y65122D01*
X78073Y64616D01*
X77888Y64086D01*
X77763Y63539D01*
X77700Y62981D01*
X77700Y62419D01*
X77763Y61861D01*
X77888Y61314D01*
X78073Y60784D01*
X78317Y60278D01*
X78616Y59802D01*
X78966Y59363D01*
X79363Y58966D01*
X79802Y58616D01*
X80278Y58317D01*
X80784Y58073D01*
X81314Y57888D01*
X81861Y57763D01*
X82419Y57700D01*
X82981Y57700D01*
X83539Y57763D01*
X84086Y57888D01*
X84616Y58073D01*
X85122Y58317D01*
X85598Y58616D01*
X86037Y58966D01*
X86434Y59363D01*
X86784Y59802D01*
X87083Y60278D01*
X87327Y60784D01*
X87512Y61314D01*
X87637Y61861D01*
X87700Y62419D01*
X87700Y62981D01*
X87637Y63539D01*
X87512Y64086D01*
X87327Y64616D01*
X87083Y65122D01*
X86784Y65598D01*
X86434Y66037D01*
X86037Y66434D01*
X85598Y66784D01*
X85122Y67083D01*
X84616Y67327D01*
X84086Y67512D01*
X83539Y67637D01*
X82981Y67700D01*
X82419Y67700D01*
X57019Y67700D02*
X56461Y67637D01*
X55914Y67512D01*
X55384Y67327D01*
X54878Y67083D01*
X54402Y66784D01*
X53963Y66434D01*
X53566Y66037D01*
X53216Y65598D01*
X52917Y65122D01*
X52673Y64616D01*
X52488Y64086D01*
X52363Y63539D01*
X52300Y62981D01*
X52300Y62419D01*
X52363Y61861D01*
X52488Y61314D01*
X52673Y60784D01*
X52917Y60278D01*
X53216Y59802D01*
X53566Y59363D01*
X53963Y58966D01*
X54402Y58616D01*
X54878Y58317D01*
X55384Y58073D01*
X55914Y57888D01*
X56461Y57763D01*
X57019Y57700D01*
X57581Y57700D01*
X58139Y57763D01*
X58686Y57888D01*
X59216Y58073D01*
X59722Y58317D01*
X60198Y58616D01*
X60637Y58966D01*
X61034Y59363D01*
X61384Y59802D01*
X61683Y60278D01*
X61927Y60784D01*
X62112Y61314D01*
X62237Y61861D01*
X62300Y62419D01*
X62300Y62981D01*
X62237Y63539D01*
X62112Y64086D01*
X61927Y64616D01*
X61683Y65122D01*
X61384Y65598D01*
X61034Y66037D01*
X60637Y66434D01*
X60198Y66784D01*
X59722Y67083D01*
X59216Y67327D01*
X58686Y67512D01*
X58139Y67637D01*
X57581Y67700D01*
X57019Y67700D01*
X57019Y42300D02*
X56461Y42237D01*
X55914Y42112D01*
X55384Y41927D01*
X54878Y41683D01*
X54402Y41384D01*
X53963Y41034D01*
X53566Y40637D01*
X53216Y40198D01*
X52917Y39722D01*
X52673Y39216D01*
X52488Y38686D01*
X52363Y38139D01*
X52300Y37581D01*
X52300Y37019D01*
X52363Y36461D01*
X52488Y35914D01*
X52673Y35384D01*
X52917Y34878D01*
X53216Y34402D01*
X53566Y33963D01*
X53963Y33566D01*
X54402Y33216D01*
X54878Y32917D01*
X55384Y32673D01*
X55914Y32488D01*
X56461Y32363D01*
X57019Y32300D01*
X57581Y32300D01*
X58139Y32363D01*
X58686Y32488D01*
X59216Y32673D01*
X59722Y32917D01*
X60198Y33216D01*
X60637Y33566D01*
X61034Y33963D01*
X61384Y34402D01*
X61683Y34878D01*
X61927Y35384D01*
X62112Y35914D01*
X62237Y36461D01*
X62300Y37019D01*
X62300Y37581D01*
X62237Y38139D01*
X62112Y38686D01*
X61927Y39216D01*
X61683Y39722D01*
X61384Y40198D01*
X61034Y40637D01*
X60637Y41034D01*
X60198Y41384D01*
X59722Y41683D01*
X59216Y41927D01*
X58686Y42112D01*
X58139Y42237D01*
X57581Y42300D01*
X57019Y42300D01*
X82419Y42300D02*
X81861Y42237D01*
X81314Y42112D01*
X80784Y41927D01*
X80278Y41683D01*
X79802Y41384D01*
X79363Y41034D01*
X78966Y40637D01*
X78616Y40198D01*
X78317Y39722D01*
X78073Y39216D01*
X77888Y38686D01*
X77763Y38139D01*
X77700Y37581D01*
X77700Y37019D01*
X77763Y36461D01*
X77888Y35914D01*
X78073Y35384D01*
X78317Y34878D01*
X78616Y34402D01*
X78966Y33963D01*
X79363Y33566D01*
X79802Y33216D01*
X80278Y32917D01*
X80784Y32673D01*
X81314Y32488D01*
X81861Y32363D01*
X82419Y32300D01*
X82981Y32300D01*
X83539Y32363D01*
X84086Y32488D01*
X84616Y32673D01*
X85122Y32917D01*
X85598Y33216D01*
X86037Y33566D01*
X86434Y33963D01*
X86784Y34402D01*
X87083Y34878D01*
X87327Y35384D01*
X87512Y35914D01*
X87637Y36461D01*
X87700Y37019D01*
X87700Y37581D01*
X87637Y38139D01*
X87512Y38686D01*
X87327Y39216D01*
X87083Y39722D01*
X86784Y40198D01*
X86434Y40637D01*
X86037Y41034D01*
X85598Y41384D01*
X85122Y41683D01*
X84616Y41927D01*
X84086Y42112D01*
X83539Y42237D01*
X82981Y42300D01*
X82419Y42300D01*
M02*
