G04 EAGLE Gerber X2 export*
G75*
%MOMM*%
%FSLAX34Y34*%
%LPD*%
%AMOC8*
5,1,8,0,0,1.08239X$1,22.5*%
G01*
%ADD10C,0.406400*%
%ADD11C,0.025400*%
%ADD12C,0.152400*%
%ADD13R,0.711200X0.406400*%
%ADD14C,0.400000*%
%ADD15C,0.101600*%


D10*
X9695Y85000D02*
X10305Y85000D01*
D11*
X7968Y73772D02*
X7968Y72926D01*
X7970Y72871D01*
X7975Y72815D01*
X7984Y72761D01*
X7997Y72707D01*
X8013Y72654D01*
X8032Y72602D01*
X8055Y72551D01*
X8081Y72503D01*
X8111Y72455D01*
X8143Y72410D01*
X8178Y72368D01*
X8216Y72327D01*
X8257Y72289D01*
X8299Y72254D01*
X8344Y72222D01*
X8392Y72192D01*
X8440Y72166D01*
X8491Y72143D01*
X8543Y72124D01*
X8596Y72108D01*
X8650Y72095D01*
X8704Y72086D01*
X8760Y72081D01*
X8815Y72079D01*
X10931Y72079D01*
X10989Y72081D01*
X11046Y72087D01*
X11103Y72097D01*
X11160Y72110D01*
X11215Y72128D01*
X11268Y72149D01*
X11321Y72174D01*
X11371Y72202D01*
X11419Y72234D01*
X11466Y72269D01*
X11509Y72307D01*
X11550Y72348D01*
X11588Y72391D01*
X11623Y72438D01*
X11655Y72486D01*
X11683Y72536D01*
X11708Y72589D01*
X11729Y72642D01*
X11747Y72697D01*
X11760Y72754D01*
X11770Y72811D01*
X11776Y72868D01*
X11778Y72926D01*
X11778Y73772D01*
X10931Y75136D02*
X11778Y76195D01*
X7968Y76195D01*
X7968Y77253D02*
X7968Y75136D01*
D12*
X19000Y79000D02*
X19000Y85000D01*
X31000Y85000D02*
X31000Y79000D01*
D11*
X22968Y80086D02*
X22968Y80932D01*
X22968Y80086D02*
X22970Y80031D01*
X22975Y79975D01*
X22984Y79921D01*
X22997Y79867D01*
X23013Y79814D01*
X23032Y79762D01*
X23055Y79711D01*
X23081Y79663D01*
X23111Y79615D01*
X23143Y79570D01*
X23178Y79528D01*
X23216Y79487D01*
X23257Y79449D01*
X23299Y79414D01*
X23344Y79382D01*
X23392Y79352D01*
X23440Y79326D01*
X23491Y79303D01*
X23543Y79284D01*
X23596Y79268D01*
X23650Y79255D01*
X23704Y79246D01*
X23760Y79241D01*
X23815Y79239D01*
X25931Y79239D01*
X25989Y79241D01*
X26046Y79247D01*
X26103Y79257D01*
X26160Y79270D01*
X26215Y79288D01*
X26268Y79309D01*
X26321Y79334D01*
X26371Y79362D01*
X26419Y79394D01*
X26466Y79429D01*
X26509Y79467D01*
X26550Y79508D01*
X26588Y79551D01*
X26623Y79598D01*
X26655Y79646D01*
X26683Y79696D01*
X26708Y79749D01*
X26729Y79802D01*
X26747Y79857D01*
X26760Y79914D01*
X26770Y79971D01*
X26776Y80028D01*
X26778Y80086D01*
X26778Y80932D01*
X26779Y83461D02*
X26777Y83521D01*
X26771Y83580D01*
X26762Y83640D01*
X26749Y83698D01*
X26732Y83755D01*
X26712Y83812D01*
X26688Y83867D01*
X26661Y83920D01*
X26631Y83972D01*
X26597Y84021D01*
X26560Y84068D01*
X26521Y84113D01*
X26478Y84156D01*
X26433Y84195D01*
X26386Y84232D01*
X26337Y84266D01*
X26285Y84296D01*
X26232Y84323D01*
X26177Y84347D01*
X26120Y84367D01*
X26063Y84384D01*
X26005Y84397D01*
X25945Y84406D01*
X25886Y84412D01*
X25826Y84414D01*
X26778Y83461D02*
X26776Y83394D01*
X26771Y83327D01*
X26762Y83261D01*
X26749Y83195D01*
X26733Y83131D01*
X26713Y83067D01*
X26689Y83004D01*
X26663Y82942D01*
X26633Y82883D01*
X26600Y82825D01*
X26563Y82768D01*
X26524Y82714D01*
X26482Y82662D01*
X26437Y82613D01*
X26389Y82566D01*
X26339Y82522D01*
X26286Y82480D01*
X26231Y82442D01*
X26175Y82406D01*
X26116Y82374D01*
X26056Y82345D01*
X25994Y82319D01*
X25931Y82297D01*
X25085Y84096D02*
X25127Y84137D01*
X25172Y84176D01*
X25218Y84213D01*
X25267Y84247D01*
X25317Y84278D01*
X25369Y84305D01*
X25423Y84330D01*
X25478Y84352D01*
X25534Y84371D01*
X25591Y84386D01*
X25649Y84398D01*
X25708Y84406D01*
X25767Y84411D01*
X25826Y84413D01*
X25085Y84096D02*
X22968Y82296D01*
X22968Y84413D01*
D13*
X40000Y50000D03*
D11*
X46858Y46660D02*
X50668Y46660D01*
X50668Y47718D01*
X50666Y47782D01*
X50660Y47846D01*
X50651Y47909D01*
X50637Y47971D01*
X50620Y48033D01*
X50599Y48093D01*
X50575Y48152D01*
X50547Y48210D01*
X50515Y48265D01*
X50481Y48319D01*
X50443Y48370D01*
X50402Y48420D01*
X50358Y48466D01*
X50312Y48510D01*
X50262Y48551D01*
X50211Y48589D01*
X50157Y48623D01*
X50102Y48655D01*
X50044Y48683D01*
X49985Y48707D01*
X49925Y48728D01*
X49863Y48745D01*
X49801Y48759D01*
X49738Y48768D01*
X49674Y48774D01*
X49610Y48776D01*
X49546Y48774D01*
X49482Y48768D01*
X49419Y48759D01*
X49357Y48745D01*
X49295Y48728D01*
X49235Y48707D01*
X49176Y48683D01*
X49118Y48655D01*
X49063Y48623D01*
X49009Y48589D01*
X48958Y48551D01*
X48908Y48510D01*
X48862Y48466D01*
X48818Y48420D01*
X48777Y48370D01*
X48739Y48319D01*
X48705Y48265D01*
X48673Y48210D01*
X48645Y48152D01*
X48621Y48093D01*
X48600Y48033D01*
X48583Y47971D01*
X48569Y47909D01*
X48560Y47846D01*
X48554Y47782D01*
X48552Y47718D01*
X48551Y47718D02*
X48551Y46660D01*
X48551Y47930D02*
X46858Y48776D01*
X49821Y50296D02*
X50668Y51355D01*
X46858Y51355D01*
X46858Y52413D02*
X46858Y50296D01*
D13*
X35000Y15000D03*
D11*
X28142Y12587D02*
X24332Y12587D01*
X28142Y12587D02*
X28142Y13645D01*
X28140Y13709D01*
X28134Y13773D01*
X28125Y13836D01*
X28111Y13898D01*
X28094Y13960D01*
X28073Y14020D01*
X28049Y14079D01*
X28021Y14137D01*
X27989Y14192D01*
X27955Y14246D01*
X27917Y14297D01*
X27876Y14347D01*
X27832Y14393D01*
X27786Y14437D01*
X27736Y14478D01*
X27685Y14516D01*
X27631Y14550D01*
X27576Y14582D01*
X27518Y14610D01*
X27459Y14634D01*
X27399Y14655D01*
X27337Y14672D01*
X27275Y14686D01*
X27212Y14695D01*
X27148Y14701D01*
X27084Y14703D01*
X27020Y14701D01*
X26956Y14695D01*
X26893Y14686D01*
X26831Y14672D01*
X26769Y14655D01*
X26709Y14634D01*
X26650Y14610D01*
X26592Y14582D01*
X26537Y14550D01*
X26483Y14516D01*
X26432Y14478D01*
X26382Y14437D01*
X26336Y14393D01*
X26292Y14347D01*
X26251Y14297D01*
X26213Y14246D01*
X26179Y14192D01*
X26147Y14137D01*
X26119Y14079D01*
X26095Y14020D01*
X26074Y13960D01*
X26057Y13898D01*
X26043Y13836D01*
X26034Y13773D01*
X26028Y13709D01*
X26026Y13645D01*
X26025Y13645D02*
X26025Y12587D01*
X26025Y13857D02*
X24332Y14704D01*
X27190Y18341D02*
X27250Y18339D01*
X27309Y18333D01*
X27369Y18324D01*
X27427Y18311D01*
X27484Y18294D01*
X27541Y18274D01*
X27596Y18250D01*
X27649Y18223D01*
X27701Y18193D01*
X27750Y18159D01*
X27797Y18122D01*
X27842Y18083D01*
X27885Y18040D01*
X27924Y17995D01*
X27961Y17948D01*
X27995Y17899D01*
X28025Y17847D01*
X28052Y17794D01*
X28076Y17739D01*
X28096Y17682D01*
X28113Y17625D01*
X28126Y17567D01*
X28135Y17507D01*
X28141Y17448D01*
X28143Y17388D01*
X28142Y17388D02*
X28140Y17321D01*
X28135Y17254D01*
X28126Y17188D01*
X28113Y17122D01*
X28097Y17058D01*
X28077Y16994D01*
X28053Y16931D01*
X28027Y16869D01*
X27997Y16810D01*
X27964Y16752D01*
X27927Y16695D01*
X27888Y16641D01*
X27846Y16589D01*
X27801Y16540D01*
X27753Y16493D01*
X27703Y16449D01*
X27650Y16407D01*
X27595Y16369D01*
X27539Y16333D01*
X27480Y16301D01*
X27420Y16272D01*
X27358Y16246D01*
X27295Y16224D01*
X26449Y18023D02*
X26491Y18064D01*
X26536Y18103D01*
X26582Y18140D01*
X26631Y18174D01*
X26681Y18205D01*
X26733Y18232D01*
X26787Y18257D01*
X26842Y18279D01*
X26898Y18298D01*
X26955Y18313D01*
X27013Y18325D01*
X27072Y18333D01*
X27131Y18338D01*
X27190Y18340D01*
X26449Y18023D02*
X24332Y16224D01*
X24332Y18340D01*
D13*
X40000Y85000D03*
D11*
X41778Y67690D02*
X37968Y67690D01*
X41778Y67690D02*
X41778Y68748D01*
X41776Y68812D01*
X41770Y68876D01*
X41761Y68939D01*
X41747Y69001D01*
X41730Y69063D01*
X41709Y69123D01*
X41685Y69182D01*
X41657Y69240D01*
X41625Y69295D01*
X41591Y69349D01*
X41553Y69400D01*
X41512Y69450D01*
X41468Y69496D01*
X41422Y69540D01*
X41372Y69581D01*
X41321Y69619D01*
X41267Y69653D01*
X41212Y69685D01*
X41154Y69713D01*
X41095Y69737D01*
X41035Y69758D01*
X40973Y69775D01*
X40911Y69789D01*
X40848Y69798D01*
X40784Y69804D01*
X40720Y69806D01*
X40656Y69804D01*
X40592Y69798D01*
X40529Y69789D01*
X40467Y69775D01*
X40405Y69758D01*
X40345Y69737D01*
X40286Y69713D01*
X40228Y69685D01*
X40173Y69653D01*
X40119Y69619D01*
X40068Y69581D01*
X40018Y69540D01*
X39972Y69496D01*
X39928Y69450D01*
X39887Y69400D01*
X39849Y69349D01*
X39815Y69295D01*
X39783Y69240D01*
X39755Y69182D01*
X39731Y69123D01*
X39710Y69063D01*
X39693Y69001D01*
X39679Y68939D01*
X39670Y68876D01*
X39664Y68812D01*
X39662Y68748D01*
X39661Y68748D02*
X39661Y67690D01*
X39661Y68960D02*
X37968Y69806D01*
X37968Y71326D02*
X37968Y72385D01*
X37970Y72449D01*
X37976Y72513D01*
X37985Y72576D01*
X37999Y72638D01*
X38016Y72700D01*
X38037Y72760D01*
X38061Y72819D01*
X38089Y72877D01*
X38121Y72932D01*
X38155Y72986D01*
X38193Y73037D01*
X38234Y73087D01*
X38278Y73133D01*
X38324Y73177D01*
X38374Y73218D01*
X38425Y73256D01*
X38479Y73290D01*
X38534Y73322D01*
X38592Y73350D01*
X38651Y73374D01*
X38711Y73395D01*
X38773Y73412D01*
X38835Y73426D01*
X38898Y73435D01*
X38962Y73441D01*
X39026Y73443D01*
X39090Y73441D01*
X39154Y73435D01*
X39217Y73426D01*
X39279Y73412D01*
X39341Y73395D01*
X39401Y73374D01*
X39460Y73350D01*
X39518Y73322D01*
X39573Y73290D01*
X39627Y73256D01*
X39678Y73218D01*
X39728Y73177D01*
X39774Y73133D01*
X39818Y73087D01*
X39859Y73037D01*
X39897Y72986D01*
X39931Y72932D01*
X39963Y72877D01*
X39991Y72819D01*
X40015Y72760D01*
X40036Y72700D01*
X40053Y72638D01*
X40067Y72576D01*
X40076Y72513D01*
X40082Y72449D01*
X40084Y72385D01*
X41778Y72596D02*
X41778Y71326D01*
X41778Y72596D02*
X41776Y72653D01*
X41770Y72709D01*
X41761Y72765D01*
X41748Y72820D01*
X41731Y72874D01*
X41711Y72927D01*
X41687Y72978D01*
X41660Y73028D01*
X41629Y73075D01*
X41596Y73121D01*
X41559Y73164D01*
X41520Y73205D01*
X41478Y73243D01*
X41433Y73278D01*
X41387Y73310D01*
X41338Y73339D01*
X41288Y73364D01*
X41235Y73386D01*
X41182Y73405D01*
X41127Y73420D01*
X41072Y73431D01*
X41016Y73439D01*
X40959Y73443D01*
X40903Y73443D01*
X40846Y73439D01*
X40790Y73431D01*
X40735Y73420D01*
X40680Y73405D01*
X40627Y73386D01*
X40574Y73364D01*
X40524Y73339D01*
X40475Y73310D01*
X40429Y73278D01*
X40384Y73243D01*
X40342Y73205D01*
X40303Y73164D01*
X40266Y73121D01*
X40233Y73075D01*
X40202Y73028D01*
X40175Y72978D01*
X40151Y72927D01*
X40131Y72874D01*
X40114Y72820D01*
X40101Y72765D01*
X40092Y72709D01*
X40086Y72653D01*
X40084Y72596D01*
X40085Y72596D02*
X40085Y71750D01*
D14*
X92860Y24600D02*
X92862Y24700D01*
X92868Y24801D01*
X92878Y24900D01*
X92892Y25000D01*
X92909Y25099D01*
X92931Y25197D01*
X92957Y25294D01*
X92986Y25390D01*
X93019Y25484D01*
X93056Y25578D01*
X93096Y25670D01*
X93140Y25760D01*
X93188Y25848D01*
X93239Y25935D01*
X93293Y26019D01*
X93351Y26101D01*
X93412Y26181D01*
X93476Y26258D01*
X93543Y26333D01*
X93613Y26405D01*
X93686Y26474D01*
X93761Y26540D01*
X93839Y26604D01*
X93919Y26664D01*
X94002Y26721D01*
X94087Y26774D01*
X94174Y26824D01*
X94263Y26871D01*
X94353Y26914D01*
X94445Y26954D01*
X94539Y26990D01*
X94634Y27022D01*
X94730Y27050D01*
X94828Y27075D01*
X94926Y27095D01*
X95025Y27112D01*
X95125Y27125D01*
X95224Y27134D01*
X95325Y27139D01*
X95425Y27140D01*
X95525Y27137D01*
X95626Y27130D01*
X95725Y27119D01*
X95825Y27104D01*
X95923Y27086D01*
X96021Y27063D01*
X96118Y27036D01*
X96213Y27006D01*
X96308Y26972D01*
X96401Y26934D01*
X96492Y26893D01*
X96582Y26848D01*
X96670Y26800D01*
X96756Y26748D01*
X96840Y26693D01*
X96921Y26634D01*
X97000Y26572D01*
X97077Y26508D01*
X97151Y26440D01*
X97222Y26369D01*
X97291Y26296D01*
X97356Y26220D01*
X97419Y26141D01*
X97478Y26060D01*
X97534Y25977D01*
X97587Y25892D01*
X97636Y25804D01*
X97682Y25715D01*
X97724Y25624D01*
X97763Y25531D01*
X97798Y25437D01*
X97829Y25342D01*
X97857Y25245D01*
X97880Y25148D01*
X97900Y25049D01*
X97916Y24950D01*
X97928Y24851D01*
X97936Y24750D01*
X97940Y24650D01*
X97940Y24550D01*
X97936Y24450D01*
X97928Y24349D01*
X97916Y24250D01*
X97900Y24151D01*
X97880Y24052D01*
X97857Y23955D01*
X97829Y23858D01*
X97798Y23763D01*
X97763Y23669D01*
X97724Y23576D01*
X97682Y23485D01*
X97636Y23396D01*
X97587Y23308D01*
X97534Y23223D01*
X97478Y23140D01*
X97419Y23059D01*
X97356Y22980D01*
X97291Y22904D01*
X97222Y22831D01*
X97151Y22760D01*
X97077Y22692D01*
X97000Y22628D01*
X96921Y22566D01*
X96840Y22507D01*
X96756Y22452D01*
X96670Y22400D01*
X96582Y22352D01*
X96492Y22307D01*
X96401Y22266D01*
X96308Y22228D01*
X96213Y22194D01*
X96118Y22164D01*
X96021Y22137D01*
X95923Y22114D01*
X95825Y22096D01*
X95725Y22081D01*
X95626Y22070D01*
X95525Y22063D01*
X95425Y22060D01*
X95325Y22061D01*
X95224Y22066D01*
X95125Y22075D01*
X95025Y22088D01*
X94926Y22105D01*
X94828Y22125D01*
X94730Y22150D01*
X94634Y22178D01*
X94539Y22210D01*
X94445Y22246D01*
X94353Y22286D01*
X94263Y22329D01*
X94174Y22376D01*
X94087Y22426D01*
X94002Y22479D01*
X93919Y22536D01*
X93839Y22596D01*
X93761Y22660D01*
X93686Y22726D01*
X93613Y22795D01*
X93543Y22867D01*
X93476Y22942D01*
X93412Y23019D01*
X93351Y23099D01*
X93293Y23181D01*
X93239Y23265D01*
X93188Y23352D01*
X93140Y23440D01*
X93096Y23530D01*
X93056Y23622D01*
X93019Y23716D01*
X92986Y23810D01*
X92957Y23906D01*
X92931Y24003D01*
X92909Y24101D01*
X92892Y24200D01*
X92878Y24300D01*
X92868Y24399D01*
X92862Y24500D01*
X92860Y24600D01*
D15*
X94492Y83802D02*
X86703Y83802D01*
X90597Y87696D02*
X90597Y79907D01*
X94492Y13802D02*
X86703Y13802D01*
X90597Y17696D02*
X90597Y9907D01*
M02*
