G04 EAGLE Gerber X2 export*
G75*
%MOMM*%
%FSLAX34Y34*%
%LPD*%
%AMOC8*
5,1,8,0,0,1.08239X$1,22.5*%
G01*
%ADD10C,0.101600*%
%ADD11R,1.001600X0.801600*%
%ADD12R,1.301600X0.901600*%
%ADD13C,1.101600*%
%ADD14R,1.371600X1.641600*%
%ADD15R,2.101600X1.101600*%


D10*
X22098Y23488D02*
X22098Y21301D01*
X22100Y21230D01*
X22106Y21159D01*
X22115Y21089D01*
X22129Y21019D01*
X22146Y20950D01*
X22167Y20882D01*
X22191Y20815D01*
X22219Y20750D01*
X22251Y20686D01*
X22286Y20625D01*
X22324Y20565D01*
X22366Y20507D01*
X22410Y20452D01*
X22457Y20399D01*
X22508Y20348D01*
X22561Y20301D01*
X22616Y20257D01*
X22674Y20215D01*
X22734Y20177D01*
X22795Y20142D01*
X22859Y20110D01*
X22924Y20082D01*
X22991Y20058D01*
X23059Y20037D01*
X23128Y20020D01*
X23198Y20006D01*
X23268Y19997D01*
X23339Y19991D01*
X23410Y19989D01*
X23410Y19988D02*
X26035Y19988D01*
X26035Y19989D02*
X26106Y19991D01*
X26177Y19997D01*
X26247Y20006D01*
X26317Y20020D01*
X26386Y20037D01*
X26454Y20058D01*
X26521Y20082D01*
X26586Y20110D01*
X26650Y20142D01*
X26711Y20177D01*
X26771Y20215D01*
X26829Y20257D01*
X26884Y20301D01*
X26937Y20348D01*
X26988Y20399D01*
X27035Y20452D01*
X27079Y20507D01*
X27121Y20565D01*
X27159Y20625D01*
X27194Y20686D01*
X27226Y20750D01*
X27254Y20815D01*
X27278Y20882D01*
X27299Y20950D01*
X27316Y21019D01*
X27330Y21089D01*
X27339Y21159D01*
X27345Y21230D01*
X27347Y21301D01*
X27347Y23488D01*
X20786Y23488D01*
X20786Y23487D02*
X20715Y23485D01*
X20644Y23479D01*
X20574Y23470D01*
X20504Y23456D01*
X20435Y23439D01*
X20367Y23418D01*
X20300Y23394D01*
X20235Y23366D01*
X20171Y23334D01*
X20110Y23299D01*
X20050Y23261D01*
X19992Y23219D01*
X19937Y23175D01*
X19884Y23128D01*
X19834Y23077D01*
X19786Y23024D01*
X19742Y22969D01*
X19700Y22911D01*
X19662Y22851D01*
X19627Y22790D01*
X19595Y22726D01*
X19567Y22661D01*
X19543Y22594D01*
X19522Y22526D01*
X19505Y22457D01*
X19491Y22387D01*
X19482Y22317D01*
X19476Y22246D01*
X19474Y22175D01*
X19473Y22175D02*
X19473Y20426D01*
X22098Y27122D02*
X27347Y27122D01*
X29535Y26903D02*
X29972Y26903D01*
X29972Y27341D01*
X29535Y27341D01*
X29535Y26903D01*
X27347Y29732D02*
X27347Y32356D01*
X29972Y30607D02*
X23410Y30607D01*
X23339Y30609D01*
X23268Y30615D01*
X23198Y30624D01*
X23128Y30638D01*
X23059Y30655D01*
X22991Y30676D01*
X22924Y30700D01*
X22859Y30728D01*
X22795Y30760D01*
X22734Y30795D01*
X22674Y30833D01*
X22616Y30875D01*
X22561Y30919D01*
X22508Y30967D01*
X22457Y31017D01*
X22410Y31070D01*
X22366Y31125D01*
X22324Y31183D01*
X22286Y31243D01*
X22251Y31304D01*
X22219Y31368D01*
X22191Y31433D01*
X22167Y31500D01*
X22146Y31568D01*
X22129Y31637D01*
X22115Y31707D01*
X22106Y31777D01*
X22100Y31848D01*
X22098Y31919D01*
X22098Y32356D01*
X22098Y35171D02*
X22535Y35171D01*
X22535Y35608D01*
X22098Y35608D01*
X22098Y35171D01*
X22098Y38590D02*
X27347Y38590D01*
X29535Y38371D02*
X29972Y38371D01*
X29972Y38809D01*
X29535Y38809D01*
X29535Y38371D01*
X25598Y41908D02*
X23848Y41908D01*
X25598Y41907D02*
X25680Y41909D01*
X25762Y41915D01*
X25843Y41924D01*
X25924Y41938D01*
X26005Y41955D01*
X26084Y41976D01*
X26162Y42000D01*
X26239Y42029D01*
X26315Y42061D01*
X26389Y42096D01*
X26461Y42135D01*
X26532Y42177D01*
X26600Y42222D01*
X26666Y42271D01*
X26730Y42322D01*
X26791Y42377D01*
X26850Y42434D01*
X26906Y42494D01*
X26959Y42557D01*
X27009Y42622D01*
X27056Y42689D01*
X27100Y42758D01*
X27140Y42830D01*
X27177Y42903D01*
X27211Y42978D01*
X27241Y43054D01*
X27267Y43132D01*
X27290Y43211D01*
X27309Y43290D01*
X27324Y43371D01*
X27336Y43452D01*
X27344Y43534D01*
X27348Y43616D01*
X27348Y43698D01*
X27344Y43780D01*
X27336Y43862D01*
X27324Y43943D01*
X27309Y44024D01*
X27290Y44103D01*
X27267Y44182D01*
X27241Y44260D01*
X27211Y44336D01*
X27177Y44411D01*
X27140Y44484D01*
X27100Y44556D01*
X27056Y44625D01*
X27009Y44692D01*
X26959Y44757D01*
X26906Y44820D01*
X26850Y44880D01*
X26791Y44937D01*
X26730Y44992D01*
X26666Y45043D01*
X26600Y45092D01*
X26532Y45137D01*
X26461Y45179D01*
X26389Y45218D01*
X26315Y45253D01*
X26239Y45285D01*
X26162Y45314D01*
X26084Y45338D01*
X26005Y45359D01*
X25924Y45376D01*
X25843Y45390D01*
X25762Y45399D01*
X25680Y45405D01*
X25598Y45407D01*
X23848Y45407D01*
X23766Y45405D01*
X23684Y45399D01*
X23603Y45390D01*
X23522Y45376D01*
X23441Y45359D01*
X23362Y45338D01*
X23284Y45314D01*
X23207Y45285D01*
X23131Y45253D01*
X23057Y45218D01*
X22985Y45179D01*
X22914Y45137D01*
X22846Y45092D01*
X22780Y45043D01*
X22716Y44992D01*
X22655Y44937D01*
X22596Y44880D01*
X22540Y44820D01*
X22487Y44757D01*
X22437Y44692D01*
X22390Y44625D01*
X22346Y44556D01*
X22306Y44484D01*
X22269Y44411D01*
X22235Y44336D01*
X22205Y44260D01*
X22179Y44182D01*
X22156Y44103D01*
X22137Y44024D01*
X22122Y43943D01*
X22110Y43862D01*
X22102Y43780D01*
X22098Y43698D01*
X22098Y43616D01*
X22102Y43534D01*
X22110Y43452D01*
X22122Y43371D01*
X22137Y43290D01*
X22156Y43211D01*
X22179Y43132D01*
X22205Y43054D01*
X22235Y42978D01*
X22269Y42903D01*
X22306Y42830D01*
X22346Y42758D01*
X22390Y42689D01*
X22437Y42622D01*
X22487Y42557D01*
X22540Y42494D01*
X22596Y42434D01*
X22655Y42377D01*
X22716Y42322D01*
X22780Y42271D01*
X22846Y42222D01*
X22914Y42177D01*
X22985Y42135D01*
X23057Y42096D01*
X23131Y42061D01*
X23207Y42029D01*
X23284Y42000D01*
X23362Y41976D01*
X23441Y41955D01*
X23522Y41938D01*
X23603Y41924D01*
X23684Y41915D01*
X23766Y41909D01*
X23848Y41907D01*
X21223Y48575D02*
X30847Y52075D01*
X14012Y19988D02*
X10075Y19988D01*
X10075Y19989D02*
X10004Y19991D01*
X9933Y19997D01*
X9863Y20006D01*
X9793Y20020D01*
X9724Y20037D01*
X9656Y20058D01*
X9589Y20082D01*
X9524Y20110D01*
X9460Y20142D01*
X9399Y20177D01*
X9339Y20215D01*
X9281Y20257D01*
X9226Y20301D01*
X9173Y20348D01*
X9122Y20399D01*
X9075Y20452D01*
X9031Y20507D01*
X8989Y20565D01*
X8951Y20625D01*
X8916Y20686D01*
X8884Y20750D01*
X8856Y20815D01*
X8832Y20882D01*
X8811Y20950D01*
X8794Y21019D01*
X8780Y21089D01*
X8771Y21159D01*
X8765Y21230D01*
X8763Y21301D01*
X8763Y23488D01*
X14012Y23488D01*
X16637Y27506D02*
X8763Y27506D01*
X8763Y29693D01*
X8765Y29764D01*
X8771Y29835D01*
X8780Y29905D01*
X8794Y29975D01*
X8811Y30044D01*
X8832Y30112D01*
X8856Y30179D01*
X8884Y30244D01*
X8916Y30308D01*
X8951Y30369D01*
X8989Y30429D01*
X9031Y30487D01*
X9075Y30542D01*
X9122Y30595D01*
X9173Y30646D01*
X9226Y30693D01*
X9281Y30737D01*
X9339Y30779D01*
X9399Y30817D01*
X9460Y30852D01*
X9524Y30884D01*
X9589Y30912D01*
X9656Y30936D01*
X9724Y30957D01*
X9793Y30974D01*
X9863Y30988D01*
X9933Y30997D01*
X10004Y31003D01*
X10075Y31005D01*
X12700Y31005D01*
X12771Y31003D01*
X12842Y30997D01*
X12912Y30988D01*
X12982Y30974D01*
X13051Y30957D01*
X13119Y30936D01*
X13186Y30912D01*
X13251Y30884D01*
X13315Y30852D01*
X13376Y30817D01*
X13436Y30779D01*
X13494Y30737D01*
X13549Y30693D01*
X13602Y30646D01*
X13653Y30595D01*
X13700Y30542D01*
X13744Y30487D01*
X13786Y30429D01*
X13824Y30369D01*
X13859Y30308D01*
X13891Y30244D01*
X13919Y30179D01*
X13943Y30112D01*
X13964Y30044D01*
X13981Y29975D01*
X13995Y29905D01*
X14004Y29835D01*
X14010Y29764D01*
X14012Y29693D01*
X14012Y27506D01*
X11825Y35871D02*
X11825Y37839D01*
X11825Y35871D02*
X11823Y35793D01*
X11817Y35716D01*
X11807Y35639D01*
X11794Y35563D01*
X11776Y35487D01*
X11755Y35413D01*
X11730Y35339D01*
X11701Y35267D01*
X11669Y35197D01*
X11633Y35128D01*
X11593Y35061D01*
X11551Y34996D01*
X11505Y34934D01*
X11456Y34874D01*
X11404Y34816D01*
X11349Y34761D01*
X11291Y34709D01*
X11231Y34660D01*
X11169Y34614D01*
X11104Y34572D01*
X11037Y34532D01*
X10968Y34496D01*
X10898Y34464D01*
X10826Y34435D01*
X10752Y34410D01*
X10678Y34389D01*
X10602Y34371D01*
X10526Y34358D01*
X10449Y34348D01*
X10372Y34342D01*
X10294Y34340D01*
X10216Y34342D01*
X10139Y34348D01*
X10062Y34358D01*
X9986Y34371D01*
X9910Y34389D01*
X9836Y34410D01*
X9762Y34435D01*
X9690Y34464D01*
X9620Y34496D01*
X9551Y34532D01*
X9484Y34572D01*
X9419Y34614D01*
X9357Y34660D01*
X9297Y34709D01*
X9239Y34761D01*
X9184Y34816D01*
X9132Y34874D01*
X9083Y34934D01*
X9037Y34996D01*
X8995Y35061D01*
X8955Y35128D01*
X8919Y35197D01*
X8887Y35267D01*
X8858Y35339D01*
X8833Y35413D01*
X8812Y35487D01*
X8794Y35563D01*
X8781Y35639D01*
X8771Y35716D01*
X8765Y35793D01*
X8763Y35871D01*
X8763Y37839D01*
X12700Y37839D01*
X12771Y37837D01*
X12842Y37831D01*
X12912Y37822D01*
X12982Y37808D01*
X13051Y37791D01*
X13119Y37770D01*
X13186Y37746D01*
X13251Y37718D01*
X13315Y37686D01*
X13376Y37651D01*
X13436Y37613D01*
X13494Y37571D01*
X13549Y37527D01*
X13602Y37480D01*
X13653Y37429D01*
X13700Y37376D01*
X13744Y37321D01*
X13786Y37263D01*
X13824Y37203D01*
X13859Y37142D01*
X13891Y37078D01*
X13919Y37013D01*
X13943Y36946D01*
X13964Y36878D01*
X13981Y36809D01*
X13995Y36739D01*
X14004Y36669D01*
X14010Y36598D01*
X14012Y36527D01*
X14012Y34777D01*
X16637Y45040D02*
X8763Y45040D01*
X8763Y42853D01*
X8765Y42782D01*
X8771Y42711D01*
X8780Y42641D01*
X8794Y42571D01*
X8811Y42502D01*
X8832Y42434D01*
X8856Y42367D01*
X8884Y42302D01*
X8916Y42238D01*
X8951Y42177D01*
X8989Y42117D01*
X9031Y42059D01*
X9075Y42004D01*
X9122Y41951D01*
X9173Y41900D01*
X9226Y41853D01*
X9281Y41809D01*
X9339Y41767D01*
X9399Y41729D01*
X9460Y41694D01*
X9524Y41662D01*
X9589Y41634D01*
X9656Y41610D01*
X9724Y41589D01*
X9793Y41572D01*
X9863Y41558D01*
X9933Y41549D01*
X10004Y41543D01*
X10075Y41541D01*
X12700Y41541D01*
X12771Y41543D01*
X12842Y41549D01*
X12912Y41558D01*
X12982Y41572D01*
X13051Y41589D01*
X13119Y41610D01*
X13186Y41634D01*
X13251Y41662D01*
X13315Y41694D01*
X13376Y41729D01*
X13436Y41767D01*
X13494Y41809D01*
X13549Y41853D01*
X13602Y41900D01*
X13653Y41951D01*
X13700Y42004D01*
X13744Y42059D01*
X13786Y42117D01*
X13824Y42177D01*
X13859Y42238D01*
X13891Y42302D01*
X13919Y42367D01*
X13943Y42434D01*
X13964Y42502D01*
X13981Y42571D01*
X13995Y42641D01*
X14004Y42711D01*
X14010Y42782D01*
X14012Y42853D01*
X14012Y45040D01*
X8763Y50054D02*
X8763Y52241D01*
X8763Y50054D02*
X8765Y49983D01*
X8771Y49912D01*
X8780Y49842D01*
X8794Y49772D01*
X8811Y49703D01*
X8832Y49635D01*
X8856Y49568D01*
X8884Y49503D01*
X8916Y49439D01*
X8951Y49378D01*
X8989Y49318D01*
X9031Y49260D01*
X9075Y49205D01*
X9122Y49152D01*
X9173Y49101D01*
X9226Y49054D01*
X9281Y49010D01*
X9339Y48968D01*
X9399Y48930D01*
X9460Y48895D01*
X9524Y48863D01*
X9589Y48835D01*
X9656Y48811D01*
X9724Y48790D01*
X9793Y48773D01*
X9863Y48759D01*
X9933Y48750D01*
X10004Y48744D01*
X10075Y48742D01*
X12700Y48742D01*
X12771Y48744D01*
X12842Y48750D01*
X12912Y48759D01*
X12982Y48773D01*
X13051Y48790D01*
X13119Y48811D01*
X13186Y48835D01*
X13251Y48863D01*
X13315Y48895D01*
X13376Y48930D01*
X13436Y48968D01*
X13494Y49010D01*
X13549Y49054D01*
X13602Y49101D01*
X13653Y49152D01*
X13700Y49205D01*
X13744Y49260D01*
X13786Y49318D01*
X13824Y49378D01*
X13859Y49439D01*
X13891Y49503D01*
X13919Y49568D01*
X13943Y49635D01*
X13964Y49703D01*
X13981Y49772D01*
X13995Y49842D01*
X14004Y49912D01*
X14010Y49983D01*
X14012Y50054D01*
X14012Y52241D01*
X7451Y52241D01*
X7380Y52239D01*
X7309Y52233D01*
X7239Y52224D01*
X7169Y52210D01*
X7100Y52193D01*
X7032Y52172D01*
X6965Y52148D01*
X6900Y52120D01*
X6836Y52088D01*
X6775Y52053D01*
X6715Y52015D01*
X6657Y51973D01*
X6602Y51929D01*
X6549Y51882D01*
X6499Y51831D01*
X6451Y51778D01*
X6407Y51723D01*
X6365Y51665D01*
X6327Y51605D01*
X6292Y51544D01*
X6260Y51480D01*
X6232Y51415D01*
X6208Y51348D01*
X6187Y51280D01*
X6170Y51211D01*
X6156Y51141D01*
X6147Y51071D01*
X6141Y51000D01*
X6139Y50929D01*
X6138Y50929D02*
X6138Y49179D01*
X8763Y57305D02*
X8763Y59492D01*
X8763Y57305D02*
X8765Y57234D01*
X8771Y57163D01*
X8780Y57093D01*
X8794Y57023D01*
X8811Y56954D01*
X8832Y56886D01*
X8856Y56819D01*
X8884Y56754D01*
X8916Y56690D01*
X8951Y56629D01*
X8989Y56569D01*
X9031Y56511D01*
X9075Y56456D01*
X9122Y56403D01*
X9173Y56352D01*
X9226Y56305D01*
X9281Y56261D01*
X9339Y56219D01*
X9399Y56181D01*
X9460Y56146D01*
X9524Y56114D01*
X9589Y56086D01*
X9656Y56062D01*
X9724Y56041D01*
X9793Y56024D01*
X9863Y56010D01*
X9933Y56001D01*
X10004Y55995D01*
X10075Y55993D01*
X10075Y55992D02*
X12263Y55992D01*
X12345Y55994D01*
X12427Y56000D01*
X12508Y56009D01*
X12589Y56023D01*
X12670Y56040D01*
X12749Y56061D01*
X12827Y56085D01*
X12904Y56114D01*
X12980Y56146D01*
X13054Y56181D01*
X13126Y56220D01*
X13197Y56262D01*
X13265Y56307D01*
X13331Y56356D01*
X13395Y56407D01*
X13456Y56462D01*
X13515Y56519D01*
X13571Y56579D01*
X13624Y56642D01*
X13674Y56707D01*
X13721Y56774D01*
X13765Y56843D01*
X13805Y56915D01*
X13842Y56988D01*
X13876Y57063D01*
X13906Y57139D01*
X13932Y57217D01*
X13955Y57296D01*
X13974Y57375D01*
X13989Y57456D01*
X14001Y57537D01*
X14009Y57619D01*
X14013Y57701D01*
X14013Y57783D01*
X14009Y57865D01*
X14001Y57947D01*
X13989Y58028D01*
X13974Y58109D01*
X13955Y58188D01*
X13932Y58267D01*
X13906Y58345D01*
X13876Y58421D01*
X13842Y58496D01*
X13805Y58569D01*
X13765Y58641D01*
X13721Y58710D01*
X13674Y58777D01*
X13624Y58842D01*
X13571Y58905D01*
X13515Y58965D01*
X13456Y59022D01*
X13395Y59077D01*
X13331Y59128D01*
X13265Y59177D01*
X13197Y59222D01*
X13126Y59264D01*
X13054Y59303D01*
X12980Y59338D01*
X12904Y59370D01*
X12827Y59399D01*
X12749Y59423D01*
X12670Y59444D01*
X12589Y59461D01*
X12508Y59475D01*
X12427Y59484D01*
X12345Y59490D01*
X12263Y59492D01*
X11388Y59492D01*
X11388Y55992D01*
D11*
X10000Y91500D03*
X10000Y78500D03*
D12*
X25000Y91000D03*
X25000Y73000D03*
D11*
X40000Y56500D03*
X40000Y43500D03*
X35000Y8500D03*
X35000Y21500D03*
X40000Y91500D03*
X40000Y78500D03*
D13*
X82700Y62700D03*
X57300Y62700D03*
X57300Y37300D03*
X82700Y37300D03*
D14*
X82700Y80000D03*
X57300Y80000D03*
X57300Y20000D03*
X82700Y20000D03*
D15*
X90000Y95000D03*
X90000Y5000D03*
M02*
