G04 EAGLE Gerber X2 export*
G75*
%MOMM*%
%FSLAX34Y34*%
%LPD*%
%AMOC8*
5,1,8,0,0,1.08239X$1,22.5*%
G01*
%ADD10C,0.101600*%
%ADD11C,0.050800*%
%ADD12R,1.001600X0.801600*%
%ADD13R,1.301600X0.901600*%
%ADD14R,0.801600X1.001600*%
%ADD15C,0.951600*%
%ADD16C,1.101600*%
%ADD17R,1.371600X1.641600*%
%ADD18R,2.101600X1.101600*%


D10*
X15432Y21553D02*
X15432Y19366D01*
X15434Y19295D01*
X15440Y19224D01*
X15449Y19154D01*
X15463Y19084D01*
X15480Y19015D01*
X15501Y18947D01*
X15525Y18880D01*
X15553Y18815D01*
X15585Y18751D01*
X15620Y18690D01*
X15658Y18630D01*
X15700Y18572D01*
X15744Y18517D01*
X15791Y18464D01*
X15842Y18413D01*
X15895Y18366D01*
X15950Y18322D01*
X16008Y18280D01*
X16068Y18242D01*
X16129Y18207D01*
X16193Y18175D01*
X16258Y18147D01*
X16325Y18123D01*
X16393Y18102D01*
X16462Y18085D01*
X16532Y18071D01*
X16602Y18062D01*
X16673Y18056D01*
X16744Y18054D01*
X19369Y18054D01*
X19440Y18056D01*
X19511Y18062D01*
X19581Y18071D01*
X19651Y18085D01*
X19720Y18102D01*
X19788Y18123D01*
X19855Y18147D01*
X19920Y18175D01*
X19984Y18207D01*
X20045Y18242D01*
X20105Y18280D01*
X20163Y18322D01*
X20218Y18366D01*
X20271Y18413D01*
X20322Y18464D01*
X20369Y18517D01*
X20413Y18572D01*
X20455Y18630D01*
X20493Y18690D01*
X20528Y18751D01*
X20560Y18815D01*
X20588Y18880D01*
X20612Y18947D01*
X20633Y19015D01*
X20650Y19084D01*
X20664Y19154D01*
X20673Y19224D01*
X20679Y19295D01*
X20681Y19366D01*
X20681Y21553D01*
X14120Y21553D01*
X14049Y21551D01*
X13978Y21545D01*
X13908Y21536D01*
X13838Y21522D01*
X13769Y21505D01*
X13701Y21484D01*
X13634Y21460D01*
X13569Y21432D01*
X13505Y21400D01*
X13444Y21365D01*
X13384Y21327D01*
X13326Y21285D01*
X13271Y21241D01*
X13218Y21194D01*
X13168Y21143D01*
X13120Y21090D01*
X13076Y21035D01*
X13034Y20977D01*
X12996Y20917D01*
X12961Y20856D01*
X12929Y20792D01*
X12901Y20727D01*
X12877Y20660D01*
X12856Y20592D01*
X12839Y20523D01*
X12825Y20453D01*
X12816Y20383D01*
X12810Y20312D01*
X12808Y20241D01*
X12807Y20241D02*
X12807Y18491D01*
X15432Y25188D02*
X20681Y25188D01*
X22869Y24969D02*
X23306Y24969D01*
X23306Y25406D01*
X22869Y25406D01*
X22869Y24969D01*
X20681Y27797D02*
X20681Y30422D01*
X23306Y28672D02*
X16744Y28672D01*
X16673Y28674D01*
X16602Y28680D01*
X16532Y28689D01*
X16462Y28703D01*
X16393Y28720D01*
X16325Y28741D01*
X16258Y28765D01*
X16193Y28793D01*
X16129Y28825D01*
X16068Y28860D01*
X16008Y28898D01*
X15950Y28940D01*
X15895Y28984D01*
X15842Y29032D01*
X15791Y29082D01*
X15744Y29135D01*
X15700Y29190D01*
X15658Y29248D01*
X15620Y29308D01*
X15585Y29369D01*
X15553Y29433D01*
X15525Y29498D01*
X15501Y29565D01*
X15480Y29633D01*
X15463Y29702D01*
X15449Y29772D01*
X15440Y29842D01*
X15434Y29913D01*
X15432Y29984D01*
X15432Y30422D01*
X15432Y33236D02*
X15869Y33236D01*
X15869Y33674D01*
X15432Y33674D01*
X15432Y33236D01*
X15432Y36656D02*
X20681Y36656D01*
X22869Y36437D02*
X23306Y36437D01*
X23306Y36874D01*
X22869Y36874D01*
X22869Y36437D01*
X18932Y39973D02*
X17182Y39973D01*
X18932Y39973D02*
X19014Y39975D01*
X19096Y39981D01*
X19177Y39990D01*
X19258Y40004D01*
X19339Y40021D01*
X19418Y40042D01*
X19496Y40066D01*
X19573Y40095D01*
X19649Y40127D01*
X19723Y40162D01*
X19795Y40201D01*
X19866Y40243D01*
X19934Y40288D01*
X20000Y40337D01*
X20064Y40388D01*
X20125Y40443D01*
X20184Y40500D01*
X20240Y40560D01*
X20293Y40623D01*
X20343Y40688D01*
X20390Y40755D01*
X20434Y40824D01*
X20474Y40896D01*
X20511Y40969D01*
X20545Y41044D01*
X20575Y41120D01*
X20601Y41198D01*
X20624Y41277D01*
X20643Y41356D01*
X20658Y41437D01*
X20670Y41518D01*
X20678Y41600D01*
X20682Y41682D01*
X20682Y41764D01*
X20678Y41846D01*
X20670Y41928D01*
X20658Y42009D01*
X20643Y42090D01*
X20624Y42169D01*
X20601Y42248D01*
X20575Y42326D01*
X20545Y42402D01*
X20511Y42477D01*
X20474Y42550D01*
X20434Y42622D01*
X20390Y42691D01*
X20343Y42758D01*
X20293Y42823D01*
X20240Y42886D01*
X20184Y42946D01*
X20125Y43003D01*
X20064Y43058D01*
X20000Y43109D01*
X19934Y43158D01*
X19866Y43203D01*
X19795Y43245D01*
X19723Y43284D01*
X19649Y43319D01*
X19573Y43351D01*
X19496Y43380D01*
X19418Y43404D01*
X19339Y43425D01*
X19258Y43442D01*
X19177Y43456D01*
X19096Y43465D01*
X19014Y43471D01*
X18932Y43473D01*
X17182Y43473D01*
X17100Y43471D01*
X17018Y43465D01*
X16937Y43456D01*
X16856Y43442D01*
X16775Y43425D01*
X16696Y43404D01*
X16618Y43380D01*
X16541Y43351D01*
X16465Y43319D01*
X16391Y43284D01*
X16319Y43245D01*
X16248Y43203D01*
X16180Y43158D01*
X16114Y43109D01*
X16050Y43058D01*
X15989Y43003D01*
X15930Y42946D01*
X15874Y42886D01*
X15821Y42823D01*
X15771Y42758D01*
X15724Y42691D01*
X15680Y42622D01*
X15640Y42550D01*
X15603Y42477D01*
X15569Y42402D01*
X15539Y42326D01*
X15513Y42248D01*
X15490Y42169D01*
X15471Y42090D01*
X15456Y42009D01*
X15444Y41928D01*
X15436Y41846D01*
X15432Y41764D01*
X15432Y41682D01*
X15436Y41600D01*
X15444Y41518D01*
X15456Y41437D01*
X15471Y41356D01*
X15490Y41277D01*
X15513Y41198D01*
X15539Y41120D01*
X15569Y41044D01*
X15603Y40969D01*
X15640Y40896D01*
X15680Y40824D01*
X15724Y40755D01*
X15771Y40688D01*
X15821Y40623D01*
X15874Y40560D01*
X15930Y40500D01*
X15989Y40443D01*
X16050Y40388D01*
X16114Y40337D01*
X16180Y40288D01*
X16248Y40243D01*
X16319Y40201D01*
X16391Y40162D01*
X16465Y40127D01*
X16541Y40095D01*
X16618Y40066D01*
X16696Y40042D01*
X16775Y40021D01*
X16856Y40004D01*
X16937Y39990D01*
X17018Y39981D01*
X17100Y39975D01*
X17182Y39973D01*
X14557Y46641D02*
X24181Y50140D01*
X10902Y28188D02*
X6965Y28188D01*
X6965Y28189D02*
X6894Y28191D01*
X6823Y28197D01*
X6753Y28206D01*
X6683Y28220D01*
X6614Y28237D01*
X6546Y28258D01*
X6479Y28282D01*
X6414Y28310D01*
X6350Y28342D01*
X6289Y28377D01*
X6229Y28415D01*
X6171Y28457D01*
X6116Y28501D01*
X6063Y28548D01*
X6012Y28599D01*
X5965Y28652D01*
X5921Y28707D01*
X5879Y28765D01*
X5841Y28825D01*
X5806Y28886D01*
X5774Y28950D01*
X5746Y29015D01*
X5722Y29082D01*
X5701Y29150D01*
X5684Y29219D01*
X5670Y29289D01*
X5661Y29359D01*
X5655Y29430D01*
X5653Y29501D01*
X5653Y31688D01*
X10902Y31688D01*
X13527Y35706D02*
X5653Y35706D01*
X5653Y37893D01*
X5655Y37964D01*
X5661Y38035D01*
X5670Y38105D01*
X5684Y38175D01*
X5701Y38244D01*
X5722Y38312D01*
X5746Y38379D01*
X5774Y38444D01*
X5806Y38508D01*
X5841Y38569D01*
X5879Y38629D01*
X5921Y38687D01*
X5965Y38742D01*
X6012Y38795D01*
X6063Y38846D01*
X6116Y38893D01*
X6171Y38937D01*
X6229Y38979D01*
X6289Y39017D01*
X6350Y39052D01*
X6414Y39084D01*
X6479Y39112D01*
X6546Y39136D01*
X6614Y39157D01*
X6683Y39174D01*
X6753Y39188D01*
X6823Y39197D01*
X6894Y39203D01*
X6965Y39205D01*
X9590Y39205D01*
X9661Y39203D01*
X9732Y39197D01*
X9802Y39188D01*
X9872Y39174D01*
X9941Y39157D01*
X10009Y39136D01*
X10076Y39112D01*
X10141Y39084D01*
X10205Y39052D01*
X10266Y39017D01*
X10326Y38979D01*
X10384Y38937D01*
X10439Y38893D01*
X10492Y38846D01*
X10543Y38795D01*
X10590Y38742D01*
X10634Y38687D01*
X10676Y38629D01*
X10714Y38569D01*
X10749Y38508D01*
X10781Y38444D01*
X10809Y38379D01*
X10833Y38312D01*
X10854Y38244D01*
X10871Y38175D01*
X10885Y38105D01*
X10894Y38035D01*
X10900Y37964D01*
X10902Y37893D01*
X10902Y35706D01*
X8715Y44071D02*
X8715Y46039D01*
X8715Y44071D02*
X8713Y43993D01*
X8707Y43916D01*
X8697Y43839D01*
X8684Y43763D01*
X8666Y43687D01*
X8645Y43613D01*
X8620Y43539D01*
X8591Y43467D01*
X8559Y43397D01*
X8523Y43328D01*
X8483Y43261D01*
X8441Y43196D01*
X8395Y43134D01*
X8346Y43074D01*
X8294Y43016D01*
X8239Y42961D01*
X8181Y42909D01*
X8121Y42860D01*
X8059Y42814D01*
X7994Y42772D01*
X7927Y42732D01*
X7858Y42696D01*
X7788Y42664D01*
X7716Y42635D01*
X7642Y42610D01*
X7568Y42589D01*
X7492Y42571D01*
X7416Y42558D01*
X7339Y42548D01*
X7262Y42542D01*
X7184Y42540D01*
X7106Y42542D01*
X7029Y42548D01*
X6952Y42558D01*
X6876Y42571D01*
X6800Y42589D01*
X6726Y42610D01*
X6652Y42635D01*
X6580Y42664D01*
X6510Y42696D01*
X6441Y42732D01*
X6374Y42772D01*
X6309Y42814D01*
X6247Y42860D01*
X6187Y42909D01*
X6129Y42961D01*
X6074Y43016D01*
X6022Y43074D01*
X5973Y43134D01*
X5927Y43196D01*
X5885Y43261D01*
X5845Y43328D01*
X5809Y43397D01*
X5777Y43467D01*
X5748Y43539D01*
X5723Y43613D01*
X5702Y43687D01*
X5684Y43763D01*
X5671Y43839D01*
X5661Y43916D01*
X5655Y43993D01*
X5653Y44071D01*
X5653Y46039D01*
X9590Y46039D01*
X9661Y46037D01*
X9732Y46031D01*
X9802Y46022D01*
X9872Y46008D01*
X9941Y45991D01*
X10009Y45970D01*
X10076Y45946D01*
X10141Y45918D01*
X10205Y45886D01*
X10266Y45851D01*
X10326Y45813D01*
X10384Y45771D01*
X10439Y45727D01*
X10492Y45680D01*
X10543Y45629D01*
X10590Y45576D01*
X10634Y45521D01*
X10676Y45463D01*
X10714Y45403D01*
X10749Y45342D01*
X10781Y45278D01*
X10809Y45213D01*
X10833Y45146D01*
X10854Y45078D01*
X10871Y45009D01*
X10885Y44939D01*
X10894Y44869D01*
X10900Y44798D01*
X10902Y44727D01*
X10902Y42977D01*
X13527Y53240D02*
X5653Y53240D01*
X5653Y51053D01*
X5655Y50982D01*
X5661Y50911D01*
X5670Y50841D01*
X5684Y50771D01*
X5701Y50702D01*
X5722Y50634D01*
X5746Y50567D01*
X5774Y50502D01*
X5806Y50438D01*
X5841Y50377D01*
X5879Y50317D01*
X5921Y50259D01*
X5965Y50204D01*
X6012Y50151D01*
X6063Y50100D01*
X6116Y50053D01*
X6171Y50009D01*
X6229Y49967D01*
X6289Y49929D01*
X6350Y49894D01*
X6414Y49862D01*
X6479Y49834D01*
X6546Y49810D01*
X6614Y49789D01*
X6683Y49772D01*
X6753Y49758D01*
X6823Y49749D01*
X6894Y49743D01*
X6965Y49741D01*
X9590Y49741D01*
X9661Y49743D01*
X9732Y49749D01*
X9802Y49758D01*
X9872Y49772D01*
X9941Y49789D01*
X10009Y49810D01*
X10076Y49834D01*
X10141Y49862D01*
X10205Y49894D01*
X10266Y49929D01*
X10326Y49967D01*
X10384Y50009D01*
X10439Y50053D01*
X10492Y50100D01*
X10543Y50151D01*
X10590Y50204D01*
X10634Y50259D01*
X10676Y50317D01*
X10714Y50377D01*
X10749Y50438D01*
X10781Y50502D01*
X10809Y50567D01*
X10833Y50634D01*
X10854Y50702D01*
X10871Y50771D01*
X10885Y50841D01*
X10894Y50911D01*
X10900Y50982D01*
X10902Y51053D01*
X10902Y53240D01*
X5653Y58254D02*
X5653Y60441D01*
X5653Y58254D02*
X5655Y58183D01*
X5661Y58112D01*
X5670Y58042D01*
X5684Y57972D01*
X5701Y57903D01*
X5722Y57835D01*
X5746Y57768D01*
X5774Y57703D01*
X5806Y57639D01*
X5841Y57578D01*
X5879Y57518D01*
X5921Y57460D01*
X5965Y57405D01*
X6012Y57352D01*
X6063Y57301D01*
X6116Y57254D01*
X6171Y57210D01*
X6229Y57168D01*
X6289Y57130D01*
X6350Y57095D01*
X6414Y57063D01*
X6479Y57035D01*
X6546Y57011D01*
X6614Y56990D01*
X6683Y56973D01*
X6753Y56959D01*
X6823Y56950D01*
X6894Y56944D01*
X6965Y56942D01*
X9590Y56942D01*
X9661Y56944D01*
X9732Y56950D01*
X9802Y56959D01*
X9872Y56973D01*
X9941Y56990D01*
X10009Y57011D01*
X10076Y57035D01*
X10141Y57063D01*
X10205Y57095D01*
X10266Y57130D01*
X10326Y57168D01*
X10384Y57210D01*
X10439Y57254D01*
X10492Y57301D01*
X10543Y57352D01*
X10590Y57405D01*
X10634Y57460D01*
X10676Y57518D01*
X10714Y57578D01*
X10749Y57639D01*
X10781Y57703D01*
X10809Y57768D01*
X10833Y57835D01*
X10854Y57903D01*
X10871Y57972D01*
X10885Y58042D01*
X10894Y58112D01*
X10900Y58183D01*
X10902Y58254D01*
X10902Y60441D01*
X4341Y60441D01*
X4270Y60439D01*
X4199Y60433D01*
X4129Y60424D01*
X4059Y60410D01*
X3990Y60393D01*
X3922Y60372D01*
X3855Y60348D01*
X3790Y60320D01*
X3726Y60288D01*
X3665Y60253D01*
X3605Y60215D01*
X3547Y60173D01*
X3492Y60129D01*
X3439Y60082D01*
X3389Y60031D01*
X3341Y59978D01*
X3297Y59923D01*
X3255Y59865D01*
X3217Y59805D01*
X3182Y59744D01*
X3150Y59680D01*
X3122Y59615D01*
X3098Y59548D01*
X3077Y59480D01*
X3060Y59411D01*
X3046Y59341D01*
X3037Y59271D01*
X3031Y59200D01*
X3029Y59129D01*
X3028Y59129D02*
X3028Y57379D01*
X5653Y65505D02*
X5653Y67692D01*
X5653Y65505D02*
X5655Y65434D01*
X5661Y65363D01*
X5670Y65293D01*
X5684Y65223D01*
X5701Y65154D01*
X5722Y65086D01*
X5746Y65019D01*
X5774Y64954D01*
X5806Y64890D01*
X5841Y64829D01*
X5879Y64769D01*
X5921Y64711D01*
X5965Y64656D01*
X6012Y64603D01*
X6063Y64552D01*
X6116Y64505D01*
X6171Y64461D01*
X6229Y64419D01*
X6289Y64381D01*
X6350Y64346D01*
X6414Y64314D01*
X6479Y64286D01*
X6546Y64262D01*
X6614Y64241D01*
X6683Y64224D01*
X6753Y64210D01*
X6823Y64201D01*
X6894Y64195D01*
X6965Y64193D01*
X6965Y64192D02*
X9153Y64192D01*
X9235Y64194D01*
X9317Y64200D01*
X9398Y64209D01*
X9479Y64223D01*
X9560Y64240D01*
X9639Y64261D01*
X9717Y64285D01*
X9794Y64314D01*
X9870Y64346D01*
X9944Y64381D01*
X10016Y64420D01*
X10087Y64462D01*
X10155Y64507D01*
X10221Y64556D01*
X10285Y64607D01*
X10346Y64662D01*
X10405Y64719D01*
X10461Y64779D01*
X10514Y64842D01*
X10564Y64907D01*
X10611Y64974D01*
X10655Y65043D01*
X10695Y65115D01*
X10732Y65188D01*
X10766Y65263D01*
X10796Y65339D01*
X10822Y65417D01*
X10845Y65496D01*
X10864Y65575D01*
X10879Y65656D01*
X10891Y65737D01*
X10899Y65819D01*
X10903Y65901D01*
X10903Y65983D01*
X10899Y66065D01*
X10891Y66147D01*
X10879Y66228D01*
X10864Y66309D01*
X10845Y66388D01*
X10822Y66467D01*
X10796Y66545D01*
X10766Y66621D01*
X10732Y66696D01*
X10695Y66769D01*
X10655Y66841D01*
X10611Y66910D01*
X10564Y66977D01*
X10514Y67042D01*
X10461Y67105D01*
X10405Y67165D01*
X10346Y67222D01*
X10285Y67277D01*
X10221Y67328D01*
X10155Y67377D01*
X10087Y67422D01*
X10016Y67464D01*
X9944Y67503D01*
X9870Y67538D01*
X9794Y67570D01*
X9717Y67599D01*
X9639Y67623D01*
X9560Y67644D01*
X9479Y67661D01*
X9398Y67675D01*
X9317Y67684D01*
X9235Y67690D01*
X9153Y67692D01*
X8278Y67692D01*
X8278Y64192D01*
D11*
X38454Y18564D02*
X43195Y16984D01*
X43195Y20145D02*
X38454Y18564D01*
X43986Y22761D02*
X45566Y24737D01*
X38454Y24737D01*
X38454Y26712D02*
X38454Y22761D01*
X38454Y29340D02*
X38849Y29340D01*
X38849Y29735D01*
X38454Y29735D01*
X38454Y29340D01*
X43986Y32362D02*
X45566Y34338D01*
X38454Y34338D01*
X38454Y36313D02*
X38454Y32362D01*
D12*
X24900Y92700D03*
X24900Y79700D03*
D13*
X8890Y92000D03*
X8890Y74000D03*
D12*
X40000Y56500D03*
X40000Y43500D03*
D14*
X25500Y9200D03*
X38500Y9200D03*
D12*
X40000Y91500D03*
X40000Y78500D03*
D15*
X29500Y69000D03*
X29500Y31000D03*
D16*
X82700Y62700D03*
X57300Y62700D03*
X57300Y37300D03*
X82700Y37300D03*
D17*
X82700Y80000D03*
X57300Y80000D03*
X57300Y20000D03*
X82700Y20000D03*
D18*
X90000Y95000D03*
X90000Y5000D03*
M02*
