G04 EAGLE Gerber X2 export*
G75*
%MOMM*%
%FSLAX34Y34*%
%LPD*%
%AMOC8*
5,1,8,0,0,1.08239X$1,22.5*%
G01*
%ADD10C,0.152400*%
%ADD11C,0.203200*%
%ADD12C,0.025400*%
%ADD13C,0.304800*%
%ADD14C,0.127000*%
%ADD15C,0.101600*%


D10*
X93620Y24350D02*
X93620Y75396D01*
X46380Y75396D02*
X46380Y24350D01*
D11*
X50530Y32474D02*
X50532Y32549D01*
X50538Y32624D01*
X50548Y32699D01*
X50561Y32773D01*
X50579Y32846D01*
X50600Y32918D01*
X50625Y32989D01*
X50654Y33058D01*
X50687Y33126D01*
X50722Y33192D01*
X50762Y33256D01*
X50804Y33318D01*
X50850Y33378D01*
X50899Y33435D01*
X50951Y33489D01*
X51005Y33541D01*
X51062Y33590D01*
X51122Y33636D01*
X51184Y33678D01*
X51248Y33718D01*
X51314Y33753D01*
X51382Y33786D01*
X51451Y33815D01*
X51522Y33840D01*
X51594Y33861D01*
X51667Y33879D01*
X51741Y33892D01*
X51816Y33902D01*
X51891Y33908D01*
X51966Y33910D01*
X52041Y33908D01*
X52116Y33902D01*
X52191Y33892D01*
X52265Y33879D01*
X52338Y33861D01*
X52410Y33840D01*
X52481Y33815D01*
X52550Y33786D01*
X52618Y33753D01*
X52684Y33718D01*
X52748Y33678D01*
X52810Y33636D01*
X52870Y33590D01*
X52927Y33541D01*
X52981Y33489D01*
X53033Y33435D01*
X53082Y33378D01*
X53128Y33318D01*
X53170Y33256D01*
X53210Y33192D01*
X53245Y33126D01*
X53278Y33058D01*
X53307Y32989D01*
X53332Y32918D01*
X53353Y32846D01*
X53371Y32773D01*
X53384Y32699D01*
X53394Y32624D01*
X53400Y32549D01*
X53402Y32474D01*
X53400Y32399D01*
X53394Y32324D01*
X53384Y32249D01*
X53371Y32175D01*
X53353Y32102D01*
X53332Y32030D01*
X53307Y31959D01*
X53278Y31890D01*
X53245Y31822D01*
X53210Y31756D01*
X53170Y31692D01*
X53128Y31630D01*
X53082Y31570D01*
X53033Y31513D01*
X52981Y31459D01*
X52927Y31407D01*
X52870Y31358D01*
X52810Y31312D01*
X52748Y31270D01*
X52684Y31230D01*
X52618Y31195D01*
X52550Y31162D01*
X52481Y31133D01*
X52410Y31108D01*
X52338Y31087D01*
X52265Y31069D01*
X52191Y31056D01*
X52116Y31046D01*
X52041Y31040D01*
X51966Y31038D01*
X51891Y31040D01*
X51816Y31046D01*
X51741Y31056D01*
X51667Y31069D01*
X51594Y31087D01*
X51522Y31108D01*
X51451Y31133D01*
X51382Y31162D01*
X51314Y31195D01*
X51248Y31230D01*
X51184Y31270D01*
X51122Y31312D01*
X51062Y31358D01*
X51005Y31407D01*
X50951Y31459D01*
X50899Y31513D01*
X50850Y31570D01*
X50804Y31630D01*
X50762Y31692D01*
X50722Y31756D01*
X50687Y31822D01*
X50654Y31890D01*
X50625Y31959D01*
X50600Y32030D01*
X50579Y32102D01*
X50561Y32175D01*
X50548Y32249D01*
X50538Y32324D01*
X50532Y32399D01*
X50530Y32474D01*
D12*
X57850Y42507D02*
X57850Y46317D01*
X57427Y42507D02*
X58274Y42507D01*
X58274Y46317D02*
X57427Y46317D01*
X60555Y42507D02*
X61402Y42507D01*
X60555Y42507D02*
X60500Y42509D01*
X60444Y42514D01*
X60390Y42523D01*
X60336Y42536D01*
X60283Y42552D01*
X60231Y42571D01*
X60180Y42594D01*
X60132Y42620D01*
X60084Y42650D01*
X60039Y42682D01*
X59997Y42717D01*
X59956Y42755D01*
X59918Y42796D01*
X59883Y42838D01*
X59851Y42883D01*
X59821Y42931D01*
X59795Y42979D01*
X59772Y43030D01*
X59753Y43082D01*
X59737Y43135D01*
X59724Y43189D01*
X59715Y43243D01*
X59710Y43299D01*
X59708Y43354D01*
X59709Y43354D02*
X59709Y45470D01*
X59708Y45470D02*
X59710Y45528D01*
X59716Y45585D01*
X59726Y45642D01*
X59739Y45699D01*
X59757Y45754D01*
X59778Y45807D01*
X59803Y45860D01*
X59831Y45910D01*
X59863Y45958D01*
X59898Y46005D01*
X59936Y46048D01*
X59977Y46089D01*
X60020Y46127D01*
X60067Y46162D01*
X60115Y46194D01*
X60165Y46222D01*
X60218Y46247D01*
X60271Y46268D01*
X60326Y46286D01*
X60383Y46299D01*
X60440Y46309D01*
X60497Y46315D01*
X60555Y46317D01*
X61402Y46317D01*
X62766Y45470D02*
X63824Y46317D01*
X63824Y42507D01*
X62766Y42507D02*
X64883Y42507D01*
D13*
X37320Y89929D02*
X27500Y89929D01*
X27500Y90000D01*
X37500Y90000D02*
X37500Y80000D01*
X37500Y10000D02*
X27500Y10000D01*
X37500Y10000D02*
X37500Y20000D01*
X-2500Y90000D02*
X-12500Y90000D01*
X-12500Y10000D02*
X-2500Y10000D01*
D14*
X-17265Y101435D02*
X-14048Y106261D01*
X-17265Y106261D02*
X-14048Y101435D01*
X-11511Y105189D02*
X-10170Y106261D01*
X-10170Y101435D01*
X-11511Y101435D02*
X-8829Y101435D01*
D15*
X84203Y40052D02*
X91992Y40052D01*
M02*
