G04 EAGLE Gerber X2 export*
G75*
%MOMM*%
%FSLAX34Y34*%
%LPD*%
%AMOC8*
5,1,8,0,0,1.08239X$1,22.5*%
G01*
%ADD10R,0.900000X0.700000*%
%ADD11R,1.200000X0.800000*%
%ADD12R,1.270000X1.540000*%
%ADD13R,2.000000X1.000000*%
%ADD14C,0.606400*%
%ADD15C,0.152400*%
%ADD16C,0.756400*%
%ADD17C,0.254000*%
%ADD18C,0.406400*%

G36*
X19340Y5084D02*
X19340Y5084D01*
X19359Y5082D01*
X19461Y5104D01*
X19563Y5120D01*
X19580Y5130D01*
X19600Y5134D01*
X19689Y5187D01*
X19780Y5236D01*
X19794Y5250D01*
X19811Y5260D01*
X19878Y5339D01*
X19950Y5414D01*
X19958Y5432D01*
X19971Y5447D01*
X20010Y5543D01*
X20053Y5637D01*
X20055Y5657D01*
X20063Y5675D01*
X20081Y5842D01*
X20081Y8491D01*
X22751Y11161D01*
X26525Y11161D01*
X26676Y11010D01*
X26750Y10957D01*
X26820Y10897D01*
X26850Y10885D01*
X26876Y10866D01*
X26963Y10839D01*
X27048Y10805D01*
X27089Y10801D01*
X27111Y10794D01*
X27143Y10795D01*
X27215Y10787D01*
X28214Y10787D01*
X28234Y10790D01*
X28253Y10788D01*
X28355Y10810D01*
X28457Y10826D01*
X28474Y10836D01*
X28494Y10840D01*
X28583Y10893D01*
X28674Y10942D01*
X28688Y10956D01*
X28705Y10966D01*
X28772Y11045D01*
X28844Y11120D01*
X28852Y11138D01*
X28865Y11153D01*
X28904Y11249D01*
X28947Y11343D01*
X28949Y11363D01*
X28957Y11381D01*
X28975Y11548D01*
X28975Y12632D01*
X29868Y13525D01*
X40132Y13525D01*
X41025Y12632D01*
X41025Y5842D01*
X41028Y5822D01*
X41026Y5803D01*
X41048Y5701D01*
X41064Y5599D01*
X41074Y5582D01*
X41078Y5562D01*
X41131Y5473D01*
X41180Y5382D01*
X41194Y5368D01*
X41204Y5351D01*
X41283Y5284D01*
X41358Y5212D01*
X41376Y5204D01*
X41391Y5191D01*
X41487Y5152D01*
X41581Y5109D01*
X41601Y5107D01*
X41619Y5099D01*
X41786Y5081D01*
X67503Y5081D01*
X67574Y5092D01*
X67646Y5094D01*
X67695Y5112D01*
X67746Y5120D01*
X67809Y5154D01*
X67877Y5179D01*
X67917Y5211D01*
X67963Y5236D01*
X68013Y5288D01*
X68069Y5332D01*
X68097Y5376D01*
X68133Y5414D01*
X68163Y5479D01*
X68202Y5539D01*
X68214Y5590D01*
X68236Y5637D01*
X68244Y5708D01*
X68262Y5778D01*
X68258Y5830D01*
X68263Y5881D01*
X68248Y5952D01*
X68243Y6023D01*
X68222Y6071D01*
X68211Y6122D01*
X68174Y6183D01*
X68146Y6249D01*
X68102Y6305D01*
X68085Y6333D01*
X68067Y6348D01*
X68042Y6380D01*
X67446Y6976D01*
X67444Y6986D01*
X67446Y7005D01*
X67424Y7107D01*
X67408Y7209D01*
X67398Y7226D01*
X67394Y7246D01*
X67341Y7335D01*
X67292Y7426D01*
X67278Y7440D01*
X67268Y7457D01*
X67189Y7524D01*
X67114Y7596D01*
X67096Y7604D01*
X67081Y7617D01*
X66985Y7656D01*
X66891Y7699D01*
X66871Y7701D01*
X66853Y7709D01*
X66686Y7727D01*
X49056Y7727D01*
X40531Y16252D01*
X40457Y16305D01*
X40387Y16365D01*
X40357Y16377D01*
X40331Y16396D01*
X40244Y16423D01*
X40159Y16457D01*
X40118Y16461D01*
X40096Y16468D01*
X40064Y16467D01*
X39993Y16475D01*
X29868Y16475D01*
X28975Y17368D01*
X28975Y25632D01*
X29868Y26525D01*
X40132Y26525D01*
X41025Y25632D01*
X41025Y22542D01*
X41039Y22452D01*
X41047Y22361D01*
X41059Y22331D01*
X41064Y22299D01*
X41107Y22218D01*
X41143Y22134D01*
X41169Y22102D01*
X41180Y22082D01*
X41203Y22059D01*
X41248Y22003D01*
X47110Y16141D01*
X47168Y16099D01*
X47220Y16050D01*
X47267Y16028D01*
X47309Y15998D01*
X47378Y15977D01*
X47443Y15946D01*
X47495Y15941D01*
X47545Y15925D01*
X47616Y15927D01*
X47687Y15919D01*
X47738Y15930D01*
X47790Y15932D01*
X47858Y15956D01*
X47928Y15972D01*
X47973Y15998D01*
X48021Y16016D01*
X48077Y16061D01*
X48139Y16098D01*
X48173Y16137D01*
X48213Y16170D01*
X48252Y16230D01*
X48299Y16285D01*
X48318Y16333D01*
X48346Y16377D01*
X48364Y16446D01*
X48391Y16513D01*
X48399Y16584D01*
X48407Y16615D01*
X48405Y16639D01*
X48409Y16680D01*
X48409Y18477D01*
X56538Y18477D01*
X56558Y18480D01*
X56577Y18478D01*
X56679Y18500D01*
X56781Y18517D01*
X56798Y18526D01*
X56818Y18530D01*
X56907Y18583D01*
X56998Y18632D01*
X57012Y18646D01*
X57029Y18656D01*
X57096Y18735D01*
X57167Y18810D01*
X57176Y18828D01*
X57189Y18843D01*
X57228Y18939D01*
X57271Y19033D01*
X57273Y19053D01*
X57281Y19071D01*
X57299Y19238D01*
X57299Y20001D01*
X57301Y20001D01*
X57301Y19238D01*
X57304Y19218D01*
X57302Y19199D01*
X57324Y19097D01*
X57341Y18995D01*
X57350Y18978D01*
X57354Y18958D01*
X57407Y18869D01*
X57456Y18778D01*
X57470Y18764D01*
X57480Y18747D01*
X57559Y18680D01*
X57634Y18609D01*
X57652Y18600D01*
X57667Y18587D01*
X57763Y18548D01*
X57857Y18505D01*
X57877Y18503D01*
X57895Y18495D01*
X58062Y18477D01*
X66191Y18477D01*
X66191Y13062D01*
X66194Y13042D01*
X66192Y13023D01*
X66214Y12921D01*
X66230Y12819D01*
X66240Y12802D01*
X66244Y12782D01*
X66297Y12693D01*
X66346Y12602D01*
X66360Y12588D01*
X66370Y12571D01*
X66449Y12504D01*
X66524Y12432D01*
X66542Y12424D01*
X66557Y12411D01*
X66653Y12372D01*
X66747Y12329D01*
X66767Y12327D01*
X66785Y12319D01*
X66952Y12301D01*
X68683Y12301D01*
X68773Y12315D01*
X68864Y12323D01*
X68894Y12335D01*
X68926Y12340D01*
X69007Y12383D01*
X69091Y12419D01*
X69123Y12445D01*
X69143Y12456D01*
X69166Y12479D01*
X69221Y12524D01*
X70117Y13419D01*
X74064Y13419D01*
X74084Y13422D01*
X74103Y13420D01*
X74205Y13442D01*
X74307Y13458D01*
X74324Y13468D01*
X74344Y13472D01*
X74433Y13525D01*
X74524Y13574D01*
X74538Y13588D01*
X74555Y13598D01*
X74622Y13677D01*
X74694Y13752D01*
X74702Y13770D01*
X74715Y13785D01*
X74754Y13881D01*
X74797Y13975D01*
X74799Y13995D01*
X74807Y14013D01*
X74825Y14180D01*
X74825Y28332D01*
X75580Y29087D01*
X75592Y29103D01*
X75608Y29115D01*
X75664Y29203D01*
X75724Y29286D01*
X75730Y29305D01*
X75741Y29322D01*
X75766Y29423D01*
X75796Y29522D01*
X75796Y29541D01*
X75801Y29561D01*
X75793Y29664D01*
X75790Y29767D01*
X75783Y29786D01*
X75782Y29806D01*
X75741Y29901D01*
X75706Y29998D01*
X75693Y30014D01*
X75685Y30032D01*
X75580Y30163D01*
X74154Y31590D01*
X72619Y35295D01*
X72619Y38136D01*
X72616Y38156D01*
X72618Y38175D01*
X72596Y38277D01*
X72580Y38379D01*
X72570Y38396D01*
X72566Y38416D01*
X72513Y38505D01*
X72464Y38596D01*
X72450Y38610D01*
X72440Y38627D01*
X72361Y38694D01*
X72286Y38765D01*
X72268Y38774D01*
X72253Y38787D01*
X72157Y38826D01*
X72063Y38869D01*
X72043Y38871D01*
X72025Y38879D01*
X71858Y38897D01*
X68142Y38897D01*
X68122Y38894D01*
X68103Y38896D01*
X68001Y38874D01*
X67899Y38857D01*
X67882Y38848D01*
X67862Y38844D01*
X67773Y38791D01*
X67682Y38742D01*
X67668Y38728D01*
X67651Y38718D01*
X67584Y38639D01*
X67512Y38564D01*
X67504Y38546D01*
X67491Y38531D01*
X67452Y38435D01*
X67409Y38341D01*
X67407Y38321D01*
X67399Y38303D01*
X67381Y38136D01*
X67381Y35295D01*
X65846Y31590D01*
X65138Y30881D01*
X65123Y30860D01*
X65112Y30852D01*
X65074Y30793D01*
X65068Y30784D01*
X64996Y30686D01*
X64996Y30684D01*
X64994Y30682D01*
X64986Y30656D01*
X64979Y30645D01*
X64962Y30577D01*
X64959Y30568D01*
X64922Y30451D01*
X64923Y30449D01*
X64922Y30447D01*
X64922Y30420D01*
X64919Y30406D01*
X64925Y30332D01*
X64925Y30323D01*
X64927Y30205D01*
X64928Y30203D01*
X64928Y30201D01*
X64937Y30177D01*
X64938Y30161D01*
X64970Y30087D01*
X65010Y29974D01*
X65012Y29972D01*
X65013Y29970D01*
X65028Y29951D01*
X65034Y29935D01*
X65139Y29804D01*
X65683Y29260D01*
X66018Y28681D01*
X66191Y28034D01*
X66191Y21523D01*
X58823Y21523D01*
X58823Y26458D01*
X58820Y26478D01*
X58822Y26497D01*
X58800Y26599D01*
X58783Y26701D01*
X58774Y26718D01*
X58770Y26738D01*
X58717Y26827D01*
X58668Y26918D01*
X58654Y26932D01*
X58644Y26949D01*
X58565Y27016D01*
X58490Y27088D01*
X58472Y27096D01*
X58457Y27109D01*
X58361Y27148D01*
X58267Y27191D01*
X58247Y27193D01*
X58229Y27201D01*
X58062Y27219D01*
X56538Y27219D01*
X56518Y27216D01*
X56499Y27218D01*
X56397Y27196D01*
X56295Y27180D01*
X56278Y27170D01*
X56258Y27166D01*
X56169Y27113D01*
X56078Y27064D01*
X56064Y27050D01*
X56047Y27040D01*
X55980Y26961D01*
X55909Y26886D01*
X55900Y26868D01*
X55887Y26853D01*
X55848Y26757D01*
X55805Y26663D01*
X55803Y26643D01*
X55795Y26625D01*
X55777Y26458D01*
X55777Y21523D01*
X48409Y21523D01*
X48409Y28034D01*
X48582Y28681D01*
X48917Y29260D01*
X49461Y29804D01*
X49472Y29819D01*
X49490Y29833D01*
X49491Y29836D01*
X49493Y29837D01*
X49554Y29933D01*
X49604Y30004D01*
X49609Y30020D01*
X49623Y30040D01*
X49623Y30043D01*
X49624Y30045D01*
X49653Y30161D01*
X49653Y30163D01*
X49677Y30239D01*
X49676Y30254D01*
X49683Y30279D01*
X49682Y30281D01*
X49683Y30284D01*
X49673Y30406D01*
X49672Y30412D01*
X49670Y30485D01*
X49665Y30498D01*
X49663Y30524D01*
X49663Y30526D01*
X49662Y30529D01*
X49614Y30640D01*
X49610Y30650D01*
X49586Y30716D01*
X49577Y30726D01*
X49567Y30750D01*
X49565Y30753D01*
X49565Y30755D01*
X49559Y30761D01*
X49462Y30881D01*
X48754Y31590D01*
X47219Y35295D01*
X47219Y38725D01*
X47208Y38796D01*
X47206Y38868D01*
X47188Y38917D01*
X47180Y38968D01*
X47146Y39031D01*
X47121Y39099D01*
X47089Y39139D01*
X47064Y39185D01*
X47012Y39235D01*
X46968Y39291D01*
X46924Y39319D01*
X46886Y39355D01*
X46821Y39385D01*
X46761Y39424D01*
X46710Y39436D01*
X46663Y39458D01*
X46592Y39466D01*
X46522Y39484D01*
X46470Y39480D01*
X46419Y39485D01*
X46348Y39470D01*
X46277Y39465D01*
X46229Y39444D01*
X46178Y39433D01*
X46117Y39396D01*
X46051Y39368D01*
X45995Y39323D01*
X45967Y39307D01*
X45952Y39289D01*
X45920Y39263D01*
X45132Y38475D01*
X34868Y38475D01*
X33975Y39368D01*
X33975Y47632D01*
X34868Y48525D01*
X45132Y48525D01*
X46025Y47632D01*
X46025Y46548D01*
X46028Y46528D01*
X46026Y46509D01*
X46048Y46407D01*
X46064Y46305D01*
X46074Y46288D01*
X46078Y46268D01*
X46131Y46179D01*
X46180Y46088D01*
X46194Y46074D01*
X46204Y46057D01*
X46283Y45990D01*
X46358Y45918D01*
X46376Y45910D01*
X46391Y45897D01*
X46487Y45858D01*
X46581Y45815D01*
X46601Y45813D01*
X46619Y45805D01*
X46786Y45787D01*
X46905Y45787D01*
X46995Y45801D01*
X47086Y45809D01*
X47115Y45821D01*
X47147Y45826D01*
X47228Y45869D01*
X47312Y45905D01*
X47344Y45931D01*
X47365Y45942D01*
X47387Y45965D01*
X47443Y46010D01*
X51862Y50429D01*
X62738Y50429D01*
X65191Y47976D01*
X65207Y47964D01*
X65219Y47949D01*
X65307Y47893D01*
X65391Y47833D01*
X65409Y47827D01*
X65426Y47816D01*
X65527Y47791D01*
X65626Y47760D01*
X65646Y47761D01*
X65665Y47756D01*
X65768Y47764D01*
X65872Y47767D01*
X65890Y47773D01*
X65910Y47775D01*
X66005Y47815D01*
X66103Y47851D01*
X66118Y47863D01*
X66136Y47871D01*
X66267Y47976D01*
X67802Y49511D01*
X72198Y49511D01*
X75307Y46402D01*
X75307Y46001D01*
X75318Y45930D01*
X75320Y45858D01*
X75338Y45809D01*
X75346Y45758D01*
X75380Y45695D01*
X75405Y45627D01*
X75437Y45587D01*
X75462Y45541D01*
X75514Y45491D01*
X75558Y45435D01*
X75602Y45407D01*
X75640Y45371D01*
X75705Y45341D01*
X75765Y45302D01*
X75816Y45290D01*
X75863Y45268D01*
X75934Y45260D01*
X76004Y45242D01*
X76056Y45246D01*
X76107Y45241D01*
X76178Y45256D01*
X76249Y45261D01*
X76297Y45282D01*
X76348Y45293D01*
X76409Y45330D01*
X76475Y45358D01*
X76531Y45403D01*
X76559Y45419D01*
X76574Y45437D01*
X76606Y45463D01*
X76990Y45846D01*
X80695Y47381D01*
X84705Y47381D01*
X88410Y45846D01*
X91269Y42988D01*
X91280Y42969D01*
X91326Y42883D01*
X91344Y42865D01*
X91358Y42843D01*
X91433Y42781D01*
X91504Y42714D01*
X91528Y42703D01*
X91548Y42686D01*
X91639Y42651D01*
X91727Y42610D01*
X91753Y42607D01*
X91777Y42598D01*
X91875Y42594D01*
X91971Y42583D01*
X91997Y42589D01*
X92023Y42588D01*
X92117Y42615D01*
X92212Y42635D01*
X92234Y42649D01*
X92259Y42656D01*
X92339Y42712D01*
X92423Y42762D01*
X92440Y42781D01*
X92461Y42796D01*
X92519Y42874D01*
X92583Y42948D01*
X92593Y42973D01*
X92608Y42994D01*
X92638Y43086D01*
X92675Y43177D01*
X92678Y43209D01*
X92684Y43227D01*
X92684Y43260D01*
X92693Y43343D01*
X92693Y56657D01*
X92678Y56753D01*
X92668Y56850D01*
X92658Y56874D01*
X92654Y56899D01*
X92608Y56985D01*
X92568Y57075D01*
X92551Y57094D01*
X92538Y57117D01*
X92468Y57184D01*
X92402Y57256D01*
X92379Y57268D01*
X92360Y57286D01*
X92272Y57327D01*
X92186Y57374D01*
X92161Y57379D01*
X92137Y57390D01*
X92040Y57400D01*
X91944Y57418D01*
X91918Y57414D01*
X91893Y57417D01*
X91797Y57396D01*
X91701Y57382D01*
X91678Y57370D01*
X91652Y57365D01*
X91568Y57315D01*
X91482Y57270D01*
X91463Y57252D01*
X91441Y57238D01*
X91378Y57164D01*
X91310Y57095D01*
X91294Y57066D01*
X91281Y57052D01*
X91269Y57021D01*
X91259Y57002D01*
X88410Y54154D01*
X84705Y52619D01*
X80695Y52619D01*
X76990Y54154D01*
X74154Y56990D01*
X72619Y60695D01*
X72619Y64705D01*
X74154Y68410D01*
X75580Y69837D01*
X75592Y69853D01*
X75608Y69865D01*
X75664Y69953D01*
X75724Y70036D01*
X75730Y70055D01*
X75741Y70072D01*
X75766Y70173D01*
X75796Y70272D01*
X75796Y70291D01*
X75801Y70311D01*
X75793Y70414D01*
X75790Y70517D01*
X75783Y70536D01*
X75782Y70556D01*
X75741Y70651D01*
X75706Y70748D01*
X75693Y70764D01*
X75685Y70782D01*
X75580Y70913D01*
X74825Y71668D01*
X74825Y88332D01*
X75718Y89225D01*
X77714Y89225D01*
X77734Y89228D01*
X77753Y89226D01*
X77855Y89248D01*
X77957Y89264D01*
X77974Y89274D01*
X77994Y89278D01*
X78083Y89331D01*
X78174Y89380D01*
X78188Y89394D01*
X78205Y89404D01*
X78272Y89483D01*
X78344Y89558D01*
X78352Y89576D01*
X78365Y89591D01*
X78404Y89687D01*
X78447Y89781D01*
X78449Y89801D01*
X78457Y89819D01*
X78475Y89986D01*
X78475Y90682D01*
X78472Y90702D01*
X78474Y90721D01*
X78452Y90823D01*
X78436Y90925D01*
X78426Y90942D01*
X78422Y90962D01*
X78369Y91051D01*
X78320Y91142D01*
X78306Y91156D01*
X78296Y91173D01*
X78217Y91240D01*
X78142Y91312D01*
X78124Y91320D01*
X78109Y91333D01*
X78013Y91372D01*
X77919Y91415D01*
X77899Y91417D01*
X77881Y91425D01*
X77714Y91443D01*
X46786Y91443D01*
X46766Y91440D01*
X46747Y91442D01*
X46645Y91420D01*
X46543Y91404D01*
X46526Y91394D01*
X46506Y91390D01*
X46417Y91337D01*
X46326Y91288D01*
X46312Y91274D01*
X46295Y91264D01*
X46228Y91185D01*
X46156Y91110D01*
X46148Y91092D01*
X46135Y91077D01*
X46096Y90981D01*
X46053Y90887D01*
X46051Y90867D01*
X46043Y90849D01*
X46025Y90682D01*
X46025Y87368D01*
X45132Y86475D01*
X34868Y86475D01*
X34123Y87220D01*
X34049Y87273D01*
X33980Y87333D01*
X33950Y87345D01*
X33924Y87364D01*
X33837Y87391D01*
X33752Y87425D01*
X33711Y87429D01*
X33689Y87436D01*
X33656Y87435D01*
X33585Y87443D01*
X33286Y87443D01*
X33266Y87440D01*
X33247Y87442D01*
X33145Y87420D01*
X33043Y87404D01*
X33026Y87394D01*
X33006Y87390D01*
X32917Y87337D01*
X32826Y87288D01*
X32812Y87274D01*
X32795Y87264D01*
X32728Y87185D01*
X32656Y87110D01*
X32648Y87092D01*
X32635Y87077D01*
X32596Y86981D01*
X32553Y86887D01*
X32551Y86867D01*
X32543Y86849D01*
X32525Y86682D01*
X32525Y86368D01*
X31632Y85475D01*
X18368Y85475D01*
X17475Y86368D01*
X17475Y86682D01*
X17472Y86702D01*
X17474Y86721D01*
X17452Y86823D01*
X17436Y86925D01*
X17426Y86942D01*
X17422Y86962D01*
X17369Y87051D01*
X17320Y87142D01*
X17306Y87156D01*
X17296Y87173D01*
X17217Y87240D01*
X17142Y87312D01*
X17124Y87320D01*
X17109Y87333D01*
X17013Y87372D01*
X16919Y87415D01*
X16899Y87417D01*
X16881Y87425D01*
X16714Y87443D01*
X16415Y87443D01*
X16325Y87429D01*
X16234Y87421D01*
X16204Y87409D01*
X16172Y87404D01*
X16091Y87361D01*
X16008Y87325D01*
X15975Y87299D01*
X15955Y87288D01*
X15933Y87265D01*
X15877Y87220D01*
X15132Y86475D01*
X5842Y86475D01*
X5822Y86472D01*
X5803Y86474D01*
X5701Y86452D01*
X5599Y86436D01*
X5582Y86426D01*
X5562Y86422D01*
X5473Y86369D01*
X5382Y86320D01*
X5368Y86306D01*
X5351Y86296D01*
X5284Y86217D01*
X5212Y86142D01*
X5204Y86124D01*
X5191Y86109D01*
X5152Y86013D01*
X5109Y85919D01*
X5107Y85899D01*
X5099Y85881D01*
X5081Y85714D01*
X5081Y85302D01*
X5084Y85282D01*
X5082Y85263D01*
X5104Y85161D01*
X5120Y85059D01*
X5130Y85042D01*
X5134Y85022D01*
X5187Y84933D01*
X5236Y84842D01*
X5250Y84828D01*
X5260Y84811D01*
X5339Y84744D01*
X5414Y84672D01*
X5432Y84664D01*
X5447Y84651D01*
X5543Y84612D01*
X5637Y84569D01*
X5657Y84567D01*
X5675Y84559D01*
X5842Y84541D01*
X8477Y84541D01*
X8477Y79262D01*
X8480Y79242D01*
X8478Y79223D01*
X8500Y79121D01*
X8517Y79019D01*
X8526Y79002D01*
X8530Y78982D01*
X8583Y78893D01*
X8632Y78802D01*
X8646Y78788D01*
X8656Y78771D01*
X8735Y78704D01*
X8810Y78633D01*
X8828Y78624D01*
X8843Y78611D01*
X8939Y78572D01*
X9033Y78529D01*
X9053Y78527D01*
X9071Y78519D01*
X9238Y78501D01*
X10762Y78501D01*
X10782Y78504D01*
X10801Y78502D01*
X10903Y78524D01*
X11005Y78541D01*
X11022Y78550D01*
X11042Y78554D01*
X11131Y78607D01*
X11222Y78656D01*
X11236Y78670D01*
X11253Y78680D01*
X11320Y78759D01*
X11391Y78834D01*
X11400Y78852D01*
X11413Y78867D01*
X11452Y78963D01*
X11495Y79057D01*
X11497Y79077D01*
X11505Y79095D01*
X11523Y79262D01*
X11523Y84541D01*
X14834Y84541D01*
X15481Y84368D01*
X16060Y84033D01*
X16533Y83560D01*
X16868Y82981D01*
X17041Y82334D01*
X17041Y80097D01*
X17060Y79981D01*
X17078Y79863D01*
X17080Y79859D01*
X17080Y79855D01*
X17136Y79750D01*
X17191Y79644D01*
X17194Y79641D01*
X17196Y79637D01*
X17282Y79555D01*
X17367Y79473D01*
X17371Y79471D01*
X17374Y79468D01*
X17482Y79418D01*
X17589Y79367D01*
X17593Y79366D01*
X17597Y79364D01*
X17715Y79351D01*
X17833Y79337D01*
X17838Y79338D01*
X17841Y79337D01*
X17855Y79340D01*
X17999Y79362D01*
X18666Y79541D01*
X23477Y79541D01*
X23477Y73762D01*
X23480Y73742D01*
X23478Y73723D01*
X23500Y73621D01*
X23517Y73519D01*
X23526Y73502D01*
X23530Y73482D01*
X23583Y73393D01*
X23632Y73302D01*
X23646Y73288D01*
X23656Y73271D01*
X23735Y73204D01*
X23810Y73133D01*
X23828Y73124D01*
X23843Y73111D01*
X23939Y73072D01*
X24033Y73029D01*
X24053Y73027D01*
X24071Y73019D01*
X24238Y73001D01*
X25001Y73001D01*
X25001Y72999D01*
X24238Y72999D01*
X24218Y72996D01*
X24199Y72998D01*
X24097Y72976D01*
X23995Y72959D01*
X23978Y72950D01*
X23958Y72946D01*
X23869Y72893D01*
X23778Y72844D01*
X23764Y72830D01*
X23747Y72820D01*
X23680Y72741D01*
X23609Y72666D01*
X23600Y72648D01*
X23587Y72633D01*
X23548Y72537D01*
X23505Y72443D01*
X23503Y72423D01*
X23495Y72405D01*
X23477Y72238D01*
X23477Y66459D01*
X18666Y66459D01*
X18019Y66632D01*
X17440Y66967D01*
X16967Y67440D01*
X16632Y68019D01*
X16459Y68666D01*
X16459Y71903D01*
X16440Y72019D01*
X16422Y72137D01*
X16420Y72141D01*
X16420Y72145D01*
X16364Y72250D01*
X16309Y72356D01*
X16306Y72359D01*
X16304Y72363D01*
X16218Y72445D01*
X16133Y72527D01*
X16129Y72529D01*
X16126Y72532D01*
X16018Y72582D01*
X15911Y72633D01*
X15907Y72634D01*
X15903Y72636D01*
X15785Y72649D01*
X15667Y72663D01*
X15662Y72662D01*
X15659Y72663D01*
X15645Y72660D01*
X15501Y72638D01*
X14834Y72459D01*
X11523Y72459D01*
X11523Y77738D01*
X11520Y77758D01*
X11522Y77777D01*
X11500Y77879D01*
X11483Y77981D01*
X11474Y77998D01*
X11470Y78018D01*
X11417Y78107D01*
X11368Y78198D01*
X11354Y78212D01*
X11344Y78229D01*
X11265Y78296D01*
X11190Y78367D01*
X11172Y78376D01*
X11157Y78389D01*
X11061Y78428D01*
X10967Y78471D01*
X10947Y78473D01*
X10929Y78481D01*
X10762Y78499D01*
X9238Y78499D01*
X9218Y78496D01*
X9199Y78498D01*
X9097Y78476D01*
X8995Y78459D01*
X8978Y78450D01*
X8958Y78446D01*
X8869Y78393D01*
X8778Y78344D01*
X8764Y78330D01*
X8747Y78320D01*
X8680Y78241D01*
X8609Y78166D01*
X8600Y78148D01*
X8587Y78133D01*
X8548Y78037D01*
X8505Y77943D01*
X8503Y77923D01*
X8495Y77905D01*
X8477Y77738D01*
X8477Y72459D01*
X5842Y72459D01*
X5822Y72456D01*
X5803Y72458D01*
X5701Y72436D01*
X5599Y72420D01*
X5582Y72410D01*
X5562Y72406D01*
X5473Y72353D01*
X5382Y72304D01*
X5368Y72290D01*
X5351Y72280D01*
X5284Y72201D01*
X5213Y72126D01*
X5204Y72108D01*
X5191Y72093D01*
X5152Y71996D01*
X5109Y71903D01*
X5107Y71883D01*
X5099Y71865D01*
X5081Y71698D01*
X5081Y5842D01*
X5084Y5822D01*
X5082Y5803D01*
X5104Y5701D01*
X5120Y5599D01*
X5130Y5582D01*
X5134Y5562D01*
X5187Y5473D01*
X5236Y5382D01*
X5250Y5368D01*
X5260Y5351D01*
X5339Y5284D01*
X5414Y5212D01*
X5432Y5204D01*
X5447Y5191D01*
X5543Y5152D01*
X5637Y5109D01*
X5657Y5107D01*
X5675Y5099D01*
X5842Y5081D01*
X19320Y5081D01*
X19340Y5084D01*
G37*
%LPC*%
G36*
X34868Y51475D02*
X34868Y51475D01*
X33975Y52368D01*
X33975Y53452D01*
X33972Y53472D01*
X33974Y53491D01*
X33952Y53593D01*
X33936Y53695D01*
X33926Y53712D01*
X33922Y53732D01*
X33869Y53821D01*
X33820Y53912D01*
X33806Y53926D01*
X33796Y53943D01*
X33717Y54010D01*
X33642Y54082D01*
X33624Y54090D01*
X33609Y54103D01*
X33513Y54142D01*
X33419Y54185D01*
X33399Y54187D01*
X33381Y54195D01*
X33214Y54213D01*
X29473Y54213D01*
X29383Y54199D01*
X29292Y54191D01*
X29262Y54179D01*
X29230Y54174D01*
X29149Y54131D01*
X29065Y54095D01*
X29033Y54069D01*
X29013Y54058D01*
X28990Y54035D01*
X28935Y53990D01*
X26887Y51943D01*
X23113Y51943D01*
X20443Y54613D01*
X20443Y58387D01*
X23113Y61057D01*
X26887Y61057D01*
X28935Y59010D01*
X29008Y58957D01*
X29078Y58897D01*
X29108Y58885D01*
X29134Y58866D01*
X29221Y58839D01*
X29306Y58805D01*
X29347Y58801D01*
X29369Y58794D01*
X29402Y58795D01*
X29473Y58787D01*
X33214Y58787D01*
X33234Y58790D01*
X33253Y58788D01*
X33355Y58810D01*
X33457Y58826D01*
X33474Y58836D01*
X33494Y58840D01*
X33583Y58893D01*
X33674Y58942D01*
X33688Y58956D01*
X33705Y58966D01*
X33772Y59045D01*
X33844Y59120D01*
X33852Y59138D01*
X33865Y59153D01*
X33904Y59249D01*
X33947Y59343D01*
X33949Y59363D01*
X33957Y59381D01*
X33975Y59548D01*
X33975Y60632D01*
X34868Y61525D01*
X36952Y61525D01*
X36972Y61528D01*
X36991Y61526D01*
X37093Y61548D01*
X37195Y61564D01*
X37212Y61574D01*
X37232Y61578D01*
X37321Y61631D01*
X37412Y61680D01*
X37426Y61694D01*
X37443Y61704D01*
X37510Y61783D01*
X37582Y61858D01*
X37590Y61876D01*
X37603Y61891D01*
X37642Y61987D01*
X37685Y62081D01*
X37687Y62101D01*
X37695Y62119D01*
X37713Y62286D01*
X37713Y72714D01*
X37710Y72734D01*
X37712Y72753D01*
X37690Y72855D01*
X37674Y72957D01*
X37664Y72974D01*
X37660Y72994D01*
X37607Y73083D01*
X37558Y73174D01*
X37544Y73188D01*
X37534Y73205D01*
X37455Y73272D01*
X37380Y73344D01*
X37362Y73352D01*
X37347Y73365D01*
X37251Y73404D01*
X37157Y73447D01*
X37137Y73449D01*
X37119Y73457D01*
X36952Y73475D01*
X34868Y73475D01*
X34043Y74300D01*
X33970Y74353D01*
X33900Y74413D01*
X33870Y74425D01*
X33844Y74444D01*
X33757Y74471D01*
X33672Y74505D01*
X33631Y74509D01*
X33609Y74516D01*
X33576Y74515D01*
X33505Y74523D01*
X26523Y74523D01*
X26523Y79541D01*
X31334Y79541D01*
X31981Y79368D01*
X32560Y79033D01*
X32676Y78917D01*
X32734Y78875D01*
X32786Y78826D01*
X32833Y78804D01*
X32875Y78774D01*
X32944Y78753D01*
X33009Y78723D01*
X33061Y78717D01*
X33110Y78701D01*
X33182Y78703D01*
X33253Y78695D01*
X33304Y78707D01*
X33356Y78708D01*
X33424Y78732D01*
X33494Y78748D01*
X33538Y78774D01*
X33587Y78792D01*
X33643Y78837D01*
X33705Y78874D01*
X33739Y78913D01*
X33779Y78946D01*
X33818Y79006D01*
X33865Y79061D01*
X33884Y79109D01*
X33912Y79153D01*
X33930Y79222D01*
X33957Y79289D01*
X33965Y79360D01*
X33973Y79391D01*
X33971Y79415D01*
X33975Y79456D01*
X33975Y82632D01*
X34868Y83525D01*
X45132Y83525D01*
X46025Y82632D01*
X46025Y74368D01*
X45132Y73475D01*
X43048Y73475D01*
X43028Y73472D01*
X43009Y73474D01*
X42907Y73452D01*
X42805Y73436D01*
X42788Y73426D01*
X42768Y73422D01*
X42679Y73369D01*
X42588Y73320D01*
X42574Y73306D01*
X42557Y73296D01*
X42490Y73217D01*
X42418Y73142D01*
X42410Y73124D01*
X42397Y73109D01*
X42358Y73013D01*
X42315Y72919D01*
X42313Y72899D01*
X42305Y72881D01*
X42287Y72714D01*
X42287Y62286D01*
X42290Y62266D01*
X42288Y62247D01*
X42310Y62145D01*
X42326Y62043D01*
X42336Y62026D01*
X42340Y62006D01*
X42393Y61917D01*
X42442Y61826D01*
X42456Y61812D01*
X42466Y61795D01*
X42545Y61728D01*
X42620Y61656D01*
X42638Y61648D01*
X42653Y61635D01*
X42749Y61596D01*
X42843Y61553D01*
X42863Y61551D01*
X42881Y61543D01*
X43048Y61525D01*
X45132Y61525D01*
X45920Y60737D01*
X45978Y60695D01*
X46030Y60645D01*
X46077Y60623D01*
X46119Y60593D01*
X46188Y60572D01*
X46253Y60542D01*
X46305Y60536D01*
X46355Y60521D01*
X46426Y60523D01*
X46497Y60515D01*
X46548Y60526D01*
X46600Y60527D01*
X46668Y60552D01*
X46738Y60567D01*
X46783Y60594D01*
X46831Y60611D01*
X46887Y60656D01*
X46949Y60693D01*
X46983Y60733D01*
X47023Y60765D01*
X47062Y60825D01*
X47109Y60880D01*
X47128Y60928D01*
X47156Y60972D01*
X47174Y61042D01*
X47201Y61108D01*
X47209Y61179D01*
X47217Y61211D01*
X47215Y61234D01*
X47219Y61275D01*
X47219Y64705D01*
X48754Y68410D01*
X50180Y69837D01*
X50192Y69853D01*
X50208Y69865D01*
X50264Y69953D01*
X50324Y70036D01*
X50330Y70055D01*
X50341Y70072D01*
X50366Y70173D01*
X50396Y70272D01*
X50396Y70291D01*
X50401Y70311D01*
X50393Y70414D01*
X50390Y70517D01*
X50383Y70536D01*
X50382Y70556D01*
X50341Y70651D01*
X50306Y70748D01*
X50293Y70764D01*
X50285Y70782D01*
X50180Y70913D01*
X49425Y71668D01*
X49425Y88332D01*
X50318Y89225D01*
X64282Y89225D01*
X65199Y88308D01*
X65273Y88255D01*
X65342Y88195D01*
X65372Y88183D01*
X65398Y88164D01*
X65485Y88138D01*
X68207Y85415D01*
X68207Y81641D01*
X65398Y78832D01*
X65345Y78758D01*
X65285Y78688D01*
X65273Y78658D01*
X65254Y78632D01*
X65227Y78545D01*
X65193Y78460D01*
X65189Y78419D01*
X65182Y78397D01*
X65183Y78365D01*
X65175Y78293D01*
X65175Y71668D01*
X64420Y70913D01*
X64408Y70897D01*
X64392Y70885D01*
X64336Y70797D01*
X64276Y70714D01*
X64270Y70695D01*
X64259Y70678D01*
X64234Y70577D01*
X64204Y70478D01*
X64204Y70459D01*
X64199Y70439D01*
X64207Y70336D01*
X64210Y70233D01*
X64217Y70214D01*
X64218Y70194D01*
X64259Y70099D01*
X64294Y70002D01*
X64307Y69986D01*
X64315Y69968D01*
X64420Y69837D01*
X65846Y68410D01*
X67381Y64705D01*
X67381Y60695D01*
X65846Y56990D01*
X63010Y54154D01*
X59305Y52619D01*
X55295Y52619D01*
X51590Y54154D01*
X48754Y56990D01*
X47489Y60043D01*
X47438Y60126D01*
X47392Y60212D01*
X47373Y60230D01*
X47360Y60252D01*
X47285Y60314D01*
X47214Y60381D01*
X47190Y60392D01*
X47170Y60409D01*
X47079Y60444D01*
X46991Y60485D01*
X46965Y60488D01*
X46941Y60497D01*
X46843Y60501D01*
X46747Y60512D01*
X46721Y60506D01*
X46695Y60507D01*
X46601Y60480D01*
X46506Y60460D01*
X46484Y60446D01*
X46459Y60439D01*
X46379Y60383D01*
X46295Y60333D01*
X46278Y60314D01*
X46257Y60299D01*
X46198Y60221D01*
X46135Y60147D01*
X46125Y60122D01*
X46110Y60101D01*
X46080Y60009D01*
X46043Y59918D01*
X46040Y59886D01*
X46034Y59867D01*
X46034Y59834D01*
X46025Y59752D01*
X46025Y52368D01*
X45132Y51475D01*
X34868Y51475D01*
G37*
%LPD*%
%LPC*%
G36*
X26523Y66459D02*
X26523Y66459D01*
X26523Y71477D01*
X33541Y71477D01*
X33541Y68666D01*
X33368Y68019D01*
X33033Y67440D01*
X32560Y66967D01*
X31981Y66632D01*
X31334Y66459D01*
X26523Y66459D01*
G37*
%LPD*%
D10*
X10000Y91500D03*
X10000Y78500D03*
D11*
X25000Y91000D03*
X25000Y73000D03*
D10*
X40000Y56500D03*
X40000Y43500D03*
X35000Y8500D03*
X35000Y21500D03*
X40000Y91500D03*
X40000Y78500D03*
D12*
X82700Y80000D03*
X57300Y80000D03*
X57300Y20000D03*
X82700Y20000D03*
D13*
X90000Y95000D03*
X90000Y5000D03*
D14*
X25000Y56500D03*
D15*
X40000Y56500D02*
X40000Y78500D01*
X40000Y56500D02*
X25000Y56500D01*
D14*
X24638Y6604D03*
D15*
X26534Y8500D02*
X35000Y8500D01*
X26534Y8500D02*
X24638Y6604D01*
D16*
X10000Y10000D03*
D17*
X57300Y20000D02*
X57300Y21249D01*
D16*
X70000Y55000D03*
D18*
X10500Y91000D02*
X10000Y91500D01*
X10500Y91000D02*
X25000Y91000D01*
X39500Y91000D02*
X40000Y91500D01*
X39500Y91000D02*
X25000Y91000D01*
X43500Y95000D02*
X90000Y95000D01*
X43500Y95000D02*
X40000Y91500D01*
D17*
X40362Y91138D01*
X90000Y95000D02*
X96250Y88750D01*
X82700Y20000D02*
X82700Y13550D01*
D15*
X82700Y12300D02*
X82700Y20000D01*
D18*
X82700Y12300D02*
X89158Y5842D01*
D15*
X90000Y5842D01*
X90000Y5000D02*
X96250Y11250D01*
D18*
X96250Y88750D01*
D15*
X90000Y5842D02*
X90000Y5000D01*
X39638Y91138D02*
X40000Y91500D01*
X39638Y91138D02*
X24638Y93726D01*
D14*
X24638Y93726D03*
D16*
X70000Y44204D03*
D15*
X69296Y43500D01*
X48167Y43500D02*
X40000Y43500D01*
X48167Y43500D02*
X52809Y48142D01*
X61791Y48142D01*
X66433Y43500D01*
X69296Y43500D01*
D14*
X72004Y8862D03*
D15*
X38517Y21500D02*
X35000Y21500D01*
X70852Y10014D02*
X72004Y8862D01*
X50003Y10014D02*
X38517Y21500D01*
X50003Y10014D02*
X70852Y10014D01*
D14*
X89050Y83528D03*
D15*
X85522Y80000D02*
X82700Y80000D01*
X85522Y80000D02*
X89050Y83528D01*
D14*
X63650Y83528D03*
D15*
X60122Y80000D02*
X57300Y80000D01*
X60122Y80000D02*
X63650Y83528D01*
M02*
