G04 EAGLE Gerber X2 export*
G75*
%MOMM*%
%FSLAX34Y34*%
%LPD*%
%AMOC8*
5,1,8,0,0,1.08239X$1,22.5*%
G01*
%ADD10R,0.609600X2.209800*%
%ADD11R,1.400000X0.350000*%
%ADD12R,1.900000X1.800000*%
%ADD13R,1.900000X1.900000*%
%ADD14R,2.000000X1.000000*%
%ADD15C,0.606400*%
%ADD16C,0.152400*%
%ADD17C,0.756400*%
%ADD18C,0.254000*%

G36*
X10782Y5084D02*
X10782Y5084D01*
X10801Y5082D01*
X10903Y5104D01*
X11005Y5120D01*
X11022Y5130D01*
X11042Y5134D01*
X11131Y5187D01*
X11222Y5236D01*
X11236Y5250D01*
X11253Y5260D01*
X11320Y5339D01*
X11391Y5414D01*
X11400Y5432D01*
X11413Y5447D01*
X11452Y5543D01*
X11495Y5637D01*
X11497Y5657D01*
X11505Y5675D01*
X11523Y5842D01*
X11523Y8477D01*
X19751Y8477D01*
X19841Y8492D01*
X19932Y8499D01*
X19962Y8511D01*
X19994Y8517D01*
X20075Y8559D01*
X20159Y8595D01*
X20191Y8621D01*
X20211Y8632D01*
X20234Y8655D01*
X20290Y8700D01*
X21813Y10224D01*
X21855Y10282D01*
X21905Y10334D01*
X21927Y10381D01*
X21957Y10423D01*
X21978Y10492D01*
X22008Y10557D01*
X22014Y10609D01*
X22029Y10658D01*
X22027Y10730D01*
X22035Y10801D01*
X22024Y10852D01*
X22023Y10904D01*
X21998Y10972D01*
X21983Y11042D01*
X21956Y11086D01*
X21939Y11135D01*
X21894Y11191D01*
X21857Y11253D01*
X21817Y11287D01*
X21785Y11327D01*
X21725Y11366D01*
X21670Y11413D01*
X21622Y11432D01*
X21578Y11460D01*
X21508Y11478D01*
X21442Y11505D01*
X21371Y11513D01*
X21339Y11520D01*
X21316Y11519D01*
X21275Y11523D01*
X11523Y11523D01*
X11523Y21541D01*
X19834Y21541D01*
X20481Y21368D01*
X21060Y21033D01*
X21533Y20560D01*
X21868Y19981D01*
X22041Y19334D01*
X22041Y11922D01*
X22043Y11906D01*
X22042Y11893D01*
X22042Y11889D01*
X22042Y11883D01*
X22064Y11781D01*
X22080Y11679D01*
X22090Y11662D01*
X22094Y11642D01*
X22147Y11553D01*
X22196Y11462D01*
X22210Y11448D01*
X22220Y11431D01*
X22299Y11364D01*
X22374Y11292D01*
X22392Y11284D01*
X22407Y11271D01*
X22503Y11232D01*
X22597Y11189D01*
X22617Y11187D01*
X22635Y11179D01*
X22802Y11161D01*
X26525Y11161D01*
X28573Y9114D01*
X28646Y9061D01*
X28716Y9001D01*
X28746Y8989D01*
X28772Y8970D01*
X28859Y8943D01*
X28944Y8909D01*
X28985Y8905D01*
X29007Y8898D01*
X29040Y8899D01*
X29111Y8891D01*
X42568Y8891D01*
X42588Y8894D01*
X42607Y8892D01*
X42709Y8914D01*
X42811Y8930D01*
X42828Y8940D01*
X42848Y8944D01*
X42937Y8997D01*
X43028Y9046D01*
X43042Y9060D01*
X43059Y9070D01*
X43126Y9149D01*
X43198Y9224D01*
X43206Y9242D01*
X43219Y9257D01*
X43258Y9353D01*
X43301Y9447D01*
X43303Y9467D01*
X43311Y9485D01*
X43329Y9652D01*
X43329Y29182D01*
X43389Y29252D01*
X43401Y29282D01*
X43420Y29308D01*
X43447Y29395D01*
X43481Y29480D01*
X43485Y29521D01*
X43492Y29543D01*
X43491Y29575D01*
X43499Y29646D01*
X43499Y31948D01*
X43496Y31968D01*
X43498Y31987D01*
X43476Y32089D01*
X43460Y32191D01*
X43450Y32208D01*
X43446Y32228D01*
X43393Y32317D01*
X43344Y32408D01*
X43330Y32422D01*
X43320Y32439D01*
X43241Y32506D01*
X43166Y32578D01*
X43148Y32586D01*
X43133Y32599D01*
X43037Y32638D01*
X42943Y32681D01*
X42923Y32683D01*
X42905Y32691D01*
X42738Y32709D01*
X37374Y32709D01*
X37374Y36887D01*
X37371Y36906D01*
X37373Y36926D01*
X37351Y37028D01*
X37335Y37130D01*
X37325Y37147D01*
X37321Y37167D01*
X37268Y37256D01*
X37219Y37347D01*
X37205Y37361D01*
X37195Y37378D01*
X37116Y37445D01*
X37041Y37516D01*
X37023Y37525D01*
X37015Y37531D01*
X36993Y37573D01*
X36979Y37587D01*
X36969Y37604D01*
X36890Y37671D01*
X36815Y37743D01*
X36797Y37751D01*
X36782Y37764D01*
X36685Y37803D01*
X36592Y37846D01*
X36572Y37848D01*
X36554Y37856D01*
X36387Y37874D01*
X26959Y37874D01*
X26959Y39084D01*
X27132Y39731D01*
X27467Y40310D01*
X27752Y40595D01*
X27805Y40669D01*
X27865Y40739D01*
X27877Y40769D01*
X27896Y40795D01*
X27923Y40882D01*
X27957Y40967D01*
X27961Y41008D01*
X27968Y41030D01*
X27967Y41062D01*
X27975Y41134D01*
X27975Y45882D01*
X28305Y46212D01*
X28317Y46228D01*
X28333Y46240D01*
X28389Y46327D01*
X28449Y46411D01*
X28455Y46430D01*
X28466Y46447D01*
X28491Y46548D01*
X28521Y46647D01*
X28521Y46666D01*
X28526Y46686D01*
X28518Y46789D01*
X28515Y46892D01*
X28508Y46911D01*
X28507Y46931D01*
X28466Y47026D01*
X28431Y47123D01*
X28418Y47139D01*
X28410Y47157D01*
X28305Y47288D01*
X27975Y47618D01*
X27975Y51193D01*
X27964Y51264D01*
X27962Y51337D01*
X27944Y51385D01*
X27936Y51436D01*
X27902Y51500D01*
X27877Y51568D01*
X27845Y51608D01*
X27820Y51653D01*
X27768Y51703D01*
X27723Y51759D01*
X27679Y51787D01*
X27642Y51823D01*
X27577Y51853D01*
X27516Y51892D01*
X27466Y51905D01*
X27419Y51926D01*
X27347Y51934D01*
X27277Y51952D01*
X27226Y51948D01*
X27175Y51953D01*
X27128Y51943D01*
X23113Y51943D01*
X22924Y52132D01*
X22827Y52201D01*
X22731Y52272D01*
X22727Y52273D01*
X22724Y52276D01*
X22611Y52310D01*
X22497Y52347D01*
X22493Y52347D01*
X22489Y52348D01*
X22370Y52345D01*
X22251Y52343D01*
X22247Y52342D01*
X22243Y52342D01*
X22130Y52300D01*
X22019Y52261D01*
X22016Y52259D01*
X22012Y52257D01*
X21918Y52182D01*
X21825Y52110D01*
X21823Y52106D01*
X21820Y52103D01*
X21812Y52092D01*
X21726Y51974D01*
X21533Y51640D01*
X21060Y51167D01*
X20481Y50832D01*
X20118Y50735D01*
X20075Y50716D01*
X20028Y50705D01*
X19963Y50665D01*
X19894Y50634D01*
X19859Y50601D01*
X19818Y50576D01*
X19769Y50518D01*
X19714Y50467D01*
X19691Y50425D01*
X19660Y50388D01*
X19633Y50317D01*
X19596Y50251D01*
X19588Y50203D01*
X19571Y50159D01*
X19567Y50083D01*
X19554Y50008D01*
X19561Y49961D01*
X19559Y49913D01*
X19580Y49840D01*
X19591Y49765D01*
X19613Y49723D01*
X19626Y49676D01*
X19669Y49614D01*
X19704Y49547D01*
X19738Y49513D01*
X19765Y49474D01*
X19826Y49428D01*
X19880Y49375D01*
X19924Y49355D01*
X19962Y49326D01*
X20082Y49279D01*
X20102Y49269D01*
X20109Y49268D01*
X20118Y49265D01*
X20481Y49168D01*
X21060Y48833D01*
X21533Y48360D01*
X21868Y47781D01*
X22041Y47134D01*
X22041Y38823D01*
X11523Y38823D01*
X11523Y61177D01*
X22396Y61177D01*
X22407Y61167D01*
X22503Y61128D01*
X22597Y61085D01*
X22617Y61083D01*
X22635Y61075D01*
X22802Y61057D01*
X27096Y61057D01*
X27110Y61053D01*
X27182Y61054D01*
X27253Y61047D01*
X27304Y61057D01*
X27355Y61059D01*
X27423Y61083D01*
X27494Y61099D01*
X27538Y61125D01*
X27587Y61143D01*
X27643Y61188D01*
X27705Y61225D01*
X27738Y61264D01*
X27779Y61296D01*
X27818Y61357D01*
X27865Y61412D01*
X27884Y61460D01*
X27912Y61503D01*
X27930Y61573D01*
X27957Y61640D01*
X27965Y61710D01*
X27972Y61741D01*
X27971Y61765D01*
X27975Y61807D01*
X27975Y65382D01*
X28868Y66275D01*
X44132Y66275D01*
X45025Y65382D01*
X45025Y60618D01*
X44695Y60288D01*
X44683Y60272D01*
X44667Y60260D01*
X44611Y60173D01*
X44551Y60089D01*
X44545Y60070D01*
X44534Y60053D01*
X44509Y59952D01*
X44479Y59853D01*
X44479Y59834D01*
X44474Y59814D01*
X44482Y59711D01*
X44485Y59608D01*
X44492Y59589D01*
X44493Y59569D01*
X44534Y59474D01*
X44569Y59377D01*
X44582Y59361D01*
X44590Y59343D01*
X44695Y59212D01*
X45025Y58882D01*
X45025Y54118D01*
X44695Y53788D01*
X44683Y53772D01*
X44667Y53760D01*
X44611Y53673D01*
X44551Y53589D01*
X44545Y53570D01*
X44534Y53553D01*
X44509Y53452D01*
X44479Y53353D01*
X44479Y53334D01*
X44474Y53314D01*
X44482Y53211D01*
X44485Y53108D01*
X44492Y53089D01*
X44493Y53069D01*
X44534Y52974D01*
X44569Y52877D01*
X44582Y52861D01*
X44590Y52843D01*
X44695Y52712D01*
X45025Y52382D01*
X45025Y50507D01*
X45039Y50417D01*
X45047Y50326D01*
X45059Y50297D01*
X45064Y50265D01*
X45107Y50184D01*
X45143Y50100D01*
X45169Y50068D01*
X45180Y50047D01*
X45203Y50025D01*
X45248Y49969D01*
X48073Y47144D01*
X48073Y44167D01*
X48084Y44096D01*
X48086Y44024D01*
X48104Y43975D01*
X48112Y43924D01*
X48146Y43861D01*
X48171Y43793D01*
X48203Y43753D01*
X48228Y43707D01*
X48280Y43657D01*
X48324Y43601D01*
X48368Y43573D01*
X48406Y43537D01*
X48471Y43507D01*
X48531Y43468D01*
X48582Y43456D01*
X48629Y43434D01*
X48700Y43426D01*
X48770Y43408D01*
X48822Y43412D01*
X48873Y43407D01*
X48944Y43422D01*
X49015Y43427D01*
X49063Y43448D01*
X49114Y43459D01*
X49175Y43496D01*
X49241Y43524D01*
X49297Y43569D01*
X49325Y43585D01*
X49340Y43603D01*
X49372Y43629D01*
X51590Y45846D01*
X55295Y47381D01*
X59305Y47381D01*
X63010Y45846D01*
X63394Y45463D01*
X63452Y45421D01*
X63504Y45371D01*
X63551Y45349D01*
X63593Y45319D01*
X63662Y45298D01*
X63727Y45268D01*
X63779Y45262D01*
X63829Y45247D01*
X63900Y45249D01*
X63971Y45241D01*
X64022Y45252D01*
X64074Y45253D01*
X64142Y45278D01*
X64212Y45293D01*
X64257Y45320D01*
X64305Y45337D01*
X64361Y45382D01*
X64423Y45419D01*
X64457Y45459D01*
X64497Y45491D01*
X64536Y45551D01*
X64583Y45606D01*
X64602Y45654D01*
X64630Y45698D01*
X64648Y45767D01*
X64675Y45834D01*
X64683Y45905D01*
X64691Y45937D01*
X64689Y45960D01*
X64693Y46001D01*
X64693Y46402D01*
X67802Y49511D01*
X72198Y49511D01*
X75307Y46402D01*
X75307Y46001D01*
X75318Y45930D01*
X75320Y45858D01*
X75338Y45809D01*
X75346Y45758D01*
X75380Y45695D01*
X75405Y45627D01*
X75437Y45587D01*
X75462Y45541D01*
X75514Y45491D01*
X75558Y45435D01*
X75602Y45407D01*
X75640Y45371D01*
X75705Y45341D01*
X75765Y45302D01*
X75816Y45290D01*
X75863Y45268D01*
X75934Y45260D01*
X76004Y45242D01*
X76056Y45246D01*
X76107Y45241D01*
X76178Y45256D01*
X76249Y45261D01*
X76297Y45282D01*
X76348Y45293D01*
X76409Y45330D01*
X76475Y45358D01*
X76531Y45403D01*
X76559Y45419D01*
X76574Y45437D01*
X76606Y45463D01*
X76990Y45846D01*
X77089Y45908D01*
X77189Y45967D01*
X77193Y45972D01*
X77198Y45975D01*
X77273Y46066D01*
X77349Y46154D01*
X77351Y46160D01*
X77355Y46165D01*
X77397Y46273D01*
X77441Y46382D01*
X77442Y46390D01*
X77443Y46395D01*
X77444Y46413D01*
X77459Y46549D01*
X77459Y48477D01*
X88477Y48477D01*
X88477Y46095D01*
X88492Y46005D01*
X88499Y45914D01*
X88511Y45884D01*
X88517Y45852D01*
X88559Y45772D01*
X88595Y45688D01*
X88621Y45655D01*
X88632Y45635D01*
X88655Y45613D01*
X88700Y45557D01*
X90224Y44033D01*
X90282Y43991D01*
X90334Y43941D01*
X90381Y43919D01*
X90423Y43889D01*
X90492Y43868D01*
X90557Y43838D01*
X90609Y43832D01*
X90658Y43817D01*
X90730Y43819D01*
X90801Y43811D01*
X90852Y43822D01*
X90904Y43823D01*
X90972Y43848D01*
X91042Y43863D01*
X91086Y43890D01*
X91135Y43908D01*
X91191Y43952D01*
X91253Y43989D01*
X91287Y44029D01*
X91327Y44061D01*
X91366Y44122D01*
X91413Y44176D01*
X91432Y44224D01*
X91460Y44268D01*
X91478Y44338D01*
X91505Y44404D01*
X91513Y44476D01*
X91520Y44507D01*
X91519Y44530D01*
X91523Y44571D01*
X91523Y49238D01*
X91520Y49256D01*
X91522Y49273D01*
X91522Y49274D01*
X91522Y49277D01*
X91500Y49379D01*
X91483Y49481D01*
X91474Y49498D01*
X91470Y49518D01*
X91417Y49607D01*
X91368Y49698D01*
X91354Y49712D01*
X91344Y49729D01*
X91265Y49796D01*
X91190Y49867D01*
X91172Y49876D01*
X91157Y49889D01*
X91061Y49928D01*
X90967Y49971D01*
X90947Y49973D01*
X90929Y49981D01*
X90762Y49999D01*
X89999Y49999D01*
X89999Y50762D01*
X89996Y50779D01*
X89998Y50795D01*
X89998Y50797D01*
X89998Y50801D01*
X89976Y50903D01*
X89959Y51005D01*
X89950Y51022D01*
X89946Y51042D01*
X89893Y51131D01*
X89844Y51222D01*
X89830Y51236D01*
X89820Y51253D01*
X89741Y51320D01*
X89666Y51391D01*
X89648Y51400D01*
X89633Y51413D01*
X89537Y51452D01*
X89443Y51495D01*
X89423Y51497D01*
X89405Y51505D01*
X89238Y51523D01*
X77459Y51523D01*
X77459Y53451D01*
X77440Y53566D01*
X77423Y53682D01*
X77421Y53687D01*
X77420Y53694D01*
X77365Y53797D01*
X77312Y53901D01*
X77307Y53905D01*
X77304Y53911D01*
X77219Y53992D01*
X77136Y54073D01*
X77130Y54077D01*
X77126Y54080D01*
X77109Y54088D01*
X76990Y54154D01*
X74154Y56990D01*
X72619Y60695D01*
X72619Y64705D01*
X74154Y68410D01*
X75398Y69655D01*
X75440Y69713D01*
X75490Y69765D01*
X75512Y69812D01*
X75542Y69854D01*
X75563Y69923D01*
X75593Y69988D01*
X75599Y70040D01*
X75614Y70090D01*
X75612Y70161D01*
X75620Y70232D01*
X75609Y70283D01*
X75608Y70335D01*
X75583Y70403D01*
X75568Y70473D01*
X75541Y70518D01*
X75524Y70566D01*
X75479Y70622D01*
X75442Y70684D01*
X75402Y70718D01*
X75370Y70758D01*
X75310Y70797D01*
X75255Y70844D01*
X75207Y70863D01*
X75163Y70891D01*
X75093Y70909D01*
X75027Y70936D01*
X74956Y70944D01*
X74924Y70952D01*
X74901Y70950D01*
X74860Y70954D01*
X72670Y70954D01*
X71777Y71847D01*
X71777Y94158D01*
X71775Y94173D01*
X71776Y94186D01*
X71775Y94190D01*
X71776Y94197D01*
X71754Y94299D01*
X71738Y94401D01*
X71728Y94418D01*
X71724Y94438D01*
X71671Y94527D01*
X71622Y94618D01*
X71608Y94632D01*
X71598Y94649D01*
X71519Y94716D01*
X71444Y94788D01*
X71426Y94796D01*
X71411Y94809D01*
X71315Y94848D01*
X71221Y94891D01*
X71201Y94893D01*
X71183Y94901D01*
X71016Y94919D01*
X68984Y94919D01*
X68964Y94916D01*
X68945Y94918D01*
X68843Y94896D01*
X68741Y94880D01*
X68724Y94870D01*
X68704Y94866D01*
X68615Y94813D01*
X68524Y94764D01*
X68510Y94750D01*
X68493Y94740D01*
X68426Y94661D01*
X68354Y94586D01*
X68346Y94568D01*
X68333Y94553D01*
X68294Y94457D01*
X68251Y94363D01*
X68249Y94343D01*
X68241Y94325D01*
X68223Y94158D01*
X68223Y71847D01*
X67330Y70954D01*
X65140Y70954D01*
X65069Y70943D01*
X64997Y70941D01*
X64948Y70923D01*
X64897Y70915D01*
X64834Y70881D01*
X64766Y70856D01*
X64726Y70824D01*
X64680Y70799D01*
X64630Y70747D01*
X64574Y70703D01*
X64546Y70659D01*
X64510Y70621D01*
X64480Y70556D01*
X64441Y70496D01*
X64429Y70445D01*
X64407Y70398D01*
X64399Y70327D01*
X64381Y70257D01*
X64385Y70205D01*
X64380Y70154D01*
X64395Y70083D01*
X64400Y70012D01*
X64421Y69964D01*
X64432Y69913D01*
X64469Y69852D01*
X64497Y69786D01*
X64542Y69730D01*
X64558Y69702D01*
X64576Y69687D01*
X64602Y69655D01*
X65846Y68410D01*
X67381Y64705D01*
X67381Y60695D01*
X65846Y56990D01*
X63010Y54154D01*
X59305Y52619D01*
X55295Y52619D01*
X51590Y54154D01*
X48754Y56990D01*
X47219Y60695D01*
X47219Y64705D01*
X48754Y68410D01*
X49998Y69655D01*
X50040Y69713D01*
X50090Y69765D01*
X50112Y69812D01*
X50142Y69854D01*
X50163Y69923D01*
X50193Y69988D01*
X50199Y70040D01*
X50214Y70090D01*
X50212Y70161D01*
X50220Y70232D01*
X50209Y70283D01*
X50208Y70335D01*
X50183Y70403D01*
X50168Y70473D01*
X50141Y70518D01*
X50124Y70566D01*
X50079Y70622D01*
X50042Y70684D01*
X50002Y70718D01*
X49970Y70758D01*
X49910Y70797D01*
X49855Y70844D01*
X49807Y70863D01*
X49763Y70891D01*
X49693Y70909D01*
X49627Y70936D01*
X49556Y70944D01*
X49524Y70952D01*
X49501Y70950D01*
X49460Y70954D01*
X47270Y70954D01*
X46377Y71847D01*
X46377Y83833D01*
X46363Y83923D01*
X46355Y84014D01*
X46343Y84044D01*
X46338Y84076D01*
X46295Y84156D01*
X46259Y84240D01*
X46233Y84272D01*
X46222Y84293D01*
X46199Y84315D01*
X46154Y84371D01*
X42208Y88318D01*
X42176Y88340D01*
X42150Y88370D01*
X42077Y88412D01*
X42008Y88461D01*
X41971Y88473D01*
X41937Y88492D01*
X41774Y88533D01*
X41773Y88533D01*
X28195Y90412D01*
X28175Y90412D01*
X28155Y90417D01*
X28053Y90409D01*
X27950Y90406D01*
X27930Y90399D01*
X27910Y90398D01*
X27815Y90357D01*
X27718Y90322D01*
X27702Y90309D01*
X27684Y90301D01*
X27553Y90197D01*
X26525Y89169D01*
X22802Y89169D01*
X22782Y89166D01*
X22763Y89168D01*
X22661Y89146D01*
X22559Y89130D01*
X22542Y89120D01*
X22522Y89116D01*
X22433Y89063D01*
X22342Y89014D01*
X22328Y89000D01*
X22311Y88990D01*
X22244Y88911D01*
X22172Y88836D01*
X22164Y88818D01*
X22151Y88803D01*
X22112Y88707D01*
X22069Y88613D01*
X22067Y88593D01*
X22059Y88575D01*
X22041Y88408D01*
X22041Y80666D01*
X21868Y80019D01*
X21533Y79440D01*
X21060Y78967D01*
X20481Y78632D01*
X19834Y78459D01*
X11523Y78459D01*
X11523Y89238D01*
X11520Y89258D01*
X11522Y89277D01*
X11500Y89379D01*
X11483Y89481D01*
X11474Y89498D01*
X11470Y89518D01*
X11417Y89607D01*
X11368Y89698D01*
X11354Y89712D01*
X11344Y89729D01*
X11265Y89796D01*
X11190Y89867D01*
X11172Y89876D01*
X11157Y89889D01*
X11061Y89928D01*
X10967Y89971D01*
X10947Y89973D01*
X10929Y89981D01*
X10762Y89999D01*
X9238Y89999D01*
X9218Y89996D01*
X9199Y89998D01*
X9097Y89976D01*
X8995Y89959D01*
X8978Y89950D01*
X8958Y89946D01*
X8869Y89893D01*
X8778Y89844D01*
X8764Y89830D01*
X8747Y89820D01*
X8680Y89741D01*
X8609Y89666D01*
X8600Y89648D01*
X8587Y89633D01*
X8548Y89537D01*
X8505Y89443D01*
X8503Y89423D01*
X8495Y89405D01*
X8477Y89238D01*
X8477Y78459D01*
X5842Y78459D01*
X5822Y78456D01*
X5803Y78458D01*
X5701Y78436D01*
X5599Y78420D01*
X5582Y78410D01*
X5562Y78406D01*
X5473Y78353D01*
X5382Y78304D01*
X5368Y78290D01*
X5351Y78280D01*
X5284Y78201D01*
X5212Y78126D01*
X5204Y78108D01*
X5191Y78093D01*
X5152Y77997D01*
X5109Y77903D01*
X5107Y77883D01*
X5099Y77865D01*
X5081Y77698D01*
X5081Y75502D01*
X5084Y75482D01*
X5082Y75463D01*
X5104Y75361D01*
X5120Y75259D01*
X5130Y75242D01*
X5134Y75222D01*
X5187Y75133D01*
X5236Y75042D01*
X5250Y75028D01*
X5260Y75011D01*
X5339Y74944D01*
X5414Y74872D01*
X5432Y74864D01*
X5447Y74851D01*
X5543Y74812D01*
X5637Y74769D01*
X5657Y74767D01*
X5675Y74759D01*
X5842Y74741D01*
X8477Y74741D01*
X8477Y63462D01*
X8480Y63442D01*
X8478Y63423D01*
X8500Y63321D01*
X8517Y63219D01*
X8526Y63202D01*
X8530Y63182D01*
X8583Y63093D01*
X8632Y63002D01*
X8646Y62988D01*
X8656Y62971D01*
X8735Y62904D01*
X8810Y62833D01*
X8828Y62824D01*
X8843Y62811D01*
X8939Y62772D01*
X9033Y62729D01*
X9053Y62727D01*
X9071Y62719D01*
X9238Y62701D01*
X10001Y62701D01*
X10001Y62699D01*
X9238Y62699D01*
X9218Y62696D01*
X9199Y62698D01*
X9097Y62676D01*
X8995Y62659D01*
X8978Y62650D01*
X8958Y62646D01*
X8869Y62593D01*
X8778Y62544D01*
X8764Y62530D01*
X8747Y62520D01*
X8680Y62441D01*
X8609Y62366D01*
X8600Y62348D01*
X8587Y62333D01*
X8548Y62237D01*
X8505Y62143D01*
X8503Y62123D01*
X8495Y62105D01*
X8477Y61938D01*
X8477Y38062D01*
X8480Y38042D01*
X8478Y38023D01*
X8500Y37921D01*
X8517Y37819D01*
X8526Y37802D01*
X8530Y37782D01*
X8583Y37693D01*
X8632Y37602D01*
X8646Y37588D01*
X8656Y37571D01*
X8735Y37504D01*
X8810Y37433D01*
X8828Y37424D01*
X8843Y37411D01*
X8939Y37372D01*
X9033Y37329D01*
X9053Y37327D01*
X9071Y37319D01*
X9238Y37301D01*
X10001Y37301D01*
X10001Y37299D01*
X9238Y37299D01*
X9218Y37296D01*
X9199Y37298D01*
X9097Y37276D01*
X8995Y37259D01*
X8978Y37250D01*
X8958Y37246D01*
X8869Y37193D01*
X8778Y37144D01*
X8764Y37130D01*
X8747Y37120D01*
X8680Y37041D01*
X8609Y36966D01*
X8600Y36948D01*
X8587Y36933D01*
X8548Y36837D01*
X8505Y36743D01*
X8503Y36723D01*
X8495Y36705D01*
X8477Y36538D01*
X8477Y25259D01*
X5842Y25259D01*
X5822Y25256D01*
X5803Y25258D01*
X5701Y25236D01*
X5599Y25220D01*
X5582Y25210D01*
X5562Y25206D01*
X5473Y25153D01*
X5382Y25104D01*
X5368Y25090D01*
X5351Y25080D01*
X5284Y25001D01*
X5212Y24926D01*
X5204Y24908D01*
X5191Y24893D01*
X5152Y24797D01*
X5109Y24703D01*
X5107Y24683D01*
X5099Y24665D01*
X5081Y24498D01*
X5081Y22302D01*
X5084Y22282D01*
X5082Y22263D01*
X5104Y22161D01*
X5120Y22059D01*
X5130Y22042D01*
X5134Y22022D01*
X5187Y21933D01*
X5236Y21842D01*
X5250Y21828D01*
X5260Y21811D01*
X5339Y21744D01*
X5414Y21672D01*
X5432Y21664D01*
X5447Y21651D01*
X5543Y21612D01*
X5637Y21569D01*
X5657Y21567D01*
X5675Y21559D01*
X5842Y21541D01*
X8477Y21541D01*
X8477Y11523D01*
X5842Y11523D01*
X5822Y11520D01*
X5803Y11522D01*
X5701Y11500D01*
X5599Y11483D01*
X5582Y11474D01*
X5562Y11470D01*
X5473Y11417D01*
X5382Y11368D01*
X5368Y11354D01*
X5351Y11344D01*
X5284Y11265D01*
X5212Y11190D01*
X5204Y11172D01*
X5191Y11157D01*
X5152Y11060D01*
X5109Y10967D01*
X5107Y10947D01*
X5099Y10929D01*
X5081Y10762D01*
X5081Y9238D01*
X5084Y9218D01*
X5082Y9199D01*
X5104Y9097D01*
X5120Y8995D01*
X5130Y8978D01*
X5134Y8958D01*
X5187Y8869D01*
X5236Y8778D01*
X5250Y8764D01*
X5260Y8747D01*
X5339Y8680D01*
X5414Y8609D01*
X5432Y8600D01*
X5447Y8587D01*
X5543Y8548D01*
X5637Y8505D01*
X5657Y8503D01*
X5675Y8495D01*
X5842Y8477D01*
X8477Y8477D01*
X8477Y5842D01*
X8480Y5822D01*
X8478Y5803D01*
X8500Y5701D01*
X8517Y5599D01*
X8526Y5582D01*
X8530Y5562D01*
X8583Y5473D01*
X8632Y5382D01*
X8646Y5368D01*
X8656Y5351D01*
X8735Y5284D01*
X8810Y5212D01*
X8828Y5204D01*
X8843Y5191D01*
X8939Y5152D01*
X9033Y5109D01*
X9053Y5107D01*
X9071Y5099D01*
X9238Y5081D01*
X10762Y5081D01*
X10782Y5084D01*
G37*
G36*
X82720Y5084D02*
X82720Y5084D01*
X82739Y5082D01*
X82841Y5104D01*
X82943Y5120D01*
X82960Y5130D01*
X82980Y5134D01*
X83069Y5187D01*
X83160Y5236D01*
X83174Y5250D01*
X83191Y5260D01*
X83258Y5339D01*
X83330Y5414D01*
X83338Y5432D01*
X83351Y5447D01*
X83390Y5543D01*
X83433Y5637D01*
X83435Y5657D01*
X83443Y5675D01*
X83461Y5842D01*
X83461Y14695D01*
X88288Y14695D01*
X88308Y14698D01*
X88327Y14696D01*
X88429Y14718D01*
X88531Y14735D01*
X88548Y14744D01*
X88568Y14748D01*
X88657Y14801D01*
X88748Y14850D01*
X88762Y14864D01*
X88779Y14874D01*
X88846Y14953D01*
X88917Y15028D01*
X88926Y15046D01*
X88939Y15061D01*
X88978Y15157D01*
X89021Y15251D01*
X89023Y15271D01*
X89031Y15289D01*
X89049Y15456D01*
X89049Y16219D01*
X89812Y16219D01*
X89832Y16222D01*
X89851Y16220D01*
X89953Y16242D01*
X90055Y16259D01*
X90072Y16268D01*
X90092Y16272D01*
X90181Y16325D01*
X90272Y16374D01*
X90286Y16388D01*
X90303Y16398D01*
X90370Y16477D01*
X90441Y16552D01*
X90450Y16570D01*
X90463Y16585D01*
X90502Y16681D01*
X90545Y16775D01*
X90547Y16795D01*
X90555Y16813D01*
X90573Y16980D01*
X90573Y29079D01*
X90562Y29150D01*
X90560Y29222D01*
X90542Y29270D01*
X90533Y29322D01*
X90500Y29385D01*
X90475Y29453D01*
X90443Y29493D01*
X90418Y29539D01*
X90366Y29589D01*
X90322Y29645D01*
X90278Y29673D01*
X90240Y29709D01*
X90175Y29739D01*
X90115Y29778D01*
X90064Y29790D01*
X90017Y29812D01*
X89946Y29820D01*
X89876Y29838D01*
X89824Y29834D01*
X89772Y29839D01*
X89702Y29824D01*
X89631Y29818D01*
X89583Y29798D01*
X89532Y29787D01*
X89470Y29750D01*
X89405Y29722D01*
X89349Y29677D01*
X89321Y29661D01*
X89306Y29643D01*
X89274Y29617D01*
X88410Y28754D01*
X87997Y28583D01*
X87898Y28521D01*
X87797Y28461D01*
X87793Y28456D01*
X87788Y28453D01*
X87714Y28364D01*
X87637Y28274D01*
X87635Y28268D01*
X87631Y28264D01*
X87589Y28156D01*
X87545Y28046D01*
X87544Y28039D01*
X87543Y28034D01*
X87542Y28016D01*
X87527Y27879D01*
X87527Y17741D01*
X83461Y17741D01*
X83461Y26458D01*
X83458Y26478D01*
X83460Y26497D01*
X83438Y26599D01*
X83422Y26701D01*
X83412Y26718D01*
X83408Y26738D01*
X83355Y26827D01*
X83306Y26918D01*
X83292Y26932D01*
X83282Y26949D01*
X83203Y27016D01*
X83128Y27088D01*
X83110Y27096D01*
X83095Y27109D01*
X82999Y27148D01*
X82905Y27191D01*
X82885Y27193D01*
X82867Y27201D01*
X82700Y27219D01*
X81684Y27219D01*
X81664Y27216D01*
X81645Y27218D01*
X81543Y27196D01*
X81441Y27180D01*
X81424Y27170D01*
X81404Y27166D01*
X81315Y27113D01*
X81224Y27064D01*
X81210Y27050D01*
X81193Y27040D01*
X81126Y26961D01*
X81054Y26886D01*
X81046Y26868D01*
X81033Y26853D01*
X80994Y26757D01*
X80951Y26663D01*
X80949Y26643D01*
X80941Y26625D01*
X80923Y26458D01*
X80923Y5842D01*
X80926Y5822D01*
X80924Y5803D01*
X80946Y5701D01*
X80962Y5599D01*
X80972Y5582D01*
X80976Y5562D01*
X81029Y5473D01*
X81078Y5382D01*
X81092Y5368D01*
X81102Y5351D01*
X81181Y5284D01*
X81256Y5212D01*
X81274Y5204D01*
X81289Y5191D01*
X81385Y5152D01*
X81479Y5109D01*
X81499Y5107D01*
X81517Y5099D01*
X81684Y5081D01*
X82700Y5081D01*
X82720Y5084D01*
G37*
%LPC*%
G36*
X11523Y64223D02*
X11523Y64223D01*
X11523Y74741D01*
X19834Y74741D01*
X20481Y74568D01*
X21060Y74233D01*
X21533Y73760D01*
X21868Y73181D01*
X22041Y72534D01*
X22041Y64223D01*
X11523Y64223D01*
G37*
%LPD*%
%LPC*%
G36*
X11523Y25259D02*
X11523Y25259D01*
X11523Y35777D01*
X22041Y35777D01*
X22041Y27466D01*
X21868Y26819D01*
X21533Y26240D01*
X21060Y25767D01*
X20481Y25432D01*
X19834Y25259D01*
X11523Y25259D01*
G37*
%LPD*%
%LPC*%
G36*
X29166Y32709D02*
X29166Y32709D01*
X28519Y32882D01*
X27940Y33217D01*
X27467Y33690D01*
X27132Y34269D01*
X26959Y34916D01*
X26959Y36126D01*
X35626Y36126D01*
X35626Y32709D01*
X29166Y32709D01*
G37*
%LPD*%
%LPC*%
G36*
X9999Y9999D02*
X9999Y9999D01*
X9999Y10001D01*
X10001Y10001D01*
X10001Y9999D01*
X9999Y9999D01*
G37*
%LPD*%
D10*
X50950Y16218D03*
X63650Y16218D03*
X76350Y16218D03*
X89050Y16218D03*
X89050Y83528D03*
X76350Y83528D03*
X63650Y83528D03*
X50950Y83528D03*
D11*
X36500Y63000D03*
X36500Y37000D03*
X36500Y56500D03*
X36500Y50000D03*
X36500Y43500D03*
D12*
X10000Y90000D03*
X10000Y10000D03*
D13*
X10000Y62700D03*
X10000Y37300D03*
D14*
X90000Y50000D03*
D15*
X25000Y56500D03*
D16*
X36500Y56500D01*
D15*
X24638Y6604D03*
D16*
X45786Y46197D02*
X44447Y47536D01*
X38964Y47536D02*
X36500Y50000D01*
X38964Y47536D02*
X44447Y47536D01*
X45786Y28384D02*
X45616Y28214D01*
X45786Y28384D02*
X45786Y46197D01*
X45616Y28214D02*
X45616Y12700D01*
X44704Y6604D02*
X24638Y6604D01*
X44704Y6604D02*
X45616Y7516D01*
X45616Y12700D01*
D17*
X10000Y10000D03*
X70000Y55000D03*
D16*
X90000Y50000D02*
X90000Y45333D01*
X93542Y41791D01*
X93542Y30042D01*
X88900Y25400D01*
X88900Y16368D01*
X89050Y16218D01*
D15*
X24638Y93726D03*
D18*
X43340Y91138D02*
X50950Y83528D01*
X43340Y91138D02*
X24638Y93726D01*
D17*
X70000Y44204D03*
D16*
X63650Y28317D02*
X63650Y16218D01*
X63650Y28317D02*
X68142Y32809D01*
X68142Y42346D02*
X70000Y44204D01*
X68142Y42346D02*
X68142Y32809D01*
X76350Y16218D02*
X76350Y12928D01*
X76350Y16218D02*
X72004Y11872D01*
X72004Y8862D01*
D15*
X72004Y8862D03*
X89050Y83528D03*
X63650Y83528D03*
M02*
